<svg width="20" height="5" viewBox="0 0 20 5" fill="none" xmlns="http://www.w3.org/2000/svg"><path d="M5.99.912v.293c.325.005.685.107.925.316l-.36.373a.786.786 0 00-.564-.235v.897c.453.142.946.351.946.95 0 .618-.453.934-.946.947v.32h-.24v-.32c-.391-.013-.765-.142-1.044-.413l.39-.373c.16.186.427.324.654.329v-.987c-.52-.142-.929-.346-.929-.915 0-.529.453-.849.929-.88V.912h.24zm-.24 1.582v-.835c-.208.022-.395.15-.395.408 0 .245.169.36.396.427zm.24.586v.916c.25-.014.414-.196.414-.458s-.178-.378-.413-.458zm1.553 1.324v-.488l1.213-1.191c.195-.191.32-.373.32-.618 0-.293-.218-.484-.503-.484-.302 0-.493.231-.533.538l-.52-.08c.063-.52.485-.902 1.062-.902.547 0 1.049.315 1.049.92 0 .404-.227.684-.507.95l-.906.867h1.417v.488H7.543zm2.511.56l.311-1.173h.516l-.378 1.173h-.449zm2.594-.56v-.653h-1.453v-.47l1.337-2.022h.64v2.035h.44v.457h-.44v.653h-.524zm0-1.11V1.885h-.009l-.893 1.409h.902zm3.41-2.035v.48h-1.285l-.031.68c.098-.027.258-.04.369-.04.617 0 1.084.36 1.084.995 0 .697-.52 1.11-1.146 1.11-.525 0-.898-.266-1.062-.688l.484-.178a.612.612 0 00.59.413c.316 0 .587-.218.587-.6 0-.484-.36-.626-.702-.626-.24 0-.542.075-.733.173l.054-1.72h1.79zm2.933 1.573c0 1.017-.395 1.652-1.106 1.652-.716 0-1.116-.635-1.116-1.652 0-1.018.4-1.653 1.116-1.653.71 0 1.106.635 1.106 1.653zm-.546 0c0-.44-.085-1.209-.56-1.209-.48 0-.569.769-.569 1.209 0 .44.089 1.2.569 1.2.475 0 .56-.76.56-1.2z" fill="#fff"/><path fill-rule="evenodd" clip-rule="evenodd" d="M2.108 4.132c.675 0 1.222-.597 1.222-1.334 0-.736-.547-1.333-1.222-1.333-.674 0-1.221.597-1.221 1.333 0 .737.547 1.334 1.221 1.334z" fill="#00D7D7"/></svg>