<svg width="12" height="5" viewBox="0 0 12 5" fill="none" xmlns="http://www.w3.org/2000/svg"><path d="M.658 1.156L1.724 3.76h.005l1.053-2.604h.488v3.146h-.32V1.569h-.008L1.804 4.302h-.169L.498 1.569H.489v2.733H.17V1.156h.489zm3.597 1.946h1.418c-.018-.39-.258-.68-.689-.68a.736.736 0 00-.729.68zM5.98 3.2c0 .04 0 .089-.004.142H4.25a.758.758 0 00.76.755c.31 0 .55-.173.666-.36l.227.178c-.245.311-.551.44-.893.44-.618 0-1.075-.466-1.075-1.093 0-.626.457-1.093 1.048-1.093.653 0 .995.462.995 1.03zm1.935-.173V2.96c0-.36-.196-.538-.556-.538a.884.884 0 00-.617.245l-.169-.2c.169-.169.462-.298.817-.298.45 0 .809.249.809.755v.911c0 .16.013.351.036.467h-.271a2.073 2.073 0 01-.032-.338h-.008c-.191.276-.423.391-.756.391-.315 0-.72-.169-.72-.63 0-.64.707-.698 1.467-.698zm0 .235h-.09c-.492 0-1.065.053-1.065.449 0 .298.253.395.488.395.427 0 .667-.32.667-.688v-.156zM9.287.943v3.359h-.302V.943h.302zm2.146 1.6l-.231.173a.564.564 0 00-.511-.294c-.218 0-.44.094-.44.325 0 .195.156.284.498.355.489.102.72.285.72.609 0 .475-.4.644-.782.644-.316 0-.631-.124-.822-.404l.24-.178a.688.688 0 00.577.324c.258 0 .489-.093.489-.364 0-.218-.218-.306-.613-.4-.245-.058-.596-.164-.596-.56 0-.422.365-.604.742-.604.29 0 .596.138.729.373z" fill="#fff"/></svg>