<svg width="64" height="12" viewBox="0 0 64 12" fill="none" xmlns="http://www.w3.org/2000/svg"><path d="M.496 8.514V.989H3.11c1.414 0 2.774.563 2.774 2.158 0 1.084-.67 1.796-1.721 2.03L6.17 8.514H4.556L2.813 5.325h-.978v3.189H.496zm1.34-4.283H2.93c.754 0 1.615-.181 1.615-1.095 0-.818-.808-1.02-1.498-1.02H1.835V4.23zm5.708 1.222h2.615c0-.66-.372-1.233-1.201-1.233-.755 0-1.36.52-1.414 1.233zm3.89.574c0 .117 0 .223-.01.34h-3.88C7.597 7.09 8.256 7.62 9 7.62c.638 0 1.063-.255 1.35-.659l.85.68c-.5.68-1.222 1.02-2.19 1.02-1.572 0-2.741-1.01-2.741-2.667 0-1.647 1.158-2.731 2.7-2.731 1.423 0 2.465.924 2.465 2.763zm5.167-1.966l-.871.765c-.202-.287-.638-.5-1.052-.5-.936 0-1.403.84-1.403 1.637S13.753 7.6 14.72 7.6c.393 0 .83-.16 1.074-.457l.797.807c-.425.457-1.127.712-1.881.712-1.51 0-2.764-.999-2.764-2.699 0-1.658 1.233-2.7 2.732-2.7.744 0 1.52.298 1.923.798zm1.385 1.392H20.6c0-.66-.372-1.233-1.2-1.233-.755 0-1.36.52-1.414 1.233zm3.89.574c0 .117 0 .223-.01.34h-3.88c.053.723.712 1.254 1.456 1.254.638 0 1.063-.255 1.35-.659l.85.68c-.5.68-1.222 1.02-2.19 1.02-1.572 0-2.741-1.01-2.741-2.667 0-1.647 1.158-2.731 2.7-2.731 1.423 0 2.465.924 2.465 2.763zm.831 2.487V3.412h1.275v5.102h-1.275zm-.18-6.834c0-.404.34-.765.807-.765.468 0 .83.33.83.765 0 .436-.362.765-.83.765-.468 0-.808-.361-.808-.765zm2.578 1.732h1.222v.712h.032c.255-.403.828-.86 1.764-.86 1.456 0 2.476 1.169 2.476 2.678 0 1.488-.957 2.72-2.508 2.72-.712 0-1.36-.318-1.69-.829h-.021v3.231h-1.275V3.412zm4.197 2.53c0-.797-.478-1.637-1.466-1.637-.935 0-1.499.86-1.499 1.658 0 .797.564 1.637 1.499 1.637.988 0 1.466-.861 1.466-1.658zm2.262-1.51h-.893v-1.02h.893V1.935h1.254v1.477h1.276v1.02h-1.276v2.37c0 .458.107.787.67.787.17 0 .393-.032.542-.106l.042.999a2.64 2.64 0 01-.85.138c-1.35 0-1.658-.829-1.658-1.807v-2.38zm10.031-2.826l-.871.956c-.287-.372-.85-.648-1.382-.648-.616 0-1.328.297-1.328 1.03 0 .692.584.893 1.434 1.16.968.297 2.2.722 2.2 2.2 0 1.615-1.264 2.401-2.742 2.401-.977 0-1.987-.372-2.582-1.073l.956-.893c.372.51 1.052.829 1.648.829.627 0 1.36-.308 1.36-1.116 0-.787-.786-1.01-1.732-1.307-.914-.287-1.903-.734-1.903-2.137 0-1.53 1.392-2.21 2.753-2.21.754 0 1.615.266 2.19.808zm4.073 6.908v-.649h-.032c-.255.447-.86.776-1.584.776-.818 0-1.913-.393-1.913-1.583 0-1.52 1.913-1.733 3.508-1.733v-.127c0-.627-.532-.935-1.17-.935-.541 0-1.062.255-1.392.584l-.659-.776c.574-.531 1.382-.807 2.158-.807 1.828 0 2.274 1.126 2.274 2.146v3.104h-1.19zm-.021-2.147v-.18h-.287c-.808 0-1.945.095-1.945.85 0 .488.457.637.893.637.871 0 1.339-.5 1.339-1.307zm3.569 2.147l-2.062-5.102h1.392l1.34 3.72h.02l1.35-3.72h1.35l-2.03 5.102h-1.36zm4.704-3.061h2.615c0-.66-.372-1.233-1.201-1.233-.755 0-1.36.52-1.414 1.233zm3.89.574c0 .117 0 .223-.01.34h-3.88c.053.723.712 1.254 1.456 1.254.638 0 1.063-.255 1.35-.659l.85.68c-.5.68-1.222 1.02-2.189 1.02-1.573 0-2.742-1.01-2.742-2.667 0-1.647 1.158-2.731 2.7-2.731 1.424 0 2.465.924 2.465 2.763zM63.807.479v8.035h-1.212v-.766h-.021c-.351.585-1.042.914-1.754.914-1.551 0-2.508-1.232-2.508-2.72 0-1.51 1.02-2.678 2.476-2.678.936 0 1.446.467 1.711.797h.032V.479h1.276zm-4.198 5.463c0 .797.478 1.658 1.466 1.658.935 0 1.499-.84 1.499-1.637s-.563-1.658-1.499-1.658c-.988 0-1.466.84-1.466 1.637z" fill="#fff"/></svg>