<svg width="124" height="91" viewBox="0 0 124 91" fill="none" xmlns="http://www.w3.org/2000/svg"><path d="M11.004 77.712l-.175 2.075a2.424 2.424 0 00-.719-.111c-.957 0-1.165.766-1.165 1.5v.798h1.772v1.963H8.945v5.986H6.327v-5.986H4.875v-1.963h1.452v-.766c0-1.947.767-3.655 3.416-3.655.447 0 .91.048 1.261.16zm8.783 8.205c0 2.601-2.011 4.261-4.421 4.261-2.395 0-4.406-1.66-4.406-4.261 0-2.602 2.011-4.198 4.406-4.198 2.41 0 4.42 1.596 4.42 4.198zm-2.522 0c0-1.022-.67-2.028-1.9-2.028-1.228 0-1.867 1.006-1.867 2.028 0 1.021.655 2.059 1.884 2.059 1.229 0 1.883-1.038 1.883-2.06zm9.095-4.103l-.111 2.299a2.556 2.556 0 00-.67-.08c-1.405 0-1.868 1.15-1.868 1.804v4.086h-2.618v-7.949h2.522v1.15h.032c.399-.799 1.181-1.373 2.155-1.373.207 0 .43.016.558.063zm12.92 4.31c0 2.57-2.01 4.102-4.452 4.102-2.459 0-4.454-1.564-4.454-4.038 0-1.34.511-2.378 1.261-3.496l2.73-4.07h3.24l-2.777 3.863-.048.08c.207-.08.542-.128.798-.128 1.979 0 3.703 1.484 3.703 3.687zm-2.68.064c0-1.022-.703-1.772-1.757-1.772-1.053 0-1.787.734-1.787 1.788 0 .974.702 1.788 1.772 1.788 1.053 0 1.771-.735 1.771-1.804zm20.485 3.735h-2.617V85.58c0-.91-.208-1.676-1.134-1.676-.893 0-1.324.83-1.324 1.724v4.294h-2.618V85.39c0-.91-.351-1.485-1.133-1.485-.83 0-1.31.75-1.31 1.708v4.31h-2.633v-7.949h2.538v1.101h.032c.367-.67 1.181-1.324 2.378-1.324 1.15 0 1.948.495 2.394 1.356.527-.83 1.357-1.356 2.538-1.356 2.155 0 2.89 1.755 2.89 3.256v4.916zm10.053-4.006c0 2.601-2.01 4.261-4.421 4.261-2.394 0-4.405-1.66-4.405-4.261 0-2.602 2.01-4.198 4.405-4.198 2.41 0 4.421 1.596 4.421 4.198zm-2.522 0c0-1.022-.67-2.028-1.899-2.028s-1.867 1.006-1.867 2.028c0 1.021.654 2.059 1.883 2.059s1.883-1.038 1.883-2.06zm11.681 4.006h-2.633V85.58c0-.877-.24-1.676-1.181-1.676-.926 0-1.405.799-1.405 1.708v4.31h-2.633v-7.949h2.537v1.101h.032c.367-.702 1.277-1.324 2.379-1.324 2.138 0 2.904 1.66 2.904 3.256v4.916zm6.34-5.986H80.77v3.033c0 .734.24 1.117.99 1.117.255 0 .574-.048.766-.127l.032 1.915c-.352.128-.958.24-1.517.24-2.123 0-2.825-1.134-2.825-2.826v-3.352H76.94v-1.963H78.2v-2.09h2.57v2.09h1.867v1.963zm8.748 5.986h-2.633v-4.31c0-.894-.224-1.676-1.165-1.676-.91 0-1.421.75-1.421 1.692v4.294h-2.618V77.856h2.618v5.124h.032c.351-.639 1.181-1.23 2.282-1.23 2.155 0 2.905 1.66 2.905 3.257v4.916zm7.745-7.087l-1.437 1.484c-.415-.399-1.022-.718-1.66-.718-.495 0-.99.176-.99.639 0 .447.431.574 1.453.798 1.213.271 2.538.878 2.538 2.426 0 2.01-1.772 2.713-3.4 2.713-1.293 0-2.634-.43-3.464-1.229l1.469-1.548c.463.51 1.181.894 1.947.894.431 0 .942-.176.942-.686 0-.495-.495-.655-1.58-.91-1.102-.256-2.315-.814-2.315-2.315 0-1.9 1.788-2.665 3.304-2.665 1.181 0 2.41.383 3.193 1.117zM112.966 44.392c0 2.129-1.646 3.487-3.618 3.487-1.959 0-3.604-1.358-3.604-3.487s1.645-3.434 3.604-3.434c1.972 0 3.618 1.305 3.618 3.434zm-2.064 0c0-.836-.548-1.659-1.554-1.659-1.005 0-1.528.823-1.528 1.659 0 .836.536 1.685 1.541 1.685 1.006 0 1.541-.85 1.541-1.685zm7.598-6.712l-.143 1.697a1.987 1.987 0 00-.588-.091c-.783 0-.953.627-.953 1.227v.653h1.449v1.607h-1.449v4.897h-2.142v-4.897h-1.188v-1.607h1.188v-.626c0-1.594.627-2.991 2.795-2.991.365 0 .744.04 1.031.13zm4.754 0l-.144 1.697a1.985 1.985 0 00-.587-.091c-.784 0-.954.627-.954 1.227v.653h1.45v1.607h-1.45v4.897h-2.142v-4.897h-1.188v-1.607h1.188v-.626c0-1.594.627-2.991 2.795-2.991.366 0 .745.04 1.032.13zM121.291 29.177a3.566 3.566 0 01-3.584 3.565 3.567 3.567 0 01-3.584-3.565 3.567 3.567 0 013.584-3.565 3.566 3.566 0 013.584 3.565zm-2.112 0c0-.811-.68-1.471-1.472-1.471-.811 0-1.471.66-1.471 1.47 0 .812.66 1.453 1.471 1.453.792 0 1.472-.641 1.472-1.452zm-6.942-6.678c0 1.962-1.604 3.565-3.584 3.565-1.981 0-3.584-1.603-3.584-3.565 0-2 1.603-3.565 3.584-3.565 1.98 0 3.584 1.566 3.584 3.565zm-2.113 0c0-.81-.66-1.471-1.471-1.471s-1.472.66-1.472 1.471.661 1.453 1.472 1.453c.811 0 1.471-.642 1.471-1.453zm7.847-3.093l-7.866 13.751-1.679-.83 7.791-13.77 1.754.849zM21.407 53.35h-.83c-9.205 0-18.26-6.414-18.26-17.807 0-13.43 10.941-20.372 23.391-20.372 12.45 0 23.39 6.489 23.39 20.221 0 6.715-3.093 12.676-6.639 17.58L30.236 70.102H8.43l12.6-16.298.377-.453zm4.301-12.676c3.245 0 5.509-2.34 5.509-5.358 0-3.093-2.264-5.508-5.509-5.508-3.395 0-5.659 2.415-5.659 5.508 0 3.019 2.264 5.358 5.66 5.358zM76.277 71.61c-19.618 0-23.994-16.6-23.994-28.522 0-11.921 4.376-27.918 23.994-27.918 19.693 0 23.994 15.997 23.994 27.918 0 11.922-4.3 28.522-23.994 28.522zm0-40.972c-4.452 0-5.433 6.791-5.433 12.45 0 5.886.981 12.903 5.433 12.903 4.527 0 5.433-7.017 5.433-12.903 0-5.659-.906-12.45-5.433-12.45zM14.408 7.874v1.11H9.76c-2.46 0-4.103-1.447-4.103-3.95 0-2.34 1.763-3.95 4.125-3.95 2.361 0 4.091 1.61 4.091 3.95 0 1.382-.685 2.329-1.37 2.819v.021h1.904zm-4.625-5.56c-1.491 0-2.623 1.153-2.623 2.72 0 1.643 1.056 2.753 2.6 2.753 1.524 0 2.624-1.11 2.624-2.753 0-1.567-1.045-2.72-2.601-2.72zm10.05 1.447v5.223h-1.24v-.838h-.022c-.229.523-.849.99-1.621.99-1.36 0-1.927-1.044-1.927-2.11V3.76h1.306v2.894c0 .62.142 1.393.98 1.393.827 0 1.219-.718 1.219-1.414V3.76h1.306zm1.35 5.223V3.761h1.306v5.223h-1.306zm-.185-6.997c0-.414.348-.784.827-.784.48 0 .85.338.85.784s-.37.783-.85.783c-.479 0-.827-.37-.827-.783zm7.298 2.438l-.892.783c-.207-.294-.653-.511-1.078-.511-.957 0-1.436.86-1.436 1.676s.49 1.675 1.48 1.675c.402 0 .849-.163 1.099-.467l.816.827c-.435.468-1.154.729-1.926.729-1.546 0-2.83-1.023-2.83-2.764 0-1.698 1.263-2.765 2.797-2.765.762 0 1.556.305 1.97.817zm.634 4.56V.756h1.306v5.202h.033l1.98-2.198h1.676l-2.263 2.361 2.405 2.862h-1.73l-2.068-2.677h-.033v2.677H28.93zm5.713 0V1.278h3.004c1.164 0 2.361.534 2.361 1.938 0 .87-.544 1.447-1.338 1.686v.022c.968.13 1.665.784 1.665 1.818 0 1.675-1.458 2.241-2.917 2.241h-2.775zm1.371-6.574v2.003h1.22c.914 0 1.403-.381 1.403-1.045 0-.686-.49-.958-1.523-.958h-1.1zm0 3.178v2.242h1.23c.708 0 1.72-.142 1.72-1.154 0-.805-.555-1.088-1.665-1.088h-1.285zm5.066.762c0-1.644 1.262-2.743 2.84-2.743 1.578 0 2.84 1.1 2.84 2.743 0 1.643-1.262 2.786-2.84 2.786-1.578 0-2.84-1.143-2.84-2.786zm1.328 0c0 .816.478 1.697 1.512 1.697s1.513-.881 1.513-1.697c0-.816-.479-1.676-1.513-1.676-1.034 0-1.512.86-1.512 1.676zm5.075 0c0-1.644 1.262-2.743 2.84-2.743 1.578 0 2.84 1.1 2.84 2.743 0 1.643-1.262 2.786-2.84 2.786-1.578 0-2.84-1.143-2.84-2.786zm1.328 0c0 .816.478 1.697 1.512 1.697s1.513-.881 1.513-1.697c0-.816-.479-1.676-1.513-1.676-1.034 0-1.512.86-1.512 1.676zm5.401 2.633V.757h1.306v5.202h.033l1.98-2.198h1.676l-2.263 2.361 2.405 2.862h-1.73L55.55 6.307h-.033v2.677h-1.306zm9.295-4.581l-.849.75a1.48 1.48 0 00-1.142-.565c-.414 0-.838.152-.838.566 0 .402.402.511 1.132.685.772.185 1.686.534 1.686 1.556 0 1.274-1.034 1.742-2.176 1.742-.806 0-1.644-.305-2.144-.86l.86-.805c.283.37.772.653 1.338.653.381 0 .838-.153.838-.62 0-.436-.403-.567-1.197-.752-.773-.185-1.545-.5-1.545-1.48 0-1.164 1.044-1.665 2.078-1.665.751 0 1.535.261 1.96.795zm3.062.707c0-2.47 1.752-4.026 4.124-4.026 2.406 0 4.158 1.556 4.158 4.026 0 2.405-1.752 4.07-4.157 4.07-2.373 0-4.125-1.665-4.125-4.07zm1.49 0c0 1.643 1.078 2.84 2.645 2.84 1.578 0 2.656-1.197 2.656-2.84 0-1.589-1.056-2.818-2.656-2.818-1.588 0-2.644 1.23-2.644 2.818zm7.81 3.874V3.761h1.241v.838h.022c.229-.523.849-.99 1.622-.99 1.36 0 1.926 1.044 1.926 2.11v3.265h-1.306V6.09c0-.62-.142-1.393-.98-1.393-.827 0-1.218.718-1.218 1.414v2.873H75.87zm6.117 0V.757h1.306v8.227h-1.306zm2.673 0V3.761h1.306v5.223h-1.306zm-.185-6.997c0-.414.348-.784.827-.784s.849.338.849.784-.37.783-.85.783c-.478 0-.826-.37-.826-.783zm2.835 6.997V3.761h1.241v.838h.022c.228-.523.849-.99 1.621-.99 1.36 0 1.927 1.044 1.927 2.11v3.265h-1.306V6.09c0-.62-.142-1.393-.98-1.393-.827 0-1.219.718-1.219 1.414v2.873H87.31zm7.096-3.134h2.677c0-.675-.38-1.262-1.23-1.262-.772 0-1.392.533-1.447 1.262zm3.983.588c0 .12 0 .228-.01.348h-3.973c.055.74.73 1.284 1.491 1.284.653 0 1.088-.261 1.382-.675l.87.697c-.51.696-1.25 1.045-2.24 1.045-1.612 0-2.809-1.034-2.809-2.732 0-1.687 1.187-2.797 2.765-2.797 1.458 0 2.524.947 2.524 2.83z" fill="#14324F"/></svg>