<svg width="109" height="127" viewBox="0 0 109 127" fill="none" xmlns="http://www.w3.org/2000/svg"><rect x=".505" y="1.129" width="107.441" height="125.441" rx="7.916" fill="#000" fill-opacity=".45" stroke="#fff" stroke-width=".559"/><g clip-path="url(#clip0_2163_98846)"><path d="M24.184 27.307c4.42 0 8.001-3.561 8.001-7.955 0-4.393-3.582-7.954-8-7.954-4.42 0-8.001 3.561-8.001 7.954 0 4.394 3.582 7.955 8 7.955z" fill="#2CA01C"/><path d="M21.517 16.259a3.102 3.102 0 00-3.112 3.093 3.101 3.101 0 003.112 3.094h.444v-1.15h-.444a1.951 1.951 0 01-1.956-1.944c0-1.073.877-1.944 1.956-1.944h1.068v6.01c0 .635.518 1.15 1.156 1.15v-8.31h-2.224zM26.853 22.445a3.102 3.102 0 003.111-3.093 3.101 3.101 0 00-3.11-3.094h-.445v1.15h.444c1.08 0 1.956.87 1.956 1.944a1.951 1.951 0 01-1.956 1.944h-1.068v-6.01c0-.635-.518-1.15-1.156-1.15v8.31h2.224zM39.783 29.238h-1.237v-3.116h-.021c-.32.49-.95.799-1.64.799-1.506 0-2.434-1.19-2.434-2.626 0-1.456.99-2.584 2.402-2.584.907 0 1.465.44 1.712.83h.03v-.687h1.187v7.384h.001zm-2.649-3.343c.907 0 1.455-.81 1.455-1.578 0-.77-.546-1.6-1.455-1.6-.958 0-1.422.81-1.422 1.578-.002.77.462 1.6 1.422 1.6zM45.34 26.777h-1.175v-.79h-.022c-.217.491-.803.933-1.536.933-1.289 0-1.826-.985-1.826-1.989v-3.076h1.238v2.728c0 .585.133 1.312.928 1.312.784 0 1.155-.677 1.155-1.333v-2.707h1.238v4.922zM46.581 21.747h1.237v4.922h-1.237v-4.922zM52.45 23.217c-.197-.277-.62-.482-1.022-.482-.906 0-1.361.81-1.361 1.578 0 .769.464 1.579 1.402 1.579.383 0 .804-.154 1.042-.44l.774.78c-.413.44-1.094.687-1.826.687-1.465 0-2.682-.964-2.682-2.604 0-1.6 1.197-2.604 2.651-2.604.722 0 1.475.286 1.867.769l-.846.737zM53.903 19.023h1.238v4.9h.03l1.877-2.071h1.588l-2.144 2.225 2.28 2.696h-1.64l-1.96-2.522h-.03v2.522h-1.237v-7.75h-.002zM60.575 19.024v3.456h.03c.258-.318.753-.769 1.661-.769 1.413 0 2.402 1.128 2.402 2.585 0 1.435-.928 2.625-2.434 2.625-.692 0-1.362-.318-1.702-.882h-.02v.739h-1.176v-7.754h1.24zm1.413 3.691c-.906 0-1.454.831-1.454 1.6 0 .77.546 1.579 1.455 1.579.958 0 1.422-.83 1.422-1.6 0-.769-.464-1.579-1.422-1.579zM67.896 21.71c1.495 0 2.692 1.037 2.692 2.585 0 1.549-1.197 2.625-2.692 2.625s-2.692-1.076-2.692-2.625c0-1.548 1.197-2.584 2.692-2.584zm0 4.183c.98 0 1.433-.83 1.433-1.6 0-.768-.453-1.578-1.433-1.578s-1.433.81-1.433 1.579c0 .769.453 1.6 1.433 1.6zM73.816 21.71c1.495 0 2.691 1.037 2.691 2.585 0 1.549-1.196 2.625-2.691 2.625-1.496 0-2.692-1.076-2.692-2.625 0-1.548 1.197-2.584 2.692-2.584zm0 4.183c.98 0 1.433-.83 1.433-1.6 0-.768-.453-1.578-1.433-1.578s-1.433.81-1.433 1.579c-.002.769.453 1.6 1.433 1.6zM77.26 19.024h1.237v4.9h.03l1.878-2.071h1.588l-2.144 2.225 2.279 2.696h-1.64l-1.959-2.522h-.03v2.522h-1.237v-7.75h-.002zM85.505 23.168a1.409 1.409 0 00-1.083-.534c-.391 0-.795.143-.795.534 0 .38.383.482 1.072.645.733.175 1.599.502 1.599 1.465 0 1.2-.98 1.64-2.063 1.64-.762 0-1.557-.286-2.032-.809l.814-.758c.269.348.733.615 1.268.615.361 0 .795-.143.795-.585 0-.41-.382-.534-1.134-.707-.733-.175-1.465-.472-1.465-1.395 0-1.098.99-1.568 1.97-1.568.71 0 1.454.246 1.856.748l-.802.709zM48.01 15.137c0 1.248 1.004 2.16 2.28 2.16 1.277 0 2.283-.91 2.283-2.16v-2.866h-1.237v2.72c0 .673-.454 1.124-1.05 1.124-.597 0-1.048-.451-1.048-1.125v-2.719h-1.236l.007 2.866zM55.878 13.422h1.476v3.776h1.235v-3.776h1.474v-1.15h-4.185v1.15zM55.078 12.271h-1.235v4.927h1.235v-4.927zM43.017 13.422h1.475v3.776h1.236v-3.776h1.474v-1.15h-4.185v1.15zM36.533 12.271h-1.235v4.927h1.235v-4.927zM42.366 14.332c0-1.248-1.007-2.16-2.283-2.16-1.277 0-2.283.91-2.283 2.16v2.866h1.236v-2.72c0-.673.453-1.123 1.048-1.123.596 0 1.05.45 1.05 1.124v2.719h1.235l-.003-2.866z" fill="#fff"/></g><path stroke="#fff" stroke-width=".559" d="M4.442 37.314h99.49"/><defs><clipPath id="clip0_2163_98846"><path fill="#fff" transform="translate(16.184 11.398)" d="M0 0h70.127v17.84H0z"/></clipPath></defs></svg>