<svg width="48" height="12" viewBox="0 0 48 12" fill="none" xmlns="http://www.w3.org/2000/svg"><path d="M.989 8.608V.353h5.468v1.282h-4v2.1h3.79V4.97h-3.79v2.332h4.21v1.306H.99zm5.729 0l2.274-2.973-2.017-2.624h1.679L9.866 4.75l1.248-1.738h1.61l-2.006 2.624 2.285 2.973h-1.702l-1.458-2.04-1.47 2.04H6.719zm6.648-5.597h1.34v.782h.036c.28-.444.91-.945 1.935-.945 1.598 0 2.717 1.283 2.717 2.939 0 1.632-1.05 2.985-2.752 2.985-.78 0-1.492-.35-1.854-.91h-.023v3.545h-1.4V3.01zm4.606 2.776c0-.875-.525-1.796-1.61-1.796-1.026 0-1.644.944-1.644 1.819 0 .874.618 1.796 1.645 1.796 1.084 0 1.609-.945 1.609-1.82zm3.38-.537h2.868c0-.723-.409-1.352-1.318-1.352-.828 0-1.493.57-1.55 1.352zm4.267.63c0 .128 0 .245-.012.373h-4.256c.058.793.781 1.376 1.598 1.376.7 0 1.166-.28 1.48-.723l.933.746c-.548.747-1.34 1.12-2.402 1.12-1.726 0-3.008-1.108-3.008-2.927 0-1.808 1.27-2.997 2.962-2.997 1.562 0 2.705 1.015 2.705 3.032zm.889 2.728V3.011h1.329v.898h.023c.245-.56.91-1.06 1.738-1.06 1.457 0 2.064 1.119 2.064 2.261v3.498h-1.4V5.507c0-.665-.151-1.493-1.05-1.493-.885 0-1.305.77-1.305 1.516v3.078h-1.4zM36.804 3.7l-.91.805a1.585 1.585 0 00-1.224-.606c-.443 0-.898.163-.898.606 0 .431.432.548 1.213.735.828.198 1.807.57 1.807 1.667 0 1.364-1.107 1.866-2.332 1.866-.863 0-1.76-.327-2.297-.922l.922-.862c.303.396.827.7 1.434.7.408 0 .898-.164.898-.665 0-.467-.432-.607-1.283-.805-.828-.198-1.656-.536-1.656-1.586 0-1.248 1.12-1.784 2.227-1.784.805 0 1.644.28 2.1.851zm1.811 1.551h2.869c0-.723-.408-1.352-1.318-1.352-.828 0-1.492.57-1.55 1.352zm4.268.63c0 .128 0 .245-.011.373h-4.257c.059.793.782 1.376 1.598 1.376.7 0 1.166-.28 1.48-.723l.934.746c-.548.747-1.341 1.12-2.402 1.12-1.726 0-3.009-1.108-3.009-2.927 0-1.808 1.271-2.997 2.962-2.997 1.563 0 2.705 1.015 2.705 3.032zm4.865-2.18l-.91.804a1.585 1.585 0 00-1.224-.606c-.443 0-.897.163-.897.606 0 .431.43.548 1.212.735.828.198 1.808.57 1.808 1.667 0 1.364-1.108 1.866-2.333 1.866-.862 0-1.76-.327-2.297-.922l.922-.862c.303.396.827.7 1.434.7.408 0 .898-.164.898-.665 0-.467-.432-.607-1.283-.805-.828-.198-1.656-.536-1.656-1.586 0-1.248 1.12-1.784 2.227-1.784.805 0 1.645.28 2.1.851z" fill="#fff"/></svg>