<svg width="95" height="25" viewBox="0 0 95 25" fill="none" xmlns="http://www.w3.org/2000/svg"><path d="M10.838 22.296c5.986 0 10.839-4.792 10.839-10.702S16.824.893 10.839.893C4.853.893 0 5.683 0 11.594c0 5.91 4.853 10.702 10.838 10.702z" fill="#2CA01C"/><path d="M7.226 7.433c-2.33 0-4.215 1.864-4.215 4.161 0 2.3 1.886 4.162 4.215 4.162h.602V14.21h-.602c-1.462 0-2.65-1.172-2.65-2.616 0-1.443 1.188-2.616 2.65-2.616h1.447v8.086c0 .854.701 1.546 1.566 1.546V7.433H7.226zM14.454 15.755c2.329 0 4.215-1.864 4.215-4.161 0-2.3-1.886-4.162-4.216-4.162h-.602v1.546h.602c1.463 0 2.65 1.172 2.65 2.616 0 1.443-1.188 2.616-2.65 2.616h-1.447V6.123c0-.854-.7-1.546-1.566-1.546v11.177h3.014z" fill="#fff"/><path d="M31.968 24.893h-1.676V20.7h-.029c-.433.661-1.286 1.075-2.22 1.075-2.04 0-3.298-1.6-3.298-3.532 0-1.96 1.342-3.476 3.254-3.476 1.228 0 1.985.592 2.32 1.117h.04v-.925h1.607v9.934h.002zm-3.588-4.497c1.228 0 1.97-1.09 1.97-2.124 0-1.035-.74-2.152-1.97-2.152-1.299 0-1.927 1.089-1.927 2.123-.003 1.035.626 2.153 1.927 2.153zM39.498 21.582h-1.592v-1.063h-.03c-.293.66-1.088 1.255-2.08 1.255-1.746 0-2.474-1.324-2.474-2.675V14.96H35v3.67c0 .787.18 1.764 1.257 1.764 1.062 0 1.565-.91 1.565-1.793V14.96h1.677v6.62zM41.179 14.816h1.676v6.621H41.18v-6.62zM49.127 16.796c-.265-.374-.838-.65-1.382-.65-1.229 0-1.845 1.09-1.845 2.124 0 1.035.629 2.124 1.9 2.124.518 0 1.089-.207 1.412-.592l1.047 1.048c-.559.592-1.481.925-2.473.925-1.985 0-3.633-1.296-3.633-3.502 0-2.153 1.622-3.503 3.592-3.503.978 0 1.997.385 2.528 1.034l-1.146.992zM51.098 11.153h1.676v6.592h.04l2.544-2.787h2.151l-2.905 2.994 3.088 3.627h-2.22l-2.655-3.394h-.04v3.394H51.1V11.153h-.002zM60.135 11.153v4.65h.04c.35-.429 1.02-1.035 2.25-1.035 1.915 0 3.254 1.517 3.254 3.477 0 1.93-1.257 3.531-3.297 3.531-.937 0-1.845-.428-2.305-1.186h-.029v.994h-1.592v-10.43h1.679zm1.914 4.966c-1.228 0-1.97 1.118-1.97 2.152s.74 2.124 1.97 2.124c1.299 0 1.927-1.118 1.927-2.152 0-1.035-.628-2.124-1.927-2.124zM70.053 14.77c2.025 0 3.647 1.393 3.647 3.476 0 2.084-1.622 3.532-3.647 3.532-2.026 0-3.647-1.448-3.647-3.532 0-2.083 1.621-3.476 3.647-3.476zm0 5.626c1.327 0 1.941-1.117 1.941-2.152 0-1.035-.614-2.124-1.941-2.124-1.328 0-1.942 1.09-1.942 2.124 0 1.035.614 2.152 1.942 2.152zM78.073 14.77c2.026 0 3.647 1.393 3.647 3.476 0 2.084-1.621 3.532-3.647 3.532-2.025 0-3.646-1.448-3.646-3.532 0-2.083 1.62-3.476 3.646-3.476zm0 5.626c1.327 0 1.942-1.117 1.942-2.152 0-1.035-.615-2.124-1.942-2.124s-1.941 1.09-1.941 2.124c-.003 1.035.614 2.152 1.941 2.152zM82.738 11.153h1.677v6.592h.04L87 14.959h2.151l-2.905 2.994 3.088 3.627h-2.22l-2.655-3.394h-.04v3.394H82.74V11.153h-.003zM93.906 16.726a1.913 1.913 0 00-1.466-.718c-.53 0-1.077.193-1.077.718 0 .511.518.65 1.452.868.993.236 2.166.676 2.166 1.972 0 1.614-1.328 2.207-2.794 2.207-1.034 0-2.11-.386-2.753-1.09l1.103-1.02c.363.469.992.828 1.717.828.489 0 1.077-.193 1.077-.787 0-.552-.518-.719-1.537-.952-.992-.235-1.984-.635-1.984-1.876 0-1.477 1.34-2.11 2.668-2.11.963 0 1.97.331 2.515 1.007l-1.087.953zM43.113 5.922c0 1.68 1.361 2.906 3.09 2.906 1.73 0 3.093-1.224 3.093-2.906V2.067H47.62v3.658c0 .906-.614 1.512-1.421 1.512-.81 0-1.421-.606-1.421-1.512V2.067h-1.675l.01 3.855zM53.773 3.616h2v5.08h1.674v-5.08h1.996V2.067h-5.67v1.549zM52.69 2.067h-1.674v6.628h1.674V2.067zM36.35 3.616h1.999v5.08h1.674v-5.08h1.996V2.067h-5.67v1.549zM27.566 2.067h-1.674v6.628h1.674V2.067zM35.468 4.84c0-1.68-1.363-2.906-3.092-2.906-1.73 0-3.093 1.224-3.093 2.906v3.855h1.674V5.037c0-.906.614-1.512 1.421-1.512S33.8 4.13 33.8 5.037v3.658h1.674l-.005-3.855z" fill="#000"/></svg>