<svg width="110" height="30" viewBox="0 0 110 30" fill="none" xmlns="http://www.w3.org/2000/svg"><path d="M9.924 4.46V.92h1.055c.54 0 1.14.196 1.14.906 0 .37-.25.675-.625.76v.01c.46.05.8.37.8.885 0 .59-.505.98-1.32.98h-1.05zm.36-3.23v1.24h.725c.345 0 .75-.15.75-.62 0-.45-.385-.62-.85-.62h-.625zm0 1.536V4.15h.67c.52 0 .975-.195.975-.69 0-.465-.335-.695-.91-.695h-.735zm4.163.26V2.95c0-.405-.22-.605-.625-.605-.275 0-.53.11-.695.275l-.19-.225c.19-.19.52-.335.92-.335.505 0 .91.28.91.85v1.025c0 .18.015.395.04.525h-.305a2.333 2.333 0 01-.035-.38h-.01c-.215.31-.475.44-.85.44-.355 0-.81-.19-.81-.71 0-.72.795-.785 1.65-.785zm0 .265h-.1c-.555 0-1.2.06-1.2.505 0 .335.285.445.55.445.48 0 .75-.36.75-.775V3.29zm2.591-.81l-.26.195a.634.634 0 00-.575-.33c-.245 0-.495.105-.495.365 0 .22.175.32.56.4.55.115.81.32.81.685 0 .535-.45.725-.88.725-.355 0-.71-.14-.925-.455l.27-.2c.12.205.375.365.65.365.29 0 .55-.105.55-.41 0-.245-.245-.345-.69-.45-.275-.065-.67-.185-.67-.63 0-.475.41-.68.835-.68.325 0 .67.155.82.42zm.797.63h1.595c-.02-.44-.29-.765-.775-.765a.829.829 0 00-.82.765zm1.94.11c0 .045 0 .1-.005.16h-1.94c.01.47.375.85.855.85.35 0 .62-.195.75-.405l.255.2a1.22 1.22 0 01-1.005.495c-.695 0-1.21-.525-1.21-1.23s.515-1.23 1.18-1.23c.735 0 1.12.52 1.12 1.16zm2.546.845c-.2.295-.55.455-.885.455-.73 0-1.21-.54-1.21-1.23s.48-1.23 1.21-1.23c.335 0 .685.16.885.465h.01V.68h.34v3.78h-.34v-.395h-.01zm-1.735-.775c0 .52.32.94.885.94.525 0 .9-.405.9-.94 0-.535-.375-.945-.9-.945-.565 0-.885.425-.885.945zm6.349 0c0 .705-.52 1.23-1.25 1.23-.725 0-1.245-.525-1.245-1.23s.52-1.23 1.245-1.23c.73 0 1.25.525 1.25 1.23zm-.36 0c0-.525-.345-.945-.89-.945-.54 0-.885.42-.885.945 0 .525.345.94.885.94.545 0 .89-.415.89-.94zm.961-1.17h.325c.01.125.02.3.02.4h.01c.13-.27.47-.46.8-.46.595 0 .89.385.89.965V4.46h-.34V3.166c0-.49-.145-.82-.635-.82-.36 0-.71.29-.71.915v1.2h-.34V2.636c0-.125-.005-.355-.02-.515zm5.976-.86l-.285.23c-.15-.215-.395-.355-.73-.355-.35 0-.755.21-.755.665 0 .45.375.565.77.695.5.165 1.05.325 1.05 1.035s-.595 1.02-1.155 1.02c-.43 0-.86-.175-1.115-.525l.31-.23a.94.94 0 00.81.445c.365 0 .785-.23.785-.685 0-.495-.415-.62-.865-.76-.47-.145-.95-.35-.95-.99 0-.685.61-.975 1.13-.975.475 0 .83.2 1 .43zm.882 1.85h1.595c-.02-.44-.29-.765-.775-.765a.829.829 0 00-.82.765zm1.94.11c0 .045 0 .1-.005.16h-1.94c.01.47.375.85.855.85.35 0 .62-.195.75-.405l.255.2a1.22 1.22 0 01-1.005.495c-.695 0-1.21-.525-1.21-1.23s.515-1.23 1.18-1.23c.735 0 1.12.52 1.12 1.16zm.961.845V5.66h-.34V2.12h.34v.405h.015c.195-.305.545-.465.88-.465.73 0 1.21.54 1.21 1.23s-.48 1.23-1.21 1.23c-.335 0-.685-.165-.88-.455h-.015zm1.745-.775c0-.52-.32-.945-.885-.945-.525 0-.9.41-.9.945 0 .535.375.94.9.94.565 0 .885-.42.885-.94zm2.034-1.17v.285h-.66V3.77c0 .35.145.43.35.43.095 0 .205-.03.295-.075l.015.295c-.12.045-.245.07-.4.07-.25 0-.6-.11-.6-.625v-1.46h-.485V2.12h.485v-.66h.34v.66h.66zm.612.99h1.595c-.02-.44-.29-.765-.775-.765a.829.829 0 00-.82.765zm1.94.11c0 .045 0 .1-.005.16h-1.94c.01.47.375.85.855.85.35 0 .62-.195.75-.405l.255.2a1.22 1.22 0 01-1.005.495c-.695 0-1.21-.525-1.21-1.23s.515-1.23 1.18-1.23c.735 0 1.12.52 1.12 1.16zm.956-.7a.864.864 0 01.77-.46c.255 0 .565.095.72.495.16-.32.445-.495.82-.495.595 0 .89.385.89.965V4.46h-.34V3.166c0-.49-.165-.82-.605-.82-.49 0-.665.435-.665.87V4.46h-.34V3.096c0-.455-.11-.75-.565-.75-.325 0-.68.29-.68.915v1.2h-.34V2.636c0-.125-.005-.355-.02-.515h.325c.01.125.02.3.02.4h.01zm4.33 1.545h-.01v.395h-.34V.68h.34v1.845h.01c.2-.305.55-.465.884-.465.73 0 1.21.54 1.21 1.23s-.48 1.23-1.21 1.23a1.08 1.08 0 01-.885-.455zm1.734-.775c0-.52-.32-.945-.885-.945-.525 0-.9.41-.9.945 0 .535.375.94.9.94.565 0 .885-.42.885-.94zm1.169-.18h1.595c-.02-.44-.29-.765-.775-.765a.829.829 0 00-.82.765zm1.94.11c0 .045 0 .1-.005.16h-1.94c.01.47.375.85.855.85.35 0 .62-.195.75-.405l.255.2a1.22 1.22 0 01-1.005.495c-.695 0-1.21-.525-1.21-1.23s.515-1.23 1.18-1.23c.735 0 1.12.52 1.12 1.16zm.621-.585c0-.125-.005-.355-.02-.515h.325c.01.125.02.3.02.4h.01c.13-.27.42-.46.75-.46.085 0 .155.005.225.025l-.045.32a.909.909 0 00-.24-.03c-.36 0-.685.26-.685.885v1.2h-.34V2.636zm4.902 1.505v.32h-2.265v-.375l1.45-1.465c.215-.22.425-.485.425-.81 0-.41-.32-.675-.7-.675-.38 0-.655.265-.73.63l-.355-.07c.1-.5.53-.865 1.085-.865.57 0 1.065.33 1.065.975 0 .455-.265.76-.575 1.07L57.403 4.14h1.875zm1.72-3.31c.88 0 1.16.945 1.16 1.865s-.28 1.855-1.16 1.855c-.89 0-1.16-.935-1.16-1.855 0-.92.27-1.865 1.16-1.865zm0 .305c-.63 0-.794.855-.794 1.56 0 .705.164 1.545.794 1.545.62 0 .796-.84.796-1.545s-.175-1.56-.795-1.56zm3.86 3.005v.32h-2.264v-.375l1.45-1.465c.215-.22.425-.485.425-.81 0-.41-.32-.675-.7-.675-.38 0-.655.265-.73.63l-.355-.07c.1-.5.53-.865 1.085-.865.57 0 1.065.33 1.065.975 0 .455-.265.76-.575 1.07L62.984 4.14h1.875zm2.791 0v.32h-2.265v-.375l1.45-1.465c.215-.22.425-.485.425-.81 0-.41-.32-.675-.7-.675-.38 0-.655.265-.73.63l-.355-.07c.1-.5.53-.865 1.085-.865.57 0 1.065.33 1.065.975 0 .455-.265.76-.575 1.07L65.774 4.14h1.875zm3.366-1.66l-.26.195a.634.634 0 00-.575-.33c-.245 0-.495.105-.495.365 0 .22.175.32.56.4.55.115.81.32.81.685 0 .535-.45.725-.88.725-.355 0-.71-.14-.925-.455l.27-.2c.12.205.375.365.65.365.29 0 .55-.105.55-.41 0-.245-.245-.345-.69-.45-.275-.065-.67-.185-.67-.63 0-.475.41-.68.835-.68.325 0 .67.155.82.42zm2.631 1.98h-.325c-.01-.125-.02-.3-.02-.4h-.01c-.13.27-.47.46-.8.46-.595 0-.89-.385-.89-.965V2.12h.34v1.295c0 .49.145.82.635.82.36 0 .71-.29.71-.915v-1.2h.34v1.825c0 .125.005.355.02.515zm.77-1.825c0-.125-.004-.355-.02-.515h.326c.01.125.02.3.02.4h.01c.13-.27.42-.46.75-.46.085 0 .155.005.225.025l-.045.32a.909.909 0 00-.24-.03c-.36 0-.685.26-.685.885v1.2h-.34V2.636zm3.602-.515l-.95 2.34h-.375l-.955-2.34h.38l.76 1.98h.01l.765-1.98h.365zm.612.99h1.595c-.02-.44-.29-.765-.775-.765a.829.829 0 00-.82.765zm1.94.11c0 .045 0 .1-.005.16h-1.94c.01.47.375.85.855.85.35 0 .62-.195.75-.405l.255.2a1.22 1.22 0 01-1.005.495c-.695 0-1.21-.525-1.21-1.23s.515-1.23 1.18-1.23c.735 0 1.12.52 1.12 1.16zm.631-1.1l.795 1.975h.01l.725-1.975h.37l-1.165 2.945c-.14.36-.33.595-.735.595-.1 0-.205-.01-.305-.03l.035-.31c.075.025.16.04.25.04.23 0 .35-.15.45-.415l.19-.49-1-2.335h.38zm5.787 1.17c0 .705-.52 1.23-1.25 1.23-.725 0-1.245-.525-1.245-1.23s.52-1.23 1.245-1.23c.73 0 1.25.525 1.25 1.23zm-.36 0c0-.525-.346-.945-.89-.945-.54 0-.885.42-.885.945 0 .525.345.94.885.94.544 0 .89-.415.89-.94zm1.971-1.17v.285h-.55V4.46h-.34V2.406h-.49V2.12h.49v-.64c0-.53.26-.86.795-.86.085 0 .195.01.28.035l-.06.3A.83.83 0 0088.49.92c-.365 0-.44.26-.44.6v.6h.55zm3.142.36l-.26.195a.634.634 0 00-.575-.33c-.245 0-.495.105-.495.365 0 .22.175.32.56.4.55.115.81.32.81.685 0 .535-.45.725-.88.725-.355 0-.71-.14-.925-.455l.27-.2c.12.205.375.365.65.365.29 0 .55-.105.55-.41 0-.245-.245-.345-.69-.45-.275-.065-.67-.185-.67-.63 0-.475.41-.68.835-.68.325 0 .67.155.82.42zm.942.04a.864.864 0 01.77-.46c.254 0 .564.095.72.495.16-.32.445-.495.82-.495.595 0 .89.385.89.965V4.46h-.34V3.166c0-.49-.166-.82-.606-.82-.49 0-.665.435-.665.87V4.46h-.34V3.096c0-.455-.11-.75-.564-.75-.325 0-.68.29-.68.915v1.2h-.34V2.636c0-.125-.005-.355-.02-.515h.325c.01.125.02.3.02.4h.01zm5.444.505V2.95c0-.405-.22-.605-.625-.605-.275 0-.53.11-.695.275l-.19-.225c.19-.19.52-.335.92-.335.505 0 .91.28.91.85v1.025c0 .18.015.395.04.525h-.305a2.333 2.333 0 01-.035-.38h-.01c-.215.31-.475.44-.85.44-.355 0-.81-.19-.81-.71 0-.72.795-.785 1.65-.785zm0 .265h-.1c-.555 0-1.2.06-1.2.505 0 .335.285.445.55.445.48 0 .75-.36.75-.775V3.29zM99.563.68v3.78h-.34V.68h.34zm1.149 0v3.78h-.34V.68h.34zm-94.81 9.385h-.01v.395h-.34V6.68h.34v1.845h.01c.2-.305.55-.465.885-.465.73 0 1.21.54 1.21 1.23s-.48 1.23-1.21 1.23a1.08 1.08 0 01-.885-.455zm1.735-.775c0-.52-.32-.945-.885-.945-.525 0-.9.41-.9.945 0 .535.375.94.9.94.565 0 .885-.42.885-.94zm3.004 1.17h-.325c-.01-.125-.02-.3-.02-.4h-.01c-.13.27-.47.46-.8.46-.595 0-.89-.385-.89-.965V8.12h.34v1.295c0 .49.145.82.635.82.36 0 .71-.29.71-.915v-1.2h.34v1.825c0 .125.005.355.02.515zm2.275-1.98l-.26.195a.634.634 0 00-.575-.33c-.245 0-.495.105-.495.365 0 .22.175.32.56.4.55.115.81.32.81.685 0 .535-.45.725-.88.725-.355 0-.71-.14-.925-.455l.27-.2c.12.205.375.365.65.365.29 0 .55-.105.55-.41 0-.245-.245-.345-.69-.45-.275-.065-.67-.185-.67-.63 0-.475.41-.68.835-.68.325 0 .67.155.82.42zm.952-.36v2.34h-.34V8.12h.34zm.07-.9c0 .14-.12.24-.24.24s-.24-.1-.24-.24c0-.14.12-.24.24-.24s.24.1.24.24zm.705.9h.325c.01.125.02.3.02.4h.01c.13-.27.47-.46.8-.46.595 0 .89.385.89.965v1.435h-.34V9.166c0-.49-.145-.82-.635-.82-.36 0-.71.29-.71.915v1.2h-.34V8.636c0-.125-.005-.355-.02-.515zm3.005.99h1.595c-.02-.44-.29-.765-.775-.765a.829.829 0 00-.82.765zm1.94.11c0 .045 0 .1-.005.16h-1.94c.01.47.375.85.855.85.35 0 .62-.195.75-.405l.255.2a1.22 1.22 0 01-1.005.495c-.695 0-1.21-.525-1.21-1.23s.515-1.23 1.18-1.23c.735 0 1.12.52 1.12 1.16zm2.127-.74l-.26.195a.634.634 0 00-.575-.33c-.245 0-.495.105-.495.365 0 .22.174.32.56.4.55.115.81.32.81.685 0 .535-.45.725-.88.725-.355 0-.71-.14-.925-.455l.27-.2c.12.205.375.365.65.365.29 0 .55-.105.55-.41 0-.245-.246-.345-.69-.45-.276-.065-.67-.185-.67-.63 0-.475.41-.68.835-.68.325 0 .67.155.82.42zm2.111 0l-.26.195a.634.634 0 00-.575-.33c-.245 0-.495.105-.495.365 0 .22.175.32.56.4.55.115.81.32.81.685 0 .535-.45.725-.88.725-.355 0-.71-.14-.925-.455l.27-.2c.12.205.375.365.65.365.29 0 .55-.105.55-.41 0-.245-.245-.345-.69-.45-.275-.065-.67-.185-.67-.63 0-.475.41-.68.835-.68.325 0 .67.155.82.42zm.797.63h1.595c-.02-.44-.29-.765-.775-.765a.829.829 0 00-.82.765zm1.94.11c0 .045 0 .1-.005.16h-1.94c.01.47.375.85.855.85.35 0 .62-.195.75-.405l.255.2a1.22 1.22 0 01-1.005.495c-.695 0-1.21-.525-1.21-1.23s.515-1.23 1.18-1.23c.735 0 1.12.52 1.12 1.16zm2.126-.74l-.26.195a.634.634 0 00-.575-.33c-.245 0-.495.105-.495.365 0 .22.175.32.56.4.55.115.81.32.81.685 0 .535-.45.725-.88.725-.355 0-.71-.14-.925-.455l.27-.2c.12.205.375.365.65.365.29 0 .55-.105.55-.41 0-.245-.245-.345-.69-.45-.275-.065-.67-.185-.67-.63 0-.475.41-.68.835-.68.325 0 .67.155.82.42zm3.772 1.98h-.325c-.01-.125-.02-.3-.02-.4h-.01c-.13.27-.47.46-.8.46-.595 0-.89-.385-.89-.965V8.12h.34v1.295c0 .49.145.82.635.82.36 0 .71-.29.71-.915v-1.2h.34v1.825c0 .125.005.355.02.515zm2.275-1.98l-.26.195a.634.634 0 00-.575-.33c-.245 0-.495.105-.495.365 0 .22.175.32.56.4.55.115.81.32.81.685 0 .535-.45.725-.88.725-.355 0-.71-.14-.925-.455l.27-.2c.12.205.375.365.65.365.29 0 .55-.105.55-.41 0-.245-.245-.345-.69-.45-.275-.065-.67-.185-.67-.63 0-.475.41-.68.835-.68.325 0 .67.155.82.42zm.952-.36v2.34h-.34V8.12h.34zm.07-.9c0 .14-.12.24-.24.24s-.24-.1-.24-.24c0-.14.12-.24.24-.24s.24.1.24.24zm.705.9h.325c.01.125.02.3.02.4h.01c.13-.27.47-.46.8-.46.595 0 .89.385.89.965v1.435h-.34V9.166c0-.49-.145-.82-.635-.82-.36 0-.71.29-.71.915v1.2h-.34V8.636c0-.125-.005-.355-.02-.515zm2.695 3.07l.245-.26c.185.24.54.43.895.43.67 0 .915-.415.915-.92V10h-.01c-.18.29-.545.46-.885.46-.73 0-1.21-.505-1.21-1.19 0-.665.48-1.21 1.21-1.21.34 0 .7.165.885.465h.01V8.12h.34v2.32c0 .51-.235 1.22-1.27 1.22-.43 0-.85-.18-1.125-.47zm.31-1.93c0 .49.32.91.885.91.525 0 .9-.37.9-.91a.9.9 0 00-.9-.915c-.565 0-.885.425-.885.915zm4.21-.615c0 .795.53 1.5 1.41 1.5.87 0 1.414-.705 1.414-1.5s-.545-1.5-1.415-1.5c-.88 0-1.41.705-1.41 1.5zm3.434 1.495v.32h-2.025c-1.025 0-1.79-.765-1.79-1.815 0-1.05.765-1.815 1.79-1.815 1.02 0 1.785.765 1.785 1.815 0 .62-.28 1.17-.83 1.485v.01h1.07zm2.484.32h-.325c-.01-.125-.02-.3-.02-.4h-.01c-.13.27-.47.46-.8.46-.595 0-.89-.385-.89-.965V8.12h.34v1.295c0 .49.145.82.635.82.36 0 .71-.29.71-.915v-1.2h.34v1.825c0 .125.005.355.02.515zm1.115-2.34v2.34h-.34V8.12h.34zm.07-.9c0 .14-.12.24-.24.24s-.24-.1-.24-.24c0-.14.12-.24.24-.24s.24.1.24.24zm2.675 1.245l-.265.19c-.11-.18-.345-.31-.6-.31-.545 0-.895.41-.895.945 0 .53.345.94.89.94.295 0 .5-.125.635-.305l.255.19c-.2.245-.485.405-.89.405-.755 0-1.25-.525-1.25-1.23s.495-1.23 1.25-1.23c.315 0 .67.135.87.405zm.79-1.785v2.495h.015l1.08-1.055h.49l-1.18 1.07 1.3 1.27h-.5l-1.19-1.23h-.015v1.23h-.34V6.68h.34zm2.11 3.78V6.92h1.054c.54 0 1.14.195 1.14.905 0 .37-.25.675-.625.76v.01c.46.05.8.37.8.885 0 .59-.505.98-1.32.98h-1.05zm.36-3.23v1.24h.724c.345 0 .75-.15.75-.62 0-.45-.385-.62-.85-.62h-.625zm0 1.535v1.385h.67c.52 0 .974-.195.974-.69 0-.465-.335-.695-.91-.695h-.735zm5.013.525c0 .705-.52 1.23-1.25 1.23-.725 0-1.245-.525-1.245-1.23s.52-1.23 1.245-1.23c.73 0 1.25.525 1.25 1.23zm-.36 0c0-.525-.345-.945-.89-.945-.54 0-.885.42-.885.945 0 .525.345.94.885.94.545 0 .89-.415.89-.94zm3.307 0c0 .705-.52 1.23-1.25 1.23-.725 0-1.245-.525-1.245-1.23s.52-1.23 1.245-1.23c.73 0 1.25.525 1.25 1.23zm-.36 0c0-.525-.345-.945-.89-.945-.54 0-.885.42-.885.945 0 .525.345.94.885.94.545 0 .89-.415.89-.94zm1.331-2.61v2.495h.015l1.08-1.055h.49l-1.18 1.07 1.3 1.27h-.5l-1.19-1.23h-.015v1.23h-.34V6.68h.34zm3.565 1.8l-.26.195a.634.634 0 00-.575-.33c-.245 0-.495.105-.495.365 0 .22.175.32.56.4.55.115.81.32.81.685 0 .535-.45.725-.88.725-.355 0-.71-.14-.925-.455l.27-.2c.12.205.375.365.65.365.29 0 .55-.105.55-.41 0-.245-.245-.345-.69-.45-.275-.065-.67-.185-.67-.63 0-.475.41-.68.835-.68.325 0 .67.155.82.42zm5.266.21c0 1.075-.79 1.86-1.844 1.86-1.055 0-1.846-.785-1.846-1.86 0-1.075.79-1.86 1.846-1.86 1.055 0 1.844.785 1.844 1.86zm-.38 0c0-.825-.555-1.545-1.465-1.545s-1.465.72-1.465 1.545.555 1.54 1.465 1.54S74.1 9.516 74.1 8.69zm.978-.57h.326c.01.125.02.3.02.4h.01c.13-.27.47-.46.8-.46.594 0 .89.385.89.965v1.435h-.34V9.166c0-.49-.145-.82-.635-.82-.36 0-.71.29-.71.915v1.2h-.34V8.636c0-.125-.005-.355-.02-.515zm3.166-1.44v3.78h-.34V6.68h.34zm1.144 1.44v2.34h-.34V8.12h.34zm.07-.9c0 .14-.12.24-.24.24s-.24-.1-.24-.24c0-.14.12-.24.24-.24s.24.1.24.24zm.706.9h.325c.01.125.02.3.02.4h.01c.13-.27.47-.46.8-.46.595 0 .89.385.89.965v1.435h-.34V9.166c0-.49-.145-.82-.636-.82-.36 0-.71.29-.71.915v1.2h-.34V8.636c0-.125-.004-.355-.02-.515zm3.005.99h1.595c-.02-.44-.29-.765-.775-.765a.829.829 0 00-.82.765zm1.94.11c0 .045 0 .1-.005.16h-1.94c.01.47.375.85.855.85.35 0 .62-.195.75-.405l.255.2a1.22 1.22 0 01-1.005.495c-.695 0-1.21-.525-1.21-1.23s.515-1.23 1.18-1.23c.735 0 1.12.52 1.12 1.16zm2.106-1.1v2.34h-.34V8.12h.34zm.07-.9c0 .14-.12.24-.24.24s-.24-.1-.24-.24c0-.14.12-.24.24-.24s.24.1.24.24zm.705.9h.325c.01.125.02.3.02.4h.01c.13-.27.47-.46.8-.46.595 0 .89.385.89.965v1.435h-.34V9.166c0-.49-.145-.82-.635-.82-.36 0-.71.29-.71.915v1.2h-.34V8.636c0-.125-.005-.355-.02-.515zm3.835 3.07l.245-.26c.185.24.54.43.895.43.67 0 .915-.415.915-.92V10h-.01c-.18.29-.545.46-.885.46-.73 0-1.21-.505-1.21-1.19 0-.665.48-1.21 1.21-1.21.34 0 .7.165.885.465h.01V8.12h.34v2.32c0 .51-.235 1.22-1.27 1.22-.43 0-.85-.18-1.125-.47zm.31-1.93c0 .49.32.91.885.91.525 0 .9-.37.9-.91a.9.9 0 00-.9-.915c-.565 0-.885.425-.885.915zm3.21-2.58v3.78h-.34V6.68h.34zm3.124 2.61c0 .705-.52 1.23-1.25 1.23-.725 0-1.245-.525-1.245-1.23s.52-1.23 1.245-1.23c.73 0 1.25.525 1.25 1.23zm-.36 0c0-.525-.345-.945-.89-.945-.54 0-.885.42-.885.945 0 .525.345.94.885.94.545 0 .89-.415.89-.94zm1.342.775h-.01v.395h-.34V6.68h.34v1.845h.01c.2-.305.55-.465.885-.465.73 0 1.21.54 1.21 1.23s-.48 1.23-1.21 1.23a1.08 1.08 0 01-.885-.455zm1.735-.775c0-.52-.32-.945-.885-.945-.525 0-.9.41-.9.945 0 .535.375.94.9.94.565 0 .885-.42.885-.94zm2.454-.265V8.95c0-.405-.22-.605-.625-.605-.275 0-.53.11-.695.275l-.19-.225c.19-.19.52-.335.92-.335.505 0 .91.28.91.85v1.025c0 .18.015.395.04.525h-.305a2.333 2.333 0 01-.035-.38h-.01c-.215.31-.475.44-.85.44-.355 0-.81-.19-.81-.71 0-.72.795-.785 1.65-.785zm0 .265h-.1c-.555 0-1.2.06-1.2.505 0 .335.285.445.55.445.48 0 .75-.36.75-.775V9.29zm1.435-2.61v3.78h-.34V6.68h.34zM6.64 14.52a.864.864 0 01.77-.46c.255 0 .565.095.72.495.16-.32.445-.495.82-.495.595 0 .89.385.89.965v1.435H9.5v-1.295c0-.49-.165-.82-.605-.82-.49 0-.665.435-.665.87v1.245h-.34v-1.365c0-.455-.11-.75-.565-.75-.325 0-.68.29-.68.915v1.2h-.34v-1.825c0-.125-.005-.355-.02-.515h.325c.01.125.02.3.02.4h.01zm5.444.505v-.075c0-.405-.22-.605-.625-.605-.275 0-.53.11-.695.275l-.19-.225c.19-.19.52-.335.92-.335.505 0 .91.28.91.85v1.025c0 .18.015.395.04.525h-.305a2.333 2.333 0 01-.035-.38h-.01c-.215.31-.475.44-.85.44-.355 0-.81-.19-.81-.71 0-.72.795-.785 1.65-.785zm0 .265h-.1c-.555 0-1.2.06-1.2.505 0 .335.285.445.55.445.48 0 .75-.36.75-.775v-.175zm1.086-.655c0-.125-.005-.355-.02-.515h.325c.01.125.02.3.02.4h.01c.13-.27.42-.46.75-.46.085 0 .155.005.225.025l-.045.32a.909.909 0 00-.24-.03c-.36 0-.685.26-.685.885v1.2h-.34v-1.825zm2.042-1.955v2.495h.015l1.08-1.055h.49l-1.18 1.07 1.3 1.27h-.5l-1.19-1.23h-.015v1.23h-.34v-3.78h.34zm2.19 2.43h1.596c-.02-.44-.29-.765-.775-.765a.829.829 0 00-.82.765zm1.94.11c0 .045 0 .1-.004.16h-1.94c.01.47.375.85.855.85.35 0 .62-.195.75-.405l.255.2a1.22 1.22 0 01-1.005.495c-.695 0-1.21-.525-1.21-1.23s.515-1.23 1.18-1.23c.735 0 1.12.52 1.12 1.16zm1.677-1.1v.285h-.66v1.365c0 .35.145.43.35.43.095 0 .205-.03.295-.075l.015.295c-.12.045-.245.07-.4.07-.25 0-.6-.11-.6-.625v-1.46h-.485v-.285h.485v-.66h.34v.66h.66zm1.927.36l-.26.195a.634.634 0 00-.575-.33c-.245 0-.495.105-.495.365 0 .22.175.32.56.4.55.115.81.32.81.685 0 .535-.45.725-.88.725-.355 0-.71-.14-.925-.455l.27-.2c.12.205.375.365.65.365.29 0 .55-.105.55-.41 0-.245-.245-.345-.69-.45-.275-.065-.67-.185-.67-.63 0-.475.41-.68.835-.68.325 0 .67.155.82.42zm1.427-.36h.365l.565 1.9h.01l.63-1.9h.33l.64 1.9h.01l.56-1.9h.36l-.74 2.34h-.37l-.625-1.895h-.01l-.615 1.895h-.37l-.74-2.34zm4.29.385h.01c.125-.27.455-.445.785-.445.595 0 .89.385.89.965v1.435h-.34v-1.295c0-.49-.145-.82-.635-.82-.36 0-.71.29-.71.915v1.2h-.34v-3.78h.34v1.825zm4.78.785c0 .705-.52 1.23-1.25 1.23-.725 0-1.245-.525-1.245-1.23s.52-1.23 1.245-1.23c.73 0 1.25.525 1.25 1.23zm-.36 0c0-.525-.345-.945-.89-.945-.54 0-.885.42-.885.945 0 .525.345.94.885.94.545 0 .89-.415.89-.94zm3.627-.81l-.26.195a.634.634 0 00-.575-.33c-.245 0-.495.105-.495.365 0 .22.175.32.56.4.55.115.81.32.81.685 0 .535-.45.725-.88.725-.355 0-.71-.14-.925-.455l.27-.2c.12.205.375.365.65.365.29 0 .55-.105.55-.41 0-.245-.245-.345-.69-.45-.275-.065-.67-.185-.67-.63 0-.475.41-.68.835-.68.325 0 .67.155.82.42zm1.662-.36v.285h-.66v1.365c0 .35.145.43.35.43.095 0 .205-.03.295-.075l.015.295c-.12.045-.245.07-.4.07-.25 0-.6-.11-.6-.625v-1.46h-.485v-.285h.485v-.66h.34v.66h.66zm1.897.905v-.075c0-.405-.22-.605-.625-.605-.275 0-.53.11-.695.275l-.19-.225c.19-.19.52-.335.92-.335.505 0 .91.28.91.85v1.025c0 .18.015.395.04.525h-.305a2.333 2.333 0 01-.035-.38h-.01c-.215.31-.475.44-.85.44-.355 0-.81-.19-.81-.71 0-.72.795-.785 1.65-.785zm0 .265h-.1c-.555 0-1.2.06-1.2.505 0 .335.285.445.55.445.48 0 .75-.36.75-.775v-.175zm2.092-1.17v.285h-.66v1.365c0 .35.145.43.35.43.095 0 .205-.03.295-.075l.015.295c-.12.045-.245.07-.4.07-.25 0-.6-.11-.6-.625v-1.46h-.485v-.285h.485v-.66h.34v.66h.66zm.611.99h1.596c-.02-.44-.29-.765-.776-.765a.829.829 0 00-.82.765zm1.94.11c0 .045 0 .1-.005.16h-1.94c.01.47.376.85.855.85.35 0 .62-.195.75-.405l.255.2a1.22 1.22 0 01-1.005.495c-.695 0-1.21-.525-1.21-1.23s.515-1.23 1.18-1.23c.736 0 1.12.52 1.12 1.16zm2.547.845c-.2.295-.55.455-.885.455-.73 0-1.21-.54-1.21-1.23s.48-1.23 1.21-1.23c.335 0 .685.16.885.465h.01V12.68h.34v3.78h-.34v-.395h-.01zm-1.735-.775c0 .52.32.94.885.94.525 0 .9-.405.9-.94 0-.535-.375-.945-.9-.945-.565 0-.885.425-.885.945zm5.079-1.17v.285h-.66v1.365c0 .35.145.43.35.43.094 0 .204-.03.294-.075l.016.295c-.12.045-.245.07-.4.07-.25 0-.6-.11-.6-.625v-1.46h-.485v-.285h.485v-.66h.34v.66h.66zm.771.385h.01c.125-.27.455-.445.785-.445.595 0 .89.385.89.965v1.435h-.34v-1.295c0-.49-.145-.82-.635-.82-.36 0-.71.29-.71.915v1.2h-.34v-3.78h.34v1.825zm2.645.605h1.595c-.02-.44-.29-.765-.775-.765a.829.829 0 00-.82.765zm1.94.11c0 .045 0 .1-.005.16h-1.94c.01.47.375.85.855.85.35 0 .62-.195.75-.405l.255.2a1.22 1.22 0 01-1.005.495c-.695 0-1.21-.525-1.21-1.23s.515-1.23 1.18-1.23c.735 0 1.12.52 1.12 1.16zm.632-1.1l.795 1.975h.01l.725-1.975h.37l-1.165 2.945c-.14.36-.33.595-.735.595-.1 0-.205-.01-.305-.03l.035-.31c.075.025.16.04.25.04.23 0 .35-.15.45-.415l.19-.49-1-2.335h.38zm5.411.345l-.265.19c-.11-.18-.345-.31-.6-.31-.545 0-.895.41-.895.945 0 .53.345.94.89.94.295 0 .5-.125.635-.305l.255.19c-.2.245-.485.405-.89.405-.755 0-1.25-.525-1.25-1.23s.495-1.23 1.25-1.23c.315 0 .67.135.87.405zm2.765.825c0 .705-.52 1.23-1.25 1.23-.725 0-1.245-.525-1.245-1.23s.52-1.23 1.245-1.23c.73 0 1.25.525 1.25 1.23zm-.36 0c0-.525-.345-.945-.89-.945-.54 0-.885.42-.885.945 0 .525.345.94.885.94.545 0 .89-.415.89-.94zm.962-1.17h.325c.01.125.02.3.02.4h.01c.13-.27.47-.46.8-.46.595 0 .89.385.89.965v1.435h-.34v-1.295c0-.49-.145-.82-.635-.82-.36 0-.71.29-.71.915v1.2h-.34v-1.825c0-.125-.005-.355-.02-.515zm2.795 0h.325c.01.125.02.3.02.4h.01c.13-.27.47-.46.8-.46.595 0 .89.385.89.965v1.435h-.34v-1.295c0-.49-.145-.82-.635-.82-.36 0-.71.29-.71.915v1.2h-.34v-1.825c0-.125-.005-.355-.02-.515zm3.005.99h1.595c-.02-.44-.29-.765-.775-.765a.829.829 0 00-.82.765zm1.94.11c0 .045 0 .1-.005.16h-1.94c.01.47.375.85.855.85.35 0 .62-.195.75-.405l.255.2a1.22 1.22 0 01-1.005.495c-.695 0-1.21-.525-1.21-1.23s.515-1.23 1.18-1.23c.735 0 1.12.52 1.12 1.16zm2.572-.755l-.265.19c-.11-.18-.345-.31-.6-.31-.545 0-.895.41-.895.945 0 .53.345.94.89.94.295 0 .5-.125.635-.305l.255.19c-.2.245-.485.405-.89.405-.755 0-1.25-.525-1.25-1.23s.495-1.23 1.25-1.23c.315 0 .67.135.87.405zm1.495-.345v.285h-.66v1.365c0 .35.145.43.35.43.095 0 .205-.03.295-.075l.015.295c-.12.045-.245.07-.4.07-.25 0-.6-.11-.6-.625v-1.46h-.485v-.285h.485v-.66h.34v.66h.66zm.612.99h1.595c-.02-.44-.29-.765-.775-.765a.829.829 0 00-.82.765zm1.94.11c0 .045 0 .1-.005.16h-1.94c.01.47.375.85.855.85.35 0 .62-.195.75-.405l.255.2a1.22 1.22 0 01-1.005.495c-.695 0-1.21-.525-1.21-1.23s.515-1.23 1.18-1.23c.735 0 1.12.52 1.12 1.16zm2.546.845c-.2.295-.55.455-.885.455-.73 0-1.21-.54-1.21-1.23s.48-1.23 1.21-1.23c.335 0 .685.16.885.465h.01V12.68h.34v3.78h-.34v-.395h-.01zm-1.735-.775c0 .52.32.94.885.94.525 0 .9-.405.9-.94 0-.535-.375-.945-.9-.945-.565 0-.885.425-.885.945zm5.498-.265v-.075c0-.405-.22-.605-.624-.605-.275 0-.53.11-.695.275l-.19-.225c.19-.19.52-.335.92-.335.505 0 .91.28.91.85v1.025c0 .18.014.395.04.525h-.305a2.333 2.333 0 01-.036-.38h-.01c-.215.31-.475.44-.85.44-.355 0-.81-.19-.81-.71 0-.72.795-.785 1.65-.785zm0 .265h-.1c-.555 0-1.2.06-1.2.505 0 .335.285.445.55.445.48 0 .75-.36.75-.775v-.175zm2.586.775h-.01v.395h-.34v-3.78h.34v1.845h.01c.2-.305.55-.465.885-.465.73 0 1.21.54 1.21 1.23s-.48 1.23-1.21 1.23a1.08 1.08 0 01-.885-.455zm1.735-.775c0-.52-.32-.945-.885-.945-.525 0-.9.41-.9.945 0 .535.375.94.9.94.565 0 .885-.42.885-.94zm2.454-.265v-.075c0-.405-.22-.605-.625-.605-.275 0-.53.11-.695.275l-.19-.225c.19-.19.52-.335.92-.335.505 0 .91.28.91.85v1.025c0 .18.015.395.04.525h-.305a2.333 2.333 0 01-.035-.38h-.01c-.215.31-.475.44-.85.44-.355 0-.81-.19-.81-.71 0-.72.795-.785 1.65-.785zm0 .265h-.1c-.555 0-1.2.06-1.2.505 0 .335.285.445.55.445.48 0 .75-.36.75-.775v-.175zm1.066-1.17h.325c.01.125.02.3.02.4h.01c.13-.27.47-.46.8-.46.595 0 .89.385.89.965v1.435h-.34v-1.295c0-.49-.145-.82-.635-.82-.36 0-.71.29-.71.915v1.2h-.34v-1.825c0-.125-.005-.355-.02-.515zm3.165-1.44v2.495h.015l1.08-1.055h.49l-1.18 1.07 1.3 1.27h-.5l-1.19-1.23h-.015v1.23h-.34v-3.78h.34zm5.554 2.61c0 .705-.52 1.23-1.25 1.23-.725 0-1.245-.525-1.245-1.23s.52-1.23 1.245-1.23c.73 0 1.25.525 1.25 1.23zm-.36 0c0-.525-.345-.945-.89-.945-.54 0-.885.42-.885.945 0 .525.345.94.885.94.545 0 .89-.415.89-.94zm.982-.655c0-.125-.005-.355-.02-.515h.325c.01.125.02.3.02.4h.01c.13-.27.42-.46.75-.46.085 0 .155.005.225.025l-.045.32a.909.909 0 00-.24-.03c-.36 0-.685.26-.685.885v1.2h-.34v-1.825zm-100.51 5.83l-.265.19c-.11-.18-.345-.31-.6-.31-.545 0-.895.41-.895.945 0 .53.345.94.89.94.295 0 .5-.125.635-.305l.255.19c-.2.245-.485.405-.89.405-.755 0-1.25-.525-1.25-1.23s.495-1.23 1.25-1.23c.315 0 .67.135.87.405zm.44.17c0-.125-.005-.355-.02-.515h.325c.01.125.02.3.02.4h.01c.13-.27.42-.46.75-.46.085 0 .155.005.225.025l-.045.32a.909.909 0 00-.24-.03c-.36 0-.685.26-.685.885v1.2h-.34v-1.825zm1.794.475h1.595c-.02-.44-.29-.765-.775-.765a.829.829 0 00-.82.765zm1.94.11c0 .045 0 .1-.005.16h-1.94c.01.47.375.85.855.85.35 0 .62-.195.75-.405l.255.2a1.22 1.22 0 01-1.005.495c-.695 0-1.21-.525-1.21-1.23s.515-1.23 1.18-1.23c.735 0 1.12.52 1.12 1.16zm2.546.845c-.2.295-.55.455-.885.455-.73 0-1.21-.54-1.21-1.23s.48-1.23 1.21-1.23c.335 0 .685.16.885.465h.01V18.68h.34v3.78h-.34v-.395h-.01zm-1.735-.775c0 .52.32.94.885.94.525 0 .9-.405.9-.94 0-.535-.375-.945-.9-.945-.565 0-.885.425-.885.945zm3.229-1.17v2.34h-.34v-2.34h.34zm.07-.9c0 .14-.12.24-.24.24s-.24-.1-.24-.24c0-.14.12-.24.24-.24s.24.1.24.24zm1.78.9v.285h-.66v1.365c0 .35.145.43.35.43.095 0 .205-.03.295-.075l.015.295c-.12.045-.245.07-.4.07-.25 0-.6-.11-.6-.625v-1.46h-.485v-.285h.485v-.66h.34v.66h.66zm3.512.345l-.265.19c-.11-.18-.345-.31-.6-.31-.545 0-.895.41-.895.945 0 .53.345.94.89.94.295 0 .5-.125.635-.305l.255.19c-.2.245-.485.405-.89.405-.755 0-1.25-.525-1.25-1.23s.495-1.23 1.25-1.23c.315 0 .67.135.87.405zm1.915.56v-.075c0-.405-.22-.605-.625-.605-.275 0-.53.11-.695.275l-.19-.225c.19-.19.52-.335.92-.335.505 0 .91.28.91.85v1.025c0 .18.015.395.04.525h-.305a2.333 2.333 0 01-.035-.38h-.01c-.215.31-.475.44-.85.44-.355 0-.81-.19-.81-.71 0-.72.795-.785 1.65-.785zm0 .265h-.1c-.555 0-1.2.06-1.2.505 0 .335.285.445.55.445.48 0 .75-.36.75-.775v-.175zm1.086-.655c0-.125-.005-.355-.02-.515h.325c.01.125.02.3.02.4h.01c.13-.27.42-.46.75-.46.085 0 .155.005.225.025l-.045.32a.909.909 0 00-.24-.03c-.36 0-.685.26-.685.885v1.2h-.34v-1.825zm3.528 1.43c-.2.295-.55.455-.885.455-.73 0-1.21-.54-1.21-1.23s.48-1.23 1.21-1.23c.335 0 .685.16.885.465h.01V18.68h.34v3.78h-.34v-.395h-.01zm-1.735-.775c0 .52.32.94.885.94.525 0 .9-.405.9-.94 0-.535-.375-.945-.9-.945-.565 0-.885.425-.885.945zm5.499-.265v-.075c0-.405-.22-.605-.625-.605-.275 0-.53.11-.695.275l-.19-.225c.19-.19.52-.335.92-.335.505 0 .91.28.91.85v1.025c0 .18.015.395.04.525h-.305a2.333 2.333 0 01-.035-.38h-.01c-.215.31-.475.44-.85.44-.355 0-.81-.19-.81-.71 0-.72.795-.785 1.65-.785zm0 .265h-.1c-.555 0-1.2.06-1.2.505 0 .335.285.445.55.445.48 0 .75-.36.75-.775v-.175zm3.036-.825l-.265.19c-.11-.18-.345-.31-.6-.31-.545 0-.895.41-.895.945 0 .53.345.94.89.94.295 0 .5-.125.635-.305l.255.19c-.2.245-.485.405-.89.405-.755 0-1.25-.525-1.25-1.23s.495-1.23 1.25-1.23c.315 0 .67.135.87.405zm2.39 0l-.265.19c-.11-.18-.345-.31-.6-.31-.545 0-.895.41-.895.945 0 .53.345.94.89.94.295 0 .5-.125.635-.305l.255.19c-.2.245-.485.405-.89.405-.755 0-1.25-.525-1.25-1.23s.495-1.23 1.25-1.23c.315 0 .67.135.87.405zm2.765.825c0 .705-.52 1.23-1.25 1.23-.725 0-1.245-.525-1.245-1.23s.52-1.23 1.245-1.23c.73 0 1.25.525 1.25 1.23zm-.36 0c0-.525-.345-.945-.89-.945-.54 0-.885.42-.885.945 0 .525.345.94.885.94.545 0 .89-.415.89-.94zm3.007 1.17h-.325c-.01-.125-.02-.3-.02-.4h-.01c-.13.27-.47.46-.8.46-.595 0-.89-.385-.89-.965V20.12h.34v1.295c0 .49.145.82.635.82.36 0 .71-.29.71-.915v-1.2h.34v1.825c0 .125.005.355.02.515zm.75-2.34h.325c.01.125.02.3.02.4h.01c.13-.27.47-.46.8-.46.595 0 .89.385.89.965v1.435h-.34v-1.295c0-.49-.145-.82-.635-.82-.36 0-.71.29-.71.915v1.2h-.34v-1.825c0-.125-.005-.355-.02-.515zm3.87 0v.285h-.66v1.365c0 .35.145.43.35.43.095 0 .205-.03.295-.075l.015.295c-.12.045-.245.07-.4.07-.25 0-.6-.11-.6-.625v-1.46h-.485v-.285h.485v-.66h.34v.66h.66zm1.907 0v2.34h-.34v-2.34h.34zm.07-.9c0 .14-.12.24-.24.24s-.24-.1-.24-.24c0-.14.12-.24.24-.24s.24.1.24.24zm.705.9h.325c.01.125.02.3.02.4h.01c.13-.27.47-.46.8-.46.595 0 .89.385.89.965v1.435h-.34v-1.295c0-.49-.145-.82-.635-.82-.36 0-.71.29-.71.915v1.2h-.34v-1.825c0-.125-.005-.355-.02-.515zm4.165.525c0 .795.53 1.5 1.41 1.5.87 0 1.415-.705 1.415-1.5s-.545-1.5-1.415-1.5c-.88 0-1.41.705-1.41 1.5zm3.435 1.495v.32h-2.025c-1.025 0-1.79-.765-1.79-1.815 0-1.05.765-1.815 1.79-1.815 1.02 0 1.785.765 1.785 1.815 0 .62-.28 1.17-.83 1.485v.01h1.07zm2.484.32h-.325c-.01-.125-.02-.3-.02-.4h-.01c-.13.27-.47.46-.8.46-.595 0-.89-.385-.89-.965V20.12h.34v1.295c0 .49.145.82.635.82.36 0 .71-.29.71-.915v-1.2h.34v1.825c0 .125.005.355.02.515zm1.115-2.34v2.34h-.34v-2.34h.34zm.07-.9c0 .14-.12.24-.24.24s-.24-.1-.24-.24c0-.14.12-.24.24-.24s.24.1.24.24zm2.675 1.245l-.265.19c-.11-.18-.345-.31-.6-.31-.545 0-.895.41-.895.945 0 .53.345.94.89.94.295 0 .5-.125.635-.305l.255.19c-.2.245-.485.405-.89.405-.755 0-1.25-.525-1.25-1.23s.495-1.23 1.25-1.23c.315 0 .67.135.87.405zm.79-1.785v2.495h.015l1.08-1.055h.49l-1.18 1.07 1.3 1.27h-.5l-1.19-1.23h-.015v1.23h-.34v-3.78h.34zm2.11 3.78v-3.54h1.054c.54 0 1.14.195 1.14.905 0 .37-.25.675-.625.76v.01c.46.05.8.37.8.885 0 .59-.505.98-1.32.98h-1.05zm.36-3.23v1.24h.724c.345 0 .75-.15.75-.62 0-.45-.385-.62-.85-.62h-.625zm0 1.535v1.385h.67c.52 0 .974-.195.974-.69 0-.465-.335-.695-.91-.695h-.735zm5.013.525c0 .705-.52 1.23-1.25 1.23-.725 0-1.245-.525-1.245-1.23s.52-1.23 1.245-1.23c.73 0 1.25.525 1.25 1.23zm-.36 0c0-.525-.345-.945-.89-.945-.54 0-.885.42-.885.945 0 .525.345.94.885.94.545 0 .89-.415.89-.94zm3.307 0c0 .705-.52 1.23-1.25 1.23-.725 0-1.245-.525-1.245-1.23s.52-1.23 1.245-1.23c.73 0 1.25.525 1.25 1.23zm-.36 0c0-.525-.345-.945-.89-.945-.54 0-.885.42-.885.945 0 .525.345.94.885.94.545 0 .89-.415.89-.94zm1.331-2.61v2.495h.015l1.08-1.055h.49l-1.18 1.07 1.3 1.27h-.5l-1.19-1.23h-.015v1.23h-.34v-3.78h.34zm3.565 1.8l-.26.195a.634.634 0 00-.575-.33c-.245 0-.495.105-.495.365 0 .22.175.32.56.4.55.115.81.32.81.685 0 .535-.45.725-.88.725-.355 0-.71-.14-.925-.455l.27-.2c.12.205.375.365.65.365.29 0 .55-.105.55-.41 0-.245-.245-.345-.69-.45-.275-.065-.67-.185-.67-.63 0-.475.41-.68.835-.68.325 0 .67.155.82.42zm1.077 1.74c0 .14-.11.27-.27.27-.16 0-.27-.13-.27-.27s.11-.27.27-.27c.16 0 .27.13.27.27zm4.662-2.915l-.25.25c-.245-.26-.585-.41-1.025-.41-.91 0-1.47.72-1.47 1.545s.56 1.54 1.47 1.54c.4 0 .75-.095.955-.23v-1.075h-.825v-.315h1.185v1.595c-.385.23-.84.345-1.32.345-1.07 0-1.845-.785-1.845-1.86 0-1.075.79-1.86 1.845-1.86.56 0 .98.18 1.28.475zm1.181-.625v3.78h-.34v-3.78h.34zm3.125 2.61c0 .705-.52 1.23-1.25 1.23-.725 0-1.245-.525-1.245-1.23s.52-1.23 1.245-1.23c.73 0 1.25.525 1.25 1.23zm-.36 0c0-.525-.345-.945-.89-.945-.54 0-.885.42-.885.945 0 .525.345.94.885.94.545 0 .89-.415.89-.94zm1.342.775h-.01v.395h-.34v-3.78h.34v1.845h.01c.2-.305.55-.465.885-.465.73 0 1.21.54 1.21 1.23s-.48 1.23-1.21 1.23a1.08 1.08 0 01-.885-.455zm1.735-.775c0-.52-.32-.945-.885-.945-.525 0-.9.41-.9.945 0 .535.375.94.9.94.565 0 .885-.42.885-.94zm2.453-.265v-.075c0-.405-.22-.605-.625-.605-.275 0-.53.11-.695.275l-.19-.225c.19-.19.52-.335.92-.335.505 0 .91.28.91.85v1.025c0 .18.015.395.04.525h-.305a2.333 2.333 0 01-.035-.38h-.01c-.215.31-.475.44-.85.44-.355 0-.81-.19-.81-.71 0-.72.795-.785 1.65-.785zm0 .265h-.1c-.555 0-1.2.06-1.2.505 0 .335.285.445.55.445.48 0 .75-.36.75-.775v-.175zm1.436-2.61v3.78h-.34v-3.78h.34zm2.275 1.84a.864.864 0 01.77-.46c.255 0 .565.095.72.495.16-.32.445-.495.82-.495.595 0 .89.385.89.965v1.435h-.34v-1.295c0-.49-.165-.82-.605-.82-.49 0-.665.435-.665.87v1.245h-.34v-1.365c0-.455-.11-.75-.565-.75-.325 0-.68.29-.68.915v1.2h-.34v-1.825c0-.125-.005-.355-.02-.515h.325c.01.125.02.3.02.4h.01zm5.444.505v-.075c0-.405-.22-.605-.625-.605-.275 0-.53.11-.695.275l-.19-.225c.19-.19.52-.335.92-.335.505 0 .91.28.91.85v1.025c0 .18.015.395.04.525h-.305a2.333 2.333 0 01-.035-.38h-.01c-.215.31-.475.44-.85.44-.355 0-.81-.19-.81-.71 0-.72.795-.785 1.65-.785zm0 .265h-.1c-.555 0-1.2.06-1.2.505 0 .335.285.445.55.445.48 0 .75-.36.75-.775v-.175zm1.086-.655c0-.125-.005-.355-.02-.515h.325c.01.125.02.3.02.4h.01c.13-.27.42-.46.75-.46.085 0 .155.005.225.025l-.045.32a.909.909 0 00-.24-.03c-.36 0-.685.26-.685.885v1.2h-.34v-1.825zm2.042-1.955v2.495h.015l1.08-1.055h.49l-1.18 1.07 1.3 1.27h-.5l-1.19-1.23h-.015v1.23h-.34v-3.78h.34zm2.191 2.43h1.595c-.02-.44-.29-.765-.775-.765a.829.829 0 00-.82.765zm1.94.11c0 .045 0 .1-.005.16h-1.94c.01.47.375.85.855.85.35 0 .62-.195.75-.405l.255.2a1.22 1.22 0 01-1.005.495c-.695 0-1.21-.525-1.21-1.23s.515-1.23 1.18-1.23c.735 0 1.12.52 1.12 1.16zm1.676-1.1v.285h-.66v1.365c0 .35.145.43.35.43.095 0 .205-.03.295-.075l.015.295c-.12.045-.245.07-.4.07-.25 0-.6-.11-.6-.625v-1.46h-.485v-.285h.485v-.66h.34v.66h.66zm1.927.36l-.26.195a.634.634 0 00-.575-.33c-.245 0-.495.105-.495.365 0 .22.175.32.56.4.55.115.81.32.81.685 0 .535-.45.725-.88.725-.355 0-.71-.14-.925-.455l.27-.2c.12.205.375.365.65.365.29 0 .55-.105.55-.41 0-.245-.245-.345-.69-.45-.275-.065-.67-.185-.67-.63 0-.475.41-.68.835-.68.325 0 .67.155.82.42zM8.745 27.11h1.595c-.02-.44-.29-.765-.775-.765a.829.829 0 00-.82.765zm1.94.11c0 .045 0 .1-.005.16H8.74c.01.47.375.85.855.85.35 0 .62-.195.75-.405l.255.2a1.22 1.22 0 01-1.005.495c-.695 0-1.21-.525-1.21-1.23s.515-1.23 1.18-1.23c.735 0 1.12.52 1.12 1.16zm.222 1.24l.92-1.21-.865-1.13h.435l.64.89.64-.89h.41l-.85 1.115.93 1.225h-.44l-.695-.975-.715.975h-.41zm4.602-1.995l-.264.19c-.11-.18-.345-.31-.6-.31-.545 0-.896.41-.896.945 0 .53.345.94.89.94.296 0 .5-.125.636-.305l.255.19c-.2.245-.486.405-.89.405-.756 0-1.25-.525-1.25-1.23s.494-1.23 1.25-1.23c.314 0 .67.135.87.405zm.79-1.785v3.78h-.34v-3.78h.34zm2.825 3.78H18.8c-.01-.125-.02-.3-.02-.4h-.01c-.13.27-.47.46-.8.46-.595 0-.89-.385-.89-.965V26.12h.34v1.295c0 .49.145.82.635.82.36 0 .71-.29.71-.915v-1.2h.34v1.825c0 .125.005.355.02.515zm2.696-.395c-.2.295-.55.455-.885.455-.73 0-1.21-.54-1.21-1.23s.48-1.23 1.21-1.23c.335 0 .685.16.885.465h.01V24.68h.34v3.78h-.34v-.395h-.01zm-1.735-.775c0 .52.32.94.885.94.525 0 .9-.405.9-.94 0-.535-.375-.945-.9-.945-.565 0-.885.425-.885.945zm3.073-.18h1.595c-.02-.44-.29-.765-.775-.765a.829.829 0 00-.82.765zm1.94.11c0 .045 0 .1-.005.16h-1.94c.01.47.375.85.855.85.35 0 .62-.195.75-.405l.255.2a1.22 1.22 0 01-1.005.495c-.695 0-1.21-.525-1.21-1.23s.515-1.23 1.18-1.23c.735 0 1.12.52 1.12 1.16zm2.054.31l-.385.93h-.395l1.53-3.54h.35l1.52 3.54h-.4l-.39-.93h-1.83zm.915-2.21l-.78 1.88h1.56l-.78-1.88zm3.362 3.23c-1.06 0-1.325-.82-1.325-1.41v-2.22h.36v2.18c0 .57.245 1.13.965 1.13s.965-.56.965-1.13v-2.18h.36v2.22c0 .59-.265 1.41-1.325 1.41zm2.458-.565l-.405 1.175h-.285l.335-1.175h.355zm1.732.475v-3.54h1.055c.54 0 1.14.195 1.14.905 0 .37-.25.675-.625.76v.01c.46.05.8.37.8.885 0 .59-.505.98-1.32.98h-1.05zm.36-3.23v1.24h.725c.345 0 .75-.15.75-.62 0-.45-.385-.62-.85-.62h-.625zm0 1.535v1.385h.67c.52 0 .975-.195.975-.69 0-.465-.335-.695-.91-.695h-.735zm3.069.04v1.655h-.36v-3.54h1.04c.7 0 1.21.255 1.21.945 0 .525-.39.855-.905.91l1.035 1.685h-.44l-.98-1.655h-.6zm0-1.575v1.265h.625c.575 0 .905-.21.905-.63 0-.465-.355-.635-.89-.635h-.64zm2.968 2.755l-.405 1.175h-.285l.335-1.175h.355zm4.433-.275l.28.18c-.236.355-.69.66-1.325.66-1.07 0-1.846-.785-1.846-1.86 0-1.075.79-1.86 1.846-1.86.52 0 1.014.215 1.26.56l-.3.22c-.15-.23-.505-.465-.956-.465-.915 0-1.47.72-1.47 1.545s.56 1.545 1.47 1.545c.405 0 .795-.16 1.04-.525zm1.09-.18l-.385.93h-.395l1.53-3.54h.35l1.52 3.54h-.4l-.39-.93h-1.83zm.915-2.21l-.78 1.88h1.56l-.78-1.88zm2.56 2.665l-.405 1.175h-.285l.336-1.175h.355zm2.093-1.2v1.675h-.36v-3.54h2.135v.32h-1.775v1.23h1.65v.315h-1.65zm2.698.02v1.655h-.36v-3.54h1.04c.7 0 1.21.255 1.21.945 0 .525-.39.855-.905.91l1.035 1.685h-.44l-.98-1.655h-.6zm0-1.575v1.265h.625c.575 0 .905-.21.905-.63 0-.465-.355-.635-.89-.635h-.64zm2.968 2.755l-.405 1.175h-.285l.335-1.175h.355zm2.092-3.065v3.54h-.36v-3.54h.36zm1.28 0l2.06 3.015h.01V24.92h.36v3.54h-.45l-2.06-3.045h-.01v3.045h-.36v-3.54h.45zm3.702 3.065l-.405 1.175h-.285l.335-1.175h.355zm2.283-3.065l1.2 2.93h.005l1.185-2.93h.55v3.54h-.36v-3.075h-.01l-1.28 3.075h-.19l-1.28-3.075h-.01v3.075h-.36v-3.54h.55zm3.959 0l.97 1.43.965-1.43h.43l-1.175 1.685 1.3 1.855h-.45l-1.08-1.595-1.075 1.595h-.45l1.3-1.86-1.185-1.68h.45zm3.392 3.065l-.405 1.175h-.285l.335-1.175h.355zm3.037.565c-1.06 0-1.325-.82-1.325-1.41v-2.22h.36v2.18c0 .57.245 1.13.965 1.13s.965-.56.965-1.13v-2.18h.36v2.22c0 .59-.265 1.41-1.325 1.41zm2.495-3.63v1.59h.005l1.685-1.59h.515l-1.785 1.605 1.885 1.935h-.53l-1.77-1.885h-.005v1.885h-.36v-3.54h.36zm3.115 3.065l-.405 1.175h-.285l.335-1.175h.355zm3.187-.96v-.075c0-.405-.22-.605-.625-.605-.275 0-.53.11-.695.275l-.19-.225c.19-.19.52-.335.92-.335.505 0 .91.28.91.85v1.025c0 .18.015.395.04.525h-.305a2.333 2.333 0 01-.035-.38h-.01c-.215.31-.475.44-.85.44-.355 0-.81-.19-.81-.71 0-.72.795-.785 1.65-.785zm0 .265h-.1c-.555 0-1.2.06-1.2.505 0 .335.285.445.55.445.48 0 .75-.36.75-.775v-.175zm1.066-1.17h.325c.01.125.02.3.02.4h.01c.13-.27.47-.46.8-.46.595 0 .89.385.89.965v1.435h-.34v-1.295c0-.49-.145-.82-.635-.82-.36 0-.71.29-.71.915v1.2h-.34v-1.825c0-.125-.005-.355-.02-.515zm4.74 1.945c-.2.295-.55.455-.885.455-.73 0-1.21-.54-1.21-1.23s.48-1.23 1.21-1.23c.335 0 .685.16.885.465h.01V24.68h.34v3.78h-.34v-.395h-.01zm-1.735-.775c0 .52.32.94.885.94.525 0 .9-.405.9-.94 0-.535-.375-.945-.9-.945-.565 0-.885.425-.885.945zm5.349 1.26c-1.06 0-1.325-.82-1.325-1.41v-2.22h.36v2.18c0 .57.245 1.13.965 1.13s.965-.56.965-1.13v-2.18h.36v2.22c0 .59-.265 1.41-1.325 1.41zm4.135-3.29l-.285.23c-.15-.215-.395-.355-.73-.355-.35 0-.755.21-.755.665 0 .45.375.565.77.695.5.165 1.05.325 1.05 1.035s-.595 1.02-1.155 1.02c-.43 0-.86-.175-1.115-.525l.31-.23a.94.94 0 00.81.445c.365 0 .785-.23.785-.685 0-.495-.415-.62-.865-.76-.47-.145-.95-.35-.95-.99 0-.685.61-.975 1.13-.975.475 0 .83.2 1 .43zm1.162 2.96c0 .14-.11.27-.27.27-.16 0-.27-.13-.27-.27s.11-.27.27-.27c.16 0 .27.13.27.27z" fill="#fff"/></svg>