<svg width="17" height="4" viewBox="0 0 17 4" fill="none" xmlns="http://www.w3.org/2000/svg"><path d="M.348.235l1.021 2.733h.01L2.4.235h.342L1.538 3.381h-.337L0 .235h.347zm2.79 1.946h1.417c-.018-.39-.257-.68-.688-.68a.736.736 0 00-.73.68zm1.724.098c0 .04 0 .089-.005.142H3.133a.758.758 0 00.76.755c.311 0 .551-.173.667-.36l.226.178c-.244.311-.55.44-.893.44-.617 0-1.075-.466-1.075-1.093 0-.626.458-1.093 1.049-1.093.653 0 .995.462.995 1.031zm.96-.635h.01c.11-.24.404-.396.697-.396.529 0 .79.342.79.858V3.38h-.301V2.23c0-.436-.13-.73-.565-.73-.32 0-.63.258-.63.814V3.38H5.52V.022h.303v1.622zm2.586-.342V3.38h-.302V1.3h.302zm.063-.8a.216.216 0 01-.214.213.216.216 0 01-.213-.213c0-.124.107-.213.213-.213.107 0 .213.089.213.213zm2.474 1.106l-.235.169a.633.633 0 00-.534-.275c-.484 0-.795.364-.795.84 0 .47.307.834.791.834a.67.67 0 00.564-.27l.227.168c-.178.218-.431.36-.79.36-.672 0-1.112-.466-1.112-1.093 0-.626.44-1.093 1.111-1.093.28 0 .595.12.773.36zm.8-1.586v3.359h-.302V.022h.302zm.977 2.16h1.417c-.018-.392-.257-.68-.688-.68a.736.736 0 00-.729.68zm1.724.097c0 .04 0 .089-.005.142h-1.723a.758.758 0 00.76.755c.31 0 .55-.173.666-.36l.226.178c-.244.311-.55.44-.893.44-.617 0-1.075-.466-1.075-1.093 0-.626.458-1.093 1.049-1.093.653 0 .995.462.995 1.031zm1.987-.657l-.231.173a.564.564 0 00-.511-.293c-.218 0-.44.093-.44.324 0 .195.156.284.498.355.489.102.72.285.72.609 0 .475-.4.644-.782.644-.316 0-.631-.124-.822-.404l.24-.178a.688.688 0 00.577.324c.258 0 .489-.093.489-.364 0-.218-.218-.306-.613-.4-.245-.057-.596-.164-.596-.56 0-.422.365-.604.742-.604.29 0 .596.138.729.374z" fill="#fff"/></svg>