<svg width="108" height="127" viewBox="0 0 108 127" fill="none" xmlns="http://www.w3.org/2000/svg"><rect x=".279" y=".279" width="107.442" height="126.442" rx="7.908" fill="#000" fill-opacity=".45" stroke="#fff" stroke-width=".558"/><g clip-path="url(#clip0_2171_184842)"><path d="M23.962 26.668c4.418 0 8-3.59 8-8.018 0-4.428-3.582-8.018-8-8.018-4.419 0-8.001 3.59-8.001 8.018 0 4.428 3.582 8.018 8 8.018z" fill="#2CA01C"/><path d="M21.295 15.533a3.115 3.115 0 00-3.111 3.118 3.114 3.114 0 003.111 3.118h.444v-1.158h-.444a1.959 1.959 0 01-1.956-1.96c0-1.081.877-1.96 1.956-1.96h1.069v6.058c0 .64.517 1.159 1.155 1.159v-8.375h-2.224zM26.63 21.77a3.115 3.115 0 003.112-3.117 3.114 3.114 0 00-3.111-3.118h-.445v1.158h.445c1.079 0 1.955.878 1.955 1.96 0 1.081-.876 1.96-1.955 1.96h-1.07v-6.058c0-.64-.517-1.159-1.155-1.159v8.375h2.225zM39.56 28.615h-1.237v-3.141h-.021c-.32.495-.95.805-1.64.805-1.505 0-2.434-1.199-2.434-2.646 0-1.468.99-2.605 2.402-2.605.907 0 1.466.444 1.713.838h.03v-.693h1.186v7.442h.002zm-2.649-3.37c.907 0 1.455-.815 1.455-1.59 0-.775-.546-1.613-1.455-1.613-.958 0-1.422.816-1.422 1.591-.002.775.462 1.613 1.422 1.613zM45.117 26.135h-1.175v-.796h-.021c-.217.495-.804.94-1.536.94-1.29 0-1.826-.992-1.826-2.004v-3.1h1.237v2.75c0 .589.133 1.321.928 1.321.784 0 1.156-.682 1.156-1.343v-2.728h1.237v4.96zM46.358 21.066h1.238v4.96h-1.238v-4.96zM52.225 22.548c-.195-.28-.618-.486-1.02-.486-.907 0-1.362.816-1.362 1.591s.464 1.591 1.403 1.591c.382 0 .803-.155 1.042-.444l.773.786c-.413.444-1.094.693-1.826.693-1.465 0-2.681-.97-2.681-2.624 0-1.613 1.197-2.625 2.65-2.625.723 0 1.475.289 1.867.775l-.846.743zM53.68 18.322h1.237v4.94h.03l1.878-2.089h1.587l-2.144 2.243 2.28 2.718h-1.64L54.95 23.59h-.03v2.543h-1.237v-7.812h-.002zM60.352 18.322v3.484h.03c.258-.321.752-.775 1.66-.775 1.414 0 2.402 1.136 2.402 2.605 0 1.446-.928 2.646-2.434 2.646-.691 0-1.362-.321-1.701-.89h-.021v.745h-1.176v-7.815h1.24zm1.413 3.72c-.907 0-1.454.838-1.454 1.613s.545 1.591 1.454 1.591c.958 0 1.422-.837 1.422-1.612 0-.775-.464-1.591-1.422-1.591zM67.673 21.03c1.495 0 2.692 1.044 2.692 2.605s-1.197 2.646-2.692 2.646-2.692-1.085-2.692-2.646c0-1.56 1.197-2.605 2.692-2.605zm0 4.216c.98 0 1.433-.837 1.433-1.612 0-.776-.453-1.592-1.433-1.592s-1.433.816-1.433 1.591c0 .776.454 1.613 1.433 1.613zM73.594 21.03c1.495 0 2.692 1.044 2.692 2.605s-1.197 2.646-2.692 2.646-2.692-1.085-2.692-2.646c0-1.56 1.197-2.605 2.692-2.605zm0 4.216c.98 0 1.433-.837 1.433-1.612 0-.776-.453-1.592-1.433-1.592s-1.433.816-1.433 1.591c-.002.776.453 1.613 1.433 1.613zM77.037 18.322h1.238v4.94h.03l1.877-2.089h1.588l-2.144 2.243 2.28 2.718h-1.64l-1.96-2.543h-.03v2.543H77.04v-7.812h-.002zM85.282 22.497a1.405 1.405 0 00-1.083-.539c-.39 0-.794.145-.794.539 0 .383.382.486 1.072.65.732.176 1.598.506 1.598 1.477 0 1.21-.98 1.653-2.062 1.653-.763 0-1.558-.288-2.032-.816l.814-.764c.268.351.733.62 1.267.62.361 0 .795-.144.795-.59 0-.413-.382-.538-1.134-.712-.733-.177-1.465-.476-1.465-1.406 0-1.107.99-1.58 1.97-1.58.711 0 1.454.247 1.856.753l-.802.715zM47.786 14.403c0 1.258 1.005 2.177 2.282 2.177 1.276 0 2.283-.917 2.283-2.177v-2.888h-1.238v2.74c0 .679-.453 1.133-1.049 1.133-.597 0-1.049-.454-1.049-1.133v-2.74h-1.236l.007 2.888zM55.655 12.675h1.476v3.805h1.236v-3.805h1.474v-1.16h-4.186v1.16zM54.856 11.515H53.62v4.965h1.236v-4.965zM42.793 12.675h1.476v3.805h1.235v-3.805h1.474v-1.16h-4.185v1.16zM36.31 11.515h-1.236v4.965h1.236v-4.965zM42.144 13.59c0-1.258-1.006-2.177-2.283-2.177s-2.283.918-2.283 2.177v2.889h1.236v-2.74c0-.68.453-1.134 1.049-1.134.595 0 1.049.454 1.049 1.133v2.74h1.235l-.003-2.888z" fill="#fff"/></g><path stroke="#fff" stroke-width=".558" d="M4.219 36.757h99.489"/><defs><clipPath id="clip0_2171_184842"><path fill="#fff" transform="translate(15.96 10.632)" d="M0 0h70.127v17.982H0z"/></clipPath></defs></svg>