<svg width="16" height="5" viewBox="0 0 16 5" fill="none" xmlns="http://www.w3.org/2000/svg"><path d="M5.854.839v.293c.324.005.684.107.924.316l-.36.373a.786.786 0 00-.564-.236v.898c.453.142.946.35.946.95 0 .618-.453.934-.946.947v.32h-.24v-.32c-.391-.013-.764-.142-1.044-.413l.39-.373c.16.186.427.324.654.328v-.986c-.52-.142-.929-.347-.929-.915 0-.529.454-.849.929-.88V.84h.24zm-.24 1.582v-.836c-.209.023-.396.151-.396.41 0 .244.17.359.396.426zm.24.586v.915c.249-.013.413-.195.413-.457s-.178-.378-.413-.458zM8.41 1.186h.649L8.254 2.35l.005.004a.99.99 0 01.333-.053.996.996 0 011.004 1.008c0 .667-.502 1.102-1.146 1.102-.658 0-1.15-.47-1.15-1.08 0-.36.12-.604.324-.928l.786-1.217zm-.569 2.159c0 .329.236.613.605.613.36 0 .604-.249.604-.622 0-.356-.24-.613-.596-.613-.36 0-.613.253-.613.622zm4.214-2.16v.48H10.77l-.031.68c.097-.027.257-.04.368-.04.618 0 1.084.36 1.084.995 0 .698-.52 1.111-1.146 1.111-.524 0-.897-.267-1.062-.689l.485-.177a.612.612 0 00.59.413c.316 0 .587-.218.587-.6 0-.484-.36-.626-.702-.626-.24 0-.542.075-.733.173l.053-1.72h1.79zm2.933 1.573c0 1.018-.395 1.653-1.106 1.653-.715 0-1.115-.635-1.115-1.653 0-1.017.4-1.652 1.115-1.652.711 0 1.106.635 1.106 1.652zm-.546 0c0-.44-.084-1.208-.56-1.208-.48 0-.569.768-.569 1.208 0 .44.09 1.2.57 1.2.475 0 .559-.76.559-1.2z" fill="#fff"/><path fill-rule="evenodd" clip-rule="evenodd" d="M2.05 4.028c.652 0 1.182-.597 1.182-1.333 0-.737-.53-1.334-1.183-1.334-.652 0-1.182.597-1.182 1.334 0 .736.53 1.333 1.182 1.333z" fill="#00A6A4"/></svg>