<svg width="12" height="5" viewBox="0 0 12 5" fill="none" xmlns="http://www.w3.org/2000/svg"><path d="M3.28 2.703c0 .955-.703 1.652-1.64 1.652C.702 4.355 0 3.658 0 2.703 0 1.747.702 1.05 1.64 1.05c.937 0 1.64.697 1.64 1.653zm-.338 0c0-.733-.494-1.373-1.302-1.373-.809 0-1.302.64-1.302 1.373S.831 4.07 1.64 4.07c.808 0 1.302-.635 1.302-1.368zm1.922-.507v.253h-.587v1.213c0 .311.129.382.311.382a.62.62 0 00.262-.066l.014.262a.976.976 0 01-.356.062c-.222 0-.533-.098-.533-.555V2.449h-.431v-.253h.431V1.61h.302v.586h.587zm.783.342h.009c.111-.24.404-.395.698-.395.528 0 .79.342.79.857v1.275h-.302v-1.15c0-.436-.129-.729-.564-.729-.32 0-.63.258-.63.813v1.066h-.303V.917h.302v1.621zm2.448.538h1.417c-.017-.391-.257-.68-.688-.68a.736.736 0 00-.729.68zm1.724.098c0 .04 0 .088-.004.142H8.09a.758.758 0 00.76.755c.31 0 .55-.173.666-.36l.226.178c-.244.31-.55.44-.893.44-.617 0-1.075-.467-1.075-1.093 0-.627.458-1.093 1.049-1.093.653 0 .995.462.995 1.03zm.65-.52c0-.111-.005-.316-.018-.458h.289c.009.111.018.267.018.356h.009a.74.74 0 01.666-.41c.075 0 .138.005.2.023l-.04.284a.807.807 0 00-.213-.026c-.32 0-.61.23-.61.786v1.066h-.301V2.654z" fill="#fff"/></svg>