<svg width="108" height="90" viewBox="0 0 108 90" fill="none" xmlns="http://www.w3.org/2000/svg"><path d="M10.607 2.381l-1.98 2.046c-.572-.55-1.408-.99-2.288-.99-.682 0-1.364.242-1.364.88 0 .616.594.792 2.002 1.1 1.672.374 3.498 1.21 3.498 3.344 0 2.772-2.442 3.74-4.686 3.74-1.782 0-3.63-.594-4.774-1.694L3.04 8.673c.638.704 1.628 1.232 2.684 1.232.594 0 1.298-.242 1.298-.946 0-.682-.682-.902-2.178-1.254-1.518-.352-3.19-1.122-3.19-3.19 0-2.618 2.464-3.674 4.554-3.674 1.628 0 3.322.528 4.4 1.54zM23.69 6.627c0 3.586-2.772 5.874-6.094 5.874-3.3 0-6.072-2.288-6.072-5.874S14.296.841 17.596.841c3.322 0 6.094 2.2 6.094 5.786zm-3.476 0c0-1.408-.924-2.794-2.618-2.794s-2.574 1.386-2.574 2.794c0 1.408.902 2.838 2.596 2.838s2.596-1.43 2.596-2.838zm21.38-5.434L36.69 13.8c-.88 2.288-2.068 3.63-4.818 3.63-.682 0-1.452-.11-1.98-.242l.396-3.036c.352.11.814.198 1.166.198 1.122 0 1.496-.528 1.848-1.474l.352-.902-4.576-10.78h4.004l2.442 7.04h.066l2.178-7.04h3.828zm12.527 5.434c0 3.586-2.772 5.874-6.094 5.874-3.3 0-6.072-2.288-6.072-5.874S44.727.841 48.027.841c3.322 0 6.094 2.2 6.094 5.786zm-3.476 0c0-1.408-.924-2.794-2.618-2.794s-2.574 1.386-2.574 2.794c0 1.408.902 2.838 2.596 2.838s2.596-1.43 2.596-2.838zm15.969 5.522h-3.476v-1.518h-.044c-.506.968-1.76 1.826-3.3 1.826-2.948 0-3.982-2.288-3.982-4.488V1.193h3.63v5.94c0 1.232.308 2.332 1.628 2.332 1.254 0 1.936-1.1 1.936-2.354V1.193h3.608V12.15zm16.99-9.834l-2.09 2.42c-.397-.528-1.189-.88-1.915-.88-1.518 0-2.53 1.298-2.53 2.816 0 1.518.99 2.794 2.574 2.794.726 0 1.518-.286 1.958-.814l2.002 2.442c-.902.88-2.442 1.408-4.048 1.408-3.454 0-6.138-2.2-6.138-5.83 0-3.564 2.706-5.83 6.116-5.83 1.562 0 3.212.594 4.07 1.474zm7.412 5.434v-.374h-.462c-1.584 0-3.366.198-3.366 1.496 0 .836.836 1.122 1.562 1.122 1.452 0 2.266-.88 2.266-2.244zM86.22 4.647L84.394 2.69C85.67 1.48 87.496.841 89.278.841c3.674 0 5.038 1.804 5.038 5.786v5.522h-3.3v-1.166h-.066c-.55.902-1.804 1.43-3.102 1.43-1.738 0-3.982-.858-3.982-3.432 0-3.168 3.85-3.696 7.04-3.696V5.11c0-1.078-.858-1.584-1.98-1.584-1.034 0-2.046.506-2.706 1.122zm21.129 7.502h-3.63V6.165c0-1.21-.33-2.31-1.628-2.31-1.276 0-1.936 1.1-1.936 2.354v5.94h-3.63V1.193h3.498v1.518h.044c.506-.968 1.76-1.826 3.278-1.826 2.948 0 4.004 2.288 4.004 4.488v6.776zM8.671 27.9H6.097v4.18c0 1.012.33 1.54 1.364 1.54.352 0 .792-.066 1.056-.176l.044 2.64c-.484.176-1.32.33-2.09.33-2.926 0-3.894-1.562-3.894-3.894V27.9H.817v-2.706h1.738v-2.882h3.542v2.882h2.574V27.9zm8.472-2.926l-.154 3.168a3.52 3.52 0 00-.924-.11c-1.936 0-2.574 1.584-2.574 2.486v5.632H9.883V25.193h3.476v1.584h.044c.55-1.1 1.628-1.892 2.97-1.892.286 0 .594.022.77.088zm7.103 6.776v-.374h-.462c-1.584 0-3.366.198-3.366 1.496 0 .836.836 1.122 1.562 1.122 1.452 0 2.266-.88 2.266-2.244zm-4.796-3.102l-1.826-1.958c1.276-1.21 3.102-1.848 4.884-1.848 3.674 0 5.038 1.804 5.038 5.786v5.522h-3.3v-1.166h-.066c-.55.902-1.804 1.43-3.102 1.43-1.738 0-3.982-.858-3.982-3.432 0-3.168 3.85-3.696 7.04-3.696v-.176c0-1.078-.858-1.584-1.98-1.584-1.034 0-2.046.506-2.706 1.122zm19.94-2.332l-2.09 2.42c-.395-.528-1.187-.88-1.913-.88-1.518 0-2.53 1.298-2.53 2.816 0 1.518.99 2.794 2.574 2.794.726 0 1.518-.286 1.958-.814l2.002 2.442c-.902.88-2.442 1.408-4.048 1.408-3.454 0-6.138-2.2-6.138-5.83 0-3.564 2.706-5.83 6.116-5.83 1.562 0 3.212.594 4.07 1.474zm8.315 3.828l4.4 6.006H47.64l-3.586-5.258h-.066v5.258h-3.63V19.517h3.63v10.12h.066l3.498-4.444h4.378l-4.224 4.95zm21.334-4.95L64.133 37.8c-.88 2.288-2.068 3.63-4.818 3.63-.682 0-1.452-.11-1.98-.242l.396-3.036c.352.11.814.198 1.166.198 1.122 0 1.496-.528 1.848-1.474l.352-.902-4.576-10.78h4.004l2.442 7.04h.066l2.178-7.04h3.828zm12.527 5.434c0 3.586-2.772 5.874-6.094 5.874-3.3 0-6.072-2.288-6.072-5.874s2.772-5.786 6.072-5.786c3.322 0 6.094 2.2 6.094 5.786zm-3.476 0c0-1.408-.924-2.794-2.618-2.794s-2.574 1.386-2.574 2.794c0 1.408.902 2.838 2.596 2.838s2.596-1.43 2.596-2.838zm15.968 5.522h-3.476v-1.518h-.044c-.506.968-1.76 1.826-3.3 1.826-2.948 0-3.982-2.288-3.982-4.488v-6.776h3.63v5.94c0 1.232.308 2.332 1.628 2.332 1.254 0 1.936-1.1 1.936-2.354v-5.918h3.608V36.15zm9.598-11.176l-.154 3.168a3.52 3.52 0 00-.924-.11c-1.936 0-2.574 1.584-2.574 2.486v5.632h-3.608V25.193h3.476v1.584h.044c.55-1.1 1.628-1.892 2.97-1.892.286 0 .594.022.77.088zM5.086 53.417h4.641c0-1.144-.726-2.09-2.156-2.09-1.386 0-2.398.968-2.486 2.09zm7.963 1.386c0 .286 0 .594-.022.858H5.085c.11 1.21 1.32 2.068 2.618 2.068 1.144 0 1.936-.484 2.42-1.144l2.508 1.584c-1.034 1.496-2.75 2.332-4.972 2.332-3.3 0-6.028-2.09-6.028-5.786 0-3.586 2.596-5.874 5.918-5.874 3.234 0 5.5 2.222 5.5 5.962zm12.986 5.346h-4.246l-2.354-3.366-2.42 3.366h-4.18l4.378-5.742-3.96-5.214h4.202L19.5 52.12l2.068-2.926h4.07L21.7 54.407l4.334 5.742zm13.04-5.522c0 3.058-1.914 5.83-5.214 5.83-1.342 0-2.64-.572-3.322-1.518h-.044v6.49h-3.608V49.193h3.432v1.342h.066c.66-.88 1.892-1.65 3.498-1.65 3.19 0 5.192 2.684 5.192 5.742zm-3.498 0c0-1.408-.858-2.794-2.574-2.794-1.628 0-2.64 1.43-2.64 2.816 0 1.43 1.012 2.816 2.64 2.816 1.716 0 2.574-1.408 2.574-2.838zm8.19-1.21h4.641c0-1.144-.726-2.09-2.156-2.09-1.386 0-2.398.968-2.486 2.09zm7.963 1.386c0 .286 0 .594-.022.858h-7.942c.11 1.21 1.32 2.068 2.618 2.068 1.144 0 1.936-.484 2.42-1.144l2.508 1.584c-1.034 1.496-2.75 2.332-4.972 2.332-3.3 0-6.028-2.09-6.028-5.786 0-3.586 2.596-5.874 5.918-5.874 3.234 0 5.5 2.222 5.5 5.962zm12.578 5.346h-3.63v-5.984c0-1.21-.33-2.31-1.628-2.31-1.276 0-1.936 1.1-1.936 2.354v5.94h-3.63V49.193h3.498v1.518h.044c.506-.968 1.76-1.826 3.278-1.826 2.948 0 4.004 2.288 4.004 4.488v6.776zm10.674-9.768l-1.98 2.046c-.572-.55-1.408-.99-2.288-.99-.682 0-1.364.242-1.364.88 0 .616.594.792 2.002 1.1 1.672.374 3.498 1.21 3.498 3.344 0 2.772-2.442 3.74-4.686 3.74-1.782 0-3.63-.594-4.774-1.694l2.024-2.134c.638.704 1.628 1.232 2.684 1.232.594 0 1.298-.242 1.298-.946 0-.682-.682-.902-2.178-1.254-1.518-.352-3.19-1.122-3.19-3.19 0-2.618 2.464-3.674 4.554-3.674 1.628 0 3.322.528 4.4 1.54zm4.371 3.036h4.642c0-1.144-.726-2.09-2.156-2.09-1.386 0-2.398.968-2.486 2.09zm7.964 1.386c0 .286 0 .594-.022.858h-7.942c.11 1.21 1.32 2.068 2.618 2.068 1.144 0 1.936-.484 2.42-1.144L86.9 58.17c-1.034 1.496-2.75 2.332-4.972 2.332-3.3 0-6.028-2.09-6.028-5.786 0-3.586 2.596-5.874 5.918-5.874 3.234 0 5.5 2.222 5.5 5.962zm10.18-4.422l-1.98 2.046c-.572-.55-1.408-.99-2.288-.99-.682 0-1.364.242-1.364.88 0 .616.594.792 2.002 1.1 1.672.374 3.498 1.21 3.498 3.344 0 2.772-2.442 3.74-4.686 3.74-1.782 0-3.63-.594-4.774-1.694l2.024-2.134c.638.704 1.628 1.232 2.684 1.232.594 0 1.298-.242 1.298-.946 0-.682-.682-.902-2.178-1.254-1.518-.352-3.19-1.122-3.19-3.19 0-2.618 2.464-3.674 4.554-3.674 1.628 0 3.322.528 4.4 1.54z" fill="#14324F"/><path d="M8.65 79.75v-.375h-.463c-1.584 0-3.366.198-3.366 1.496 0 .836.836 1.122 1.562 1.122 1.452 0 2.266-.88 2.266-2.244zm-4.797-3.103L2.027 74.69c1.276-1.21 3.102-1.848 4.884-1.848 3.674 0 5.038 1.804 5.038 5.786v5.522h-3.3v-1.166h-.066c-.55.902-1.804 1.43-3.102 1.43-1.738 0-3.982-.858-3.982-3.432 0-3.168 3.85-3.696 7.04-3.696v-.176c0-1.078-.858-1.584-1.98-1.584-1.034 0-2.046.506-2.706 1.122zm18.731-2.266l-1.98 2.046c-.572-.55-1.408-.99-2.288-.99-.682 0-1.364.242-1.364.88 0 .616.594.792 2.002 1.1 1.672.374 3.498 1.21 3.498 3.344 0 2.772-2.442 3.74-4.686 3.74-1.782 0-3.63-.594-4.774-1.694l2.024-2.134c.638.704 1.628 1.232 2.684 1.232.594 0 1.298-.242 1.298-.946 0-.682-.682-.902-2.178-1.254-1.518-.352-3.19-1.122-3.19-3.19 0-2.618 2.464-3.674 4.554-3.674 1.628 0 3.322.528 4.4 1.54zm17.571-1.188L35.25 85.8c-.88 2.288-2.068 3.63-4.818 3.63-.682 0-1.452-.11-1.98-.242l.396-3.036c.352.11.814.198 1.166.198 1.122 0 1.496-.528 1.848-1.474l.352-.902-4.576-10.78h4.004l2.442 7.04h.066l2.178-7.04h3.828zm12.527 5.434c0 3.586-2.772 5.874-6.094 5.874-3.3 0-6.072-2.288-6.072-5.874s2.772-5.786 6.072-5.786c3.322 0 6.094 2.2 6.094 5.786zm-3.476 0c0-1.408-.924-2.794-2.618-2.794s-2.574 1.386-2.574 2.794c0 1.408.902 2.838 2.596 2.838s2.596-1.43 2.596-2.838zm15.968 5.522h-3.476v-1.518h-.044c-.506.968-1.76 1.826-3.3 1.826-2.948 0-3.982-2.288-3.982-4.488v-6.776h3.63v5.94c0 1.232.308 2.332 1.628 2.332 1.254 0 1.936-1.1 1.936-2.354v-5.918h3.608V84.15zm18.97-1.034c0 4.29-2.552 6.314-6.446 6.314-1.914 0-4.158-.616-5.632-1.716l1.804-2.574c1.056.924 2.398 1.386 3.63 1.386 2.112 0 3.102-1.232 3.102-3.058v-.66h-.066c-.682.88-1.87 1.452-3.322 1.452-3.322 0-5.236-2.596-5.236-5.632 0-3.036 1.914-5.742 5.214-5.742 1.364 0 2.728.55 3.498 1.716h.044v-1.408h3.41v9.922zm-3.432-4.51c0-1.496-1.034-2.772-2.662-2.772s-2.574 1.254-2.574 2.772c0 1.452.946 2.794 2.574 2.794 1.65 0 2.662-1.298 2.662-2.794zm17.428.022c0 3.586-2.772 5.874-6.094 5.874-3.3 0-6.072-2.288-6.072-5.874s2.772-5.786 6.072-5.786c3.322 0 6.094 2.2 6.094 5.786zm-3.476 0c0-1.408-.924-2.794-2.618-2.794s-2.574 1.386-2.574 2.794c0 1.408.902 2.838 2.596 2.838s2.596-1.43 2.596-2.838zm9.133 3.586c0 1.21-1.012 2.156-2.2 2.156-1.21 0-2.244-.924-2.244-2.134 0-1.188 1.012-2.178 2.244-2.178 1.188 0 2.2.946 2.2 2.156z" fill="#fff"/></svg>