<svg width="131" height="118" viewBox="0 0 131 118" fill="none" xmlns="http://www.w3.org/2000/svg"><path fill-rule="evenodd" clip-rule="evenodd" d="M.884 3.708a2.78 2.78 0 012.78-2.78h124.258a2.78 2.78 0 012.78 2.78v27.206a2.78 2.78 0 01-2.78 2.78H89.499a2.78 2.78 0 00-2.78 2.78v7.458a2.78 2.78 0 002.78 2.78h15.4a2.78 2.78 0 012.78 2.78V65.59a2.78 2.78 0 002.781 2.78h3.286a2.78 2.78 0 012.78 2.781v20.3a2.78 2.78 0 01-2.78 2.781h-22.37a2.78 2.78 0 00-2.781 2.78v17.476a2.78 2.78 0 01-2.78 2.78H3.664a2.78 2.78 0 01-2.781-2.78V3.708z" fill="#3BD85E"/><path d="M25.135 24.706h-8.113c-4.235 0-7.115-2.466-7.115-6.833 0-4.047 3.106-6.851 7.228-6.851 4.141 0 7.172 2.786 7.172 6.795 0 2.033-1.017 3.595-1.977 4.33v.056l2.805-.057v2.56zM20.9 17.911c0-2.315-1.544-3.972-3.765-3.972-2.146 0-3.765 1.657-3.765 3.972 0 2.39 1.544 4.047 3.746 4.047 2.184 0 3.784-1.656 3.784-4.047zm14.407 6.795h-2.974v-1.299h-.038c-.433.828-1.505 1.563-2.823 1.563-2.522 0-3.407-1.958-3.407-3.84v-5.798h3.106v5.082c0 1.054.263 1.996 1.393 1.996 1.073 0 1.656-.942 1.656-2.014v-5.064h3.087v9.374zm5.35-12.367c0 .96-.79 1.694-1.769 1.694-.997 0-1.77-.771-1.77-1.694 0-.903.773-1.694 1.77-1.694.98 0 1.77.753 1.77 1.694zm-.225 12.367h-3.087v-9.374h3.087v9.374zm10.275-8.414l-1.788 2.07c-.339-.451-1.016-.752-1.638-.752-1.298 0-2.164 1.11-2.164 2.41 0 1.298.847 2.39 2.202 2.39.621 0 1.299-.245 1.675-.697l1.713 2.09c-.772.752-2.09 1.204-3.463 1.204-2.956 0-5.252-1.882-5.252-4.988 0-3.05 2.315-4.988 5.233-4.988 1.336 0 2.748.508 3.482 1.261zm7.114 3.275l3.764 5.14h-3.82l-3.069-4.5h-.056v4.5h-3.106V10.475h3.106v8.658h.056l2.993-3.802h3.746l-3.614 4.235zm15.034 1.261c0 2.9-2.54 3.878-5.082 3.878h-5.308V11.38h5.308c2.07 0 4.536.734 4.536 3.425 0 1.468-.884 2.447-2.183 2.88v.038c1.524.263 2.73 1.355 2.73 3.105zm-3.651-5.59c0-.903-.697-1.299-2.052-1.299H65.57v2.748h1.731c1.205 0 1.901-.508 1.901-1.449zm.433 5.29c0-1.111-.904-1.469-2.278-1.469H65.57v3.05h1.807c1.016 0 2.258-.283 2.258-1.582zm14.7-.546c0 3.068-2.37 5.025-5.213 5.025-2.823 0-5.195-1.957-5.195-5.026 0-3.068 2.371-4.95 5.195-4.95 2.842 0 5.214 1.882 5.214 4.95zm-2.973 0c0-1.205-.79-2.391-2.24-2.391-1.45 0-2.202 1.186-2.202 2.39 0 1.205.771 2.429 2.22 2.429 1.45 0 2.222-1.224 2.222-2.428zm14.453 0c0 3.068-2.372 5.025-5.214 5.025-2.824 0-5.195-1.957-5.195-5.026 0-3.068 2.371-4.95 5.195-4.95 2.842 0 5.214 1.882 5.214 4.95zm-2.974 0c0-1.205-.79-2.391-2.24-2.391-1.45 0-2.203 1.186-2.203 2.39 0 1.205.772 2.429 2.222 2.429 1.449 0 2.22-1.224 2.22-2.428zm10.82-.415l3.764 5.14h-3.821l-3.068-4.5h-.056v4.5h-3.106V10.475h3.106v8.658h.056l2.993-3.802h3.746l-3.614 4.235zm11.573-3.218l-1.694 1.75c-.489-.47-1.204-.847-1.957-.847-.584 0-1.167.207-1.167.753 0 .527.508.678 1.713.941 1.43.32 2.992 1.035 2.992 2.861 0 2.372-2.089 3.2-4.009 3.2-1.525 0-3.106-.508-4.084-1.45l1.731-1.825c.546.602 1.393 1.054 2.297 1.054.508 0 1.11-.207 1.11-.81 0-.583-.583-.771-1.863-1.072-1.299-.301-2.73-.96-2.73-2.73 0-2.24 2.109-3.143 3.897-3.143 1.393 0 2.842.452 3.764 1.318zM13.596 44.928h-3.124v-14.23h3.124v14.23zm4.515-5.76h3.972c0-.979-.621-1.788-1.845-1.788-1.186 0-2.052.828-2.127 1.788zm6.814 1.186c0 .245 0 .508-.019.734h-6.795c.094 1.035 1.13 1.77 2.24 1.77.979 0 1.656-.415 2.07-.98l2.146 1.356c-.884 1.28-2.352 1.995-4.254 1.995-2.823 0-5.157-1.788-5.157-4.95 0-3.069 2.221-5.026 5.063-5.026 2.767 0 4.706 1.9 4.706 5.1zm7.053-2.485h-2.202v3.577c0 .865.282 1.317 1.167 1.317.3 0 .677-.056.903-.15l.038 2.258c-.414.15-1.13.283-1.788.283-2.504 0-3.332-1.337-3.332-3.332v-3.953h-1.506v-2.315h1.487v-2.466h3.03v2.466h2.203v2.315zm8.246-1.299l-1.694 1.75c-.49-.47-1.205-.846-1.958-.846-.584 0-1.167.207-1.167.753 0 .527.508.677 1.713.94 1.43.32 2.993 1.036 2.993 2.862 0 2.372-2.09 3.2-4.01 3.2-1.524 0-3.105-.508-4.084-1.45l1.732-1.825c.545.602 1.392 1.054 2.296 1.054.508 0 1.11-.207 1.11-.81 0-.583-.583-.771-1.863-1.072-1.299-.302-2.73-.96-2.73-2.73 0-2.24 2.109-3.143 3.897-3.143 1.393 0 2.842.452 3.765 1.317zm15.033-1.016L51.06 46.339c-.753 1.958-1.77 3.106-4.123 3.106a7.586 7.586 0 01-1.694-.207l.34-2.597c.3.094.696.169.997.169.96 0 1.28-.452 1.58-1.261l.302-.772-3.915-9.223h3.426l2.089 6.023h.056l1.864-6.023h3.275zm10.718 4.65c0 3.067-2.372 5.025-5.214 5.025-2.824 0-5.196-1.958-5.196-5.026 0-3.068 2.372-4.95 5.196-4.95 2.842 0 5.214 1.882 5.214 4.95zm-2.974 0c0-1.206-.791-2.391-2.24-2.391-1.45 0-2.203 1.185-2.203 2.39s.772 2.428 2.221 2.428c1.45 0 2.221-1.223 2.221-2.428zm13.662 4.724h-2.974v-1.299h-.038c-.433.828-1.506 1.562-2.823 1.562-2.523 0-3.407-1.957-3.407-3.84v-5.797h3.106v5.082c0 1.054.263 1.995 1.392 1.995 1.073 0 1.657-.94 1.657-2.014v-5.063h3.087v9.374zM18.679 56.736l-1.789 2.07c-.338-.452-1.016-.753-1.637-.753-1.299 0-2.165 1.11-2.165 2.41 0 1.298.847 2.39 2.203 2.39.62 0 1.298-.245 1.675-.696l1.713 2.089c-.772.753-2.09 1.205-3.464 1.205-2.955 0-5.251-1.883-5.251-4.988 0-3.05 2.315-4.989 5.232-4.989 1.337 0 2.749.509 3.483 1.262zm6.342 4.649v-.32h-.396c-1.355 0-2.88.17-2.88 1.28 0 .715.716.96 1.337.96 1.242 0 1.939-.753 1.939-1.92zm-4.104-2.654l-1.562-1.675c1.092-1.036 2.654-1.581 4.178-1.581 3.144 0 4.311 1.543 4.311 4.95v4.724h-2.823v-.997h-.057c-.47.772-1.543 1.223-2.654 1.223-1.487 0-3.407-.734-3.407-2.936 0-2.71 3.294-3.162 6.023-3.162v-.15c0-.923-.734-1.356-1.694-1.356-.884 0-1.75.433-2.315.96zm19.245 1.694c0 2.616-1.638 4.988-4.461 4.988-1.148 0-2.259-.49-2.843-1.299h-.037v5.553h-3.087V55.776h2.936v1.148h.057c.564-.753 1.619-1.412 2.993-1.412 2.729 0 4.442 2.297 4.442 4.913zm-2.993 0c0-1.205-.734-2.39-2.202-2.39-1.393 0-2.26 1.223-2.26 2.409 0 1.223.867 2.409 2.26 2.409 1.468 0 2.202-1.205 2.202-2.428zm10.074-2.334h-2.202v3.576c0 .866.283 1.318 1.167 1.318.301 0 .678-.057.904-.15l.037 2.258c-.414.15-1.129.282-1.788.282-2.503 0-3.331-1.336-3.331-3.331V58.09h-1.506v-2.315h1.487V53.31h3.03v2.466h2.202v2.315zm10.185 7.058h-2.974v-1.298h-.038c-.433.828-1.506 1.562-2.823 1.562-2.522 0-3.407-1.958-3.407-3.84v-5.797h3.106v5.082c0 1.054.263 1.995 1.393 1.995 1.072 0 1.656-.941 1.656-2.014v-5.063h3.087v9.373zm8.212-9.562l-.132 2.71a3.012 3.012 0 00-.79-.093c-1.657 0-2.203 1.355-2.203 2.127v4.818h-3.087v-9.373h2.974v1.355h.038c.47-.941 1.393-1.619 2.54-1.619.245 0 .509.019.66.075zm2.99 3.803h3.972c0-.98-.62-1.789-1.844-1.789-1.186 0-2.052.829-2.127 1.789zm6.815 1.185c0 .245 0 .509-.02.734h-6.794c.094 1.036 1.129 1.77 2.24 1.77.978 0 1.656-.414 2.07-.979l2.146 1.355c-.885 1.28-2.353 1.996-4.254 1.996-2.823 0-5.158-1.789-5.158-4.95 0-3.069 2.222-5.026 5.064-5.026 2.767 0 4.706 1.9 4.706 5.1zm15.73-.15c0 3.068-2.372 5.026-5.214 5.026-2.823 0-5.195-1.958-5.195-5.026 0-3.068 2.371-4.95 5.195-4.95 2.842 0 5.214 1.882 5.214 4.95zm-2.974 0c0-1.205-.79-2.39-2.24-2.39-1.45 0-2.202 1.185-2.202 2.39s.771 2.428 2.22 2.428c1.45 0 2.222-1.224 2.222-2.428zm10.726-4.838l-.132 2.71a3.012 3.012 0 00-.79-.093c-1.657 0-2.203 1.355-2.203 2.127v4.818h-3.087v-9.373h2.974v1.355h.038c.47-.941 1.393-1.619 2.541-1.619.245 0 .508.019.659.075zM12.919 79.61h3.971c0-.978-.62-1.788-1.844-1.788-1.186 0-2.052.828-2.127 1.788zm6.814 1.186c0 .245 0 .508-.02.734H12.92c.094 1.035 1.13 1.77 2.24 1.77.978 0 1.656-.415 2.07-.98l2.146 1.356c-.885 1.28-2.353 1.995-4.254 1.995-2.823 0-5.157-1.788-5.157-4.95 0-3.068 2.22-5.026 5.063-5.026 2.767 0 4.706 1.901 4.706 5.101zM36.29 85.37h-3.087v-5.12c0-1.073-.245-1.976-1.336-1.976-1.054 0-1.563.979-1.563 2.033v5.063H27.22v-5.346c0-1.073-.415-1.75-1.337-1.75-.979 0-1.543.885-1.543 2.014v5.082h-3.106v-9.374h2.993v1.3h.037c.433-.792 1.393-1.563 2.805-1.563 1.355 0 2.296.583 2.823 1.6.622-.979 1.6-1.6 2.993-1.6 2.541 0 3.407 2.07 3.407 3.84v5.797zm7.45-3.764v-.32h-.395c-1.355 0-2.88.169-2.88 1.28 0 .715.716.96 1.337.96 1.242 0 1.939-.753 1.939-1.92zm-4.103-2.654l-1.562-1.676c1.092-1.035 2.654-1.58 4.179-1.58 3.143 0 4.31 1.543 4.31 4.95v4.724h-2.823v-.998h-.057c-.47.772-1.543 1.224-2.654 1.224-1.487 0-3.407-.734-3.407-2.936 0-2.71 3.294-3.163 6.024-3.163v-.15c0-.922-.734-1.355-1.694-1.355-.885 0-1.75.432-2.316.96zm12.168-5.948c0 .96-.79 1.694-1.77 1.694-.997 0-1.77-.772-1.77-1.694 0-.904.773-1.695 1.77-1.695.98 0 1.77.753 1.77 1.695zM51.58 85.37h-3.087v-9.374h3.087v9.374zm5.193 0h-3.125V71.14h3.125v14.23zm15.808-9.374l-4.197 10.786c-.753 1.957-1.77 3.106-4.122 3.106a7.587 7.587 0 01-1.694-.207l.338-2.598c.302.094.697.17.998.17.96 0 1.28-.452 1.581-1.262l.301-.772-3.915-9.223h3.426l2.09 6.024h.056l1.863-6.024h3.275zm10.718 4.65c0 3.068-2.372 5.025-5.214 5.025-2.824 0-5.195-1.957-5.195-5.025 0-3.069 2.371-4.95 5.195-4.95 2.842 0 5.214 1.882 5.214 4.95zm-2.974 0c0-1.205-.79-2.39-2.24-2.39-1.45 0-2.202 1.185-2.202 2.39 0 1.204.771 2.428 2.22 2.428 1.45 0 2.222-1.224 2.222-2.428zm13.662 4.724h-2.974v-1.299h-.038c-.432.829-1.505 1.563-2.823 1.563-2.522 0-3.407-1.958-3.407-3.84v-5.798h3.106v5.083c0 1.054.263 1.995 1.393 1.995 1.073 0 1.656-.941 1.656-2.014v-5.064h3.087v9.374zm8.212-9.562l-.132 2.71a3.012 3.012 0 00-.791-.094c-1.656 0-2.202 1.356-2.202 2.127v4.82h-3.087v-9.375h2.974v1.356H99c.47-.942 1.393-1.62 2.541-1.62.245 0 .508.02.659.076zM16.646 96.03l-.132 2.71a3.011 3.011 0 00-.79-.094c-1.657 0-2.203 1.355-2.203 2.127v4.819h-3.087v-9.374h2.974v1.355h.038c.47-.94 1.393-1.618 2.54-1.618.246 0 .51.018.66.075zm2.99 3.802h3.972c0-.979-.62-1.788-1.844-1.788-1.186 0-2.052.828-2.127 1.788zm6.815 1.186c0 .245 0 .508-.02.734h-6.794c.094 1.035 1.13 1.769 2.24 1.769.979 0 1.656-.414 2.07-.979l2.146 1.356c-.885 1.28-2.353 1.995-4.254 1.995-2.823 0-5.157-1.788-5.157-4.95 0-3.069 2.22-5.026 5.063-5.026 2.767 0 4.706 1.901 4.706 5.101zm9.744-3.84l-1.788 2.07c-.339-.451-1.016-.752-1.637-.752-1.3 0-2.165 1.11-2.165 2.409 0 1.299.847 2.39 2.202 2.39.621 0 1.299-.244 1.675-.696l1.713 2.089c-.771.753-2.089 1.205-3.463 1.205-2.955 0-5.252-1.882-5.252-4.988 0-3.05 2.316-4.988 5.233-4.988 1.337 0 2.748.508 3.482 1.261zm3.293 2.654h3.972c0-.979-.622-1.788-1.845-1.788-1.186 0-2.052.828-2.127 1.788zm6.814 1.186c0 .245 0 .508-.019.734h-6.795c.094 1.035 1.13 1.769 2.24 1.769.979 0 1.656-.414 2.07-.979l2.146 1.356c-.885 1.28-2.353 1.995-4.254 1.995-2.823 0-5.157-1.788-5.157-4.95 0-3.069 2.22-5.026 5.063-5.026 2.767 0 4.706 1.901 4.706 5.101zm4.85-7.793c0 .96-.79 1.694-1.769 1.694-.997 0-1.77-.772-1.77-1.694 0-.903.773-1.694 1.77-1.694.979 0 1.77.753 1.77 1.694zm-.225 12.367H47.84v-9.374h3.087v9.374zm12.459-4.725c0 2.617-1.638 4.988-4.462 4.988-1.148 0-2.258-.489-2.842-1.298h-.037v5.552h-3.087V96.218h2.936v1.148h.056c.565-.753 1.62-1.412 2.993-1.412 2.73 0 4.443 2.297 4.443 4.913zm-2.993 0c0-1.204-.734-2.39-2.203-2.39-1.392 0-2.258 1.223-2.258 2.409 0 1.224.865 2.409 2.258 2.409 1.469 0 2.203-1.204 2.203-2.428zm10.074-2.334h-2.202v3.577c0 .865.282 1.317 1.167 1.317.301 0 .677-.056.903-.15l.038 2.258c-.414.151-1.13.283-1.788.283-2.504 0-3.332-1.337-3.332-3.332v-3.953h-1.506v-2.315h1.487v-2.466h3.03v2.466h2.203v2.315zm8.246-1.299l-1.694 1.751c-.49-.47-1.205-.847-1.958-.847-.583 0-1.167.207-1.167.753 0 .527.508.677 1.713.941 1.43.32 2.993 1.035 2.993 2.861 0 2.372-2.09 3.2-4.01 3.2-1.524 0-3.105-.508-4.084-1.449l1.732-1.826c.546.602 1.393 1.054 2.296 1.054.508 0 1.11-.207 1.11-.81 0-.583-.583-.771-1.863-1.072-1.299-.302-2.729-.96-2.729-2.73 0-2.24 2.108-3.143 3.896-3.143 1.393 0 2.843.452 3.765 1.317z" fill="#14324F"/></svg>