<svg width="23" height="7" viewBox="0 0 23 7" fill="none" xmlns="http://www.w3.org/2000/svg"><path d="M2.42.672v.442c.487.013 1.053.17 1.456.494-.208.24-.416.475-.63.709a1.291 1.291 0 00-.826-.351v1.04c.67.202 1.476.488 1.476 1.417 0 .95-.742 1.398-1.502 1.424v.475h-.481v-.475c-.56-.02-1.177-.214-1.606-.598.227-.234.461-.475.682-.715.234.253.637.442.924.449V3.845C1.165 3.643.495 3.357.495 2.485c0-.85.767-1.332 1.45-1.364V.67h.475zm-.475 2.224v-.943c-.234.026-.455.175-.455.461 0 .273.182.41.455.482zm.449 1.066v1.027c.292-.013.474-.208.474-.507 0-.3-.201-.436-.474-.52zm5.64-1.912L6.272 5.782H5.004L6.87 2.115H4.692V1.18h3.342v.871zm2.09 2.692l-.63 1.846h-.878l.487-1.846h1.02zm3.243 1.04h-1.092v-3.38l-.859.663-.565-.774 1.515-1.112h1.001v4.603zm5.042 0H15.08v-.91l1.795-1.625c.227-.215.377-.43.377-.71 0-.324-.228-.552-.572-.552-.365 0-.605.286-.65.696l-1.048-.143c.105-.93.859-1.482 1.756-1.482.845 0 1.664.448 1.664 1.41 0 .657-.383 1.04-.806 1.418l-1.066.949h1.879v.95zm4.333-2.314c0 1.306-.494 2.438-1.794 2.438-1.307 0-1.808-1.132-1.808-2.438 0-1.3.5-2.412 1.808-2.412 1.3 0 1.794 1.111 1.794 2.412zm-1.118 0c0-.579-.104-1.49-.676-1.49-.579 0-.69.911-.69 1.49 0 .591.111 1.502.69 1.502.572 0 .676-.91.676-1.502z" fill="#fff"/></svg>