<svg width="43" height="44" viewBox="0 0 43 44" fill="none" xmlns="http://www.w3.org/2000/svg"><path d="M.772 23.533A21 21 0 016.25 7.576l5.407 4.978a13.65 13.65 0 00-3.56 10.372l-7.325.607z" fill="#00A6A4" stroke="#fff" stroke-width=".521"/><path d="M21.7.8a21 21 0 0112.898 37.57l-4.514-5.8A13.65 13.65 0 0021.7 8.15V.8z" fill="#00D7D7" stroke="#fff" stroke-width=".521"/><path d="M34.597 38.372A21 21 0 01.771 23.535l7.325-.607a13.65 13.65 0 0021.987 9.644l4.514 5.8z" fill="#00C1BF" stroke="#fff" stroke-width=".521"/><path d="M6.251 7.577A21 21 0 0121.701.8v7.35a13.65 13.65 0 00-10.043 4.405L6.251 7.577z" fill="#008481" stroke="#fff" stroke-width=".521"/></svg>