<svg width="33" height="5" viewBox="0 0 33 5" fill="none" xmlns="http://www.w3.org/2000/svg"><path d="M.405 3.831V1.146h.926c.405 0 .842.167.842.679 0 .296-.19.508-.47.584v.007c.344.042.595.277.595.653 0 .516-.448.762-1.009.762H.405zm.376-2.37v.819h.489c.288 0 .527-.125.527-.417 0-.289-.231-.402-.588-.402H.781zm0 1.137v.914h.47c.319 0 .668-.098.668-.462 0-.315-.224-.452-.634-.452H.781zm3.643 1.233h-.338a4.3 4.3 0 01-.015-.296h-.007c-.091.19-.327.345-.588.345-.463 0-.672-.33-.672-.732V2.033h.357v.994c0 .296.08.554.41.554.284 0 .481-.235.481-.592v-.956h.357v1.411c0 .095.004.27.015.387zm1.82-1.551l-.246.208a.49.49 0 00-.417-.223c-.163 0-.334.064-.334.235 0 .152.137.208.41.27.341.075.603.215.603.53 0 .425-.353.58-.717.58-.273 0-.554-.106-.725-.322l.255-.216a.59.59 0 00.477.25c.179 0 .357-.064.357-.262 0-.166-.163-.227-.47-.3-.24-.056-.524-.158-.524-.496 0-.387.338-.55.68-.55.253 0 .523.102.652.296zm.829-.247v1.798h-.357V2.033h.357zm.06-.648c0 .129-.11.227-.239.227a.232.232 0 01-.235-.227c0-.13.106-.232.235-.232.13 0 .24.1.24.232zm.546.648h.337c.008.091.015.22.015.296h.012c.087-.193.326-.345.584-.345.462 0 .671.33.671.732v1.115h-.356v-.997c0-.292-.08-.55-.41-.55-.28 0-.482.235-.482.591v.956h-.356v-1.41c0-.096-.004-.27-.015-.388zm2.469.74h1.07c-.008-.285-.175-.508-.505-.508a.557.557 0 00-.565.508zm1.43.144c0 .038 0 .08-.004.121h-1.426c.011.308.269.547.584.547a.618.618 0 00.523-.274l.25.201a.927.927 0 01-.773.368c-.546 0-.948-.379-.948-.944 0-.561.402-.952.929-.952.53 0 .865.36.865.933zm1.715-.637l-.247.208a.49.49 0 00-.417-.223c-.163 0-.334.064-.334.235 0 .152.137.208.41.27.341.075.603.215.603.53 0 .425-.353.58-.717.58-.273 0-.554-.106-.724-.322l.254-.216a.59.59 0 00.478.25c.178 0 .356-.064.356-.262 0-.166-.163-.227-.47-.3-.239-.056-.524-.158-.524-.496 0-.387.338-.55.68-.55.254 0 .523.102.652.296zm1.685 0l-.247.208a.49.49 0 00-.417-.223c-.163 0-.334.064-.334.235 0 .152.137.208.41.27.341.075.603.215.603.53 0 .425-.353.58-.717.58-.273 0-.553-.106-.724-.322l.254-.216a.59.59 0 00.478.25c.178 0 .356-.064.356-.262 0-.166-.163-.227-.47-.3-.239-.056-.523-.158-.523-.496 0-.387.337-.55.679-.55.254 0 .523.102.652.296zm2.633 0l-.246.208a.49.49 0 00-.417-.223c-.163 0-.334.064-.334.235 0 .152.136.208.41.27.34.075.602.215.602.53 0 .425-.352.58-.716.58-.273 0-.554-.106-.725-.322l.254-.216a.59.59 0 00.478.25c.178 0 .357-.064.357-.262 0-.166-.163-.227-.47-.3-.24-.056-.524-.158-.524-.496 0-.387.338-.55.679-.55.254 0 .523.102.652.296zm.825 1.282v1.18h-.357V2.032h.349v.281h.011c.118-.19.353-.33.649-.33.535 0 .899.413.899.944 0 .528-.353.952-.907.952a.76.76 0 01-.633-.318h-.011zm1.183-.634c0-.337-.209-.648-.6-.648-.363 0-.606.307-.606.652 0 .345.242.649.607.649.39 0 .599-.315.599-.653zm1.11-.155h1.07c-.008-.285-.175-.508-.505-.508a.557.557 0 00-.565.508zm1.43.144c0 .038 0 .08-.004.121H20.73c.012.308.27.547.584.547a.617.617 0 00.524-.274l.25.201a.927.927 0 01-.774.368c-.546 0-.948-.379-.948-.944 0-.561.402-.952.93-.952.53 0 .864.36.864.933zm.483-.884h.337c.008.091.015.22.015.296h.012c.087-.193.326-.345.584-.345.462 0 .671.33.671.732v1.115h-.356v-.997c0-.292-.08-.55-.41-.55-.28 0-.482.235-.482.591v.956h-.356v-1.41c0-.096-.004-.27-.015-.388zm3.656 1.514c-.137.216-.394.333-.649.333-.553 0-.906-.424-.906-.952 0-.53.364-.944.903-.944a.78.78 0 01.64.319h.008V.963h.357v2.868h-.346v-.284h-.007zm-1.183-.619c0 .338.204.653.595.653.364 0 .607-.304.607-.649 0-.345-.243-.652-.607-.652-.39 0-.595.31-.595.648zm2.517-.895v1.798h-.357V2.033h.357zm.06-.648c0 .129-.11.227-.238.227a.232.232 0 01-.235-.227c0-.13.106-.232.235-.232s.239.1.239.232zm.546.648h.338c.007.091.015.22.015.296h.011c.087-.193.326-.345.584-.345.463 0 .672.33.672.732v1.115H29.5v-.997c0-.292-.08-.55-.41-.55-.28 0-.481.235-.481.591v.956h-.357v-1.41c0-.096-.004-.27-.015-.388zm2.135 2.382l.228-.277c.155.175.41.292.656.292.474 0 .633-.292.633-.663v-.232h-.007c-.133.201-.38.311-.633.311-.55 0-.907-.41-.907-.925 0-.516.353-.937.903-.937.258 0 .512.114.648.338h.008v-.289h.345V3.74c0 .523-.247 1.001-.994 1.001-.31 0-.656-.121-.88-.326zm.338-1.502c0 .33.22.634.595.634.368 0 .611-.277.611-.634 0-.341-.247-.633-.61-.633-.376 0-.596.288-.596.633z" fill="#fff"/></svg>