<svg width="10" height="4" viewBox="0 0 10 4" fill="none" xmlns="http://www.w3.org/2000/svg"><path d="M1.266 1.904v1.471h-.32V.229h.924c.622 0 1.075.227 1.075.84 0 .467-.346.76-.804.809l.92 1.497H2.67l-.871-1.47h-.533zm0-1.399v1.124h.555c.511 0 .804-.187.804-.56 0-.413-.315-.564-.79-.564h-.57zm2.439 1.67h1.417c-.018-.39-.258-.68-.689-.68a.736.736 0 00-.728.68zm1.723.098c0 .04 0 .089-.004.142H3.7a.758.758 0 00.76.756c.31 0 .55-.174.666-.36l.227.177c-.245.311-.551.44-.893.44-.618 0-1.075-.466-1.075-1.093 0-.626.457-1.093 1.048-1.093.653 0 .995.463.995 1.031zm.632-.977h.29c.008.11.017.266.017.355h.009c.115-.24.417-.409.71-.409.53 0 .792.343.792.858v1.275h-.303v-1.15c0-.436-.128-.73-.564-.73-.32 0-.63.258-.63.814v1.066h-.303V1.753c0-.11-.004-.315-.018-.457zm3.537 0v.253h-.586v1.213c0 .31.129.382.31.382a.62.62 0 00.263-.067l.013.262a.976.976 0 01-.355.063c-.222 0-.533-.098-.533-.556V1.55h-.431v-.253h.43V.709h.303v.587h.586z" fill="#fff"/></svg>