<svg width="151" height="133" viewBox="0 0 151 133" fill="none" xmlns="http://www.w3.org/2000/svg"><g filter="url(#filter0_d_2163_98960)" fill="#fff"><path d="M53.37 102.345H34.84V44.989l-14.56 11.25-9.596-13.125 25.7-18.861H53.37v78.092zm51.232 0h-18.53V44.989l-14.56 11.25-9.596-13.125 25.7-18.861h16.986v78.092zM34.175 114.709c0 1.37-1.059 2.244-2.328 2.244-1.26 0-2.32-.874-2.32-2.244s1.06-2.21 2.32-2.21c1.27 0 2.328.84 2.328 2.21zm-1.328 0c0-.538-.353-1.067-1-1.067s-.983.529-.983 1.067c0 .538.344 1.084.991 1.084.648 0 .992-.546.992-1.084zm4.705-4.32l-.093 1.093a1.263 1.263 0 00-.378-.059c-.504 0-.613.403-.613.79v.42h.933v1.034h-.933v3.151H35.09v-3.151h-.765v-1.034h.765v-.403c0-1.025.403-1.925 1.798-1.925.235 0 .48.026.664.084zm4.779 4.749v-.143h-.177c-.605 0-1.285.075-1.285.571 0 .32.319.429.596.429.555 0 .866-.336.866-.857zm-1.832-1.185l-.698-.748c.488-.462 1.185-.706 1.866-.706 1.404 0 1.925.689 1.925 2.21v2.109H42.33v-.445h-.025c-.21.345-.69.546-1.185.546-.664 0-1.521-.328-1.521-1.311 0-1.21 1.47-1.412 2.689-1.412v-.067c0-.412-.328-.605-.756-.605-.395 0-.782.193-1.034.429zm8.373 2.865h-1.268v-.546h-.017c-.27.42-.815.664-1.37.664-1.26 0-1.992-1.059-1.992-2.227s.757-2.193 1.975-2.193c.614 0 1.042.285 1.277.563h.017v-2.614h1.379v6.353zm-1.319-2.101c0-.529-.386-1.075-1.008-1.075-.656 0-.992.529-.992 1.067 0 .546.336 1.084.992 1.084.622 0 1.008-.529 1.008-1.076zm8.952 2.101h-1.378v-2.285c0-.479-.11-.883-.597-.883-.47 0-.697.437-.697.908v2.26h-1.379v-2.386c0-.479-.185-.782-.596-.782-.437 0-.69.395-.69.899v2.269h-1.386v-4.185h1.336v.58h.017c.193-.353.622-.697 1.252-.697.605 0 1.025.26 1.26.714.278-.437.715-.714 1.337-.714 1.134 0 1.52.924 1.52 1.714v2.588zm2.351-5.521c0 .429-.352.756-.79.756-.445 0-.79-.344-.79-.756 0-.403.345-.756.79-.756.438 0 .79.336.79.756zm-.1 5.521h-1.379v-4.185h1.379v4.185zm5.041 0h-1.386v-2.285c0-.463-.127-.883-.622-.883-.488 0-.74.42-.74.899v2.269h-1.386v-4.185h1.336v.58h.017c.193-.37.672-.697 1.252-.697 1.126 0 1.53.874 1.53 1.714v2.588zm3.885-2.571h1.773c0-.437-.278-.799-.824-.799-.53 0-.916.37-.95.799zm3.042.529c0 .109 0 .227-.009.328h-3.034c.043.462.505.79 1 .79.438 0 .74-.185.925-.437l.958.605c-.395.571-1.05.891-1.9.891-1.26 0-2.302-.799-2.302-2.21 0-1.37.992-2.244 2.26-2.244 1.236 0 2.102.849 2.102 2.277zm4.905-2.143l-1.647 4.185h-1.488l-1.647-4.185h1.521l.883 2.715h.025l.882-2.715h1.471zm1.457 1.614h1.773c0-.437-.277-.799-.823-.799-.53 0-.916.37-.95.799zm3.042.529c0 .109 0 .227-.008.328h-3.034c.042.462.504.79 1 .79.437 0 .74-.185.924-.437l.959.605c-.395.571-1.05.891-1.9.891-1.26 0-2.302-.799-2.302-2.21 0-1.37.991-2.244 2.26-2.244 1.236 0 2.101.849 2.101 2.277zm3.443-2.227l-.058 1.21a1.372 1.372 0 00-.354-.042c-.739 0-.983.605-.983.95v2.151h-1.378v-4.185h1.328v.605h.017c.21-.42.622-.722 1.134-.722.11 0 .227.008.294.033zm4.61.084l-1.874 4.816c-.337.874-.79 1.386-1.84 1.386-.261 0-.555-.042-.757-.092l.151-1.16c.135.042.311.076.445.076.43 0 .572-.202.706-.563l.135-.345-1.748-4.118h1.53l.932 2.689h.025l.832-2.689h1.463zm9.045 0l-1.453 4.185h-1.387l-.824-2.605h-.016l-.807 2.605h-1.387l-1.445-4.185h1.487l.723 2.647h.025l.748-2.647h1.387l.773 2.647h.017l.73-2.647h1.43zm1.463 1.614h1.774c0-.437-.278-.799-.824-.799-.53 0-.916.37-.95.799zm3.043.529c0 .109 0 .227-.009.328h-3.034c.043.462.505.79 1 .79.438 0 .74-.185.925-.437l.958.605c-.395.571-1.051.891-1.9.891-1.26 0-2.302-.799-2.302-2.21 0-1.37.992-2.244 2.26-2.244 1.236 0 2.102.849 2.102 2.277zm1.779-.529h1.773c0-.437-.277-.799-.824-.799-.529 0-.916.37-.949.799zm3.042.529c0 .109 0 .227-.008.328h-3.034c.042.462.504.79 1 .79.437 0 .739-.185.924-.437l.958.605c-.395.571-1.05.891-1.899.891-1.261 0-2.303-.799-2.303-2.21 0-1.37.992-2.244 2.261-2.244 1.235 0 2.101.849 2.101 2.277zm3.485-.252l1.681 2.294h-1.706l-1.37-2.008h-.025v2.008h-1.387v-6.353h1.387v3.866h.025l1.336-1.698h1.673l-1.614 1.891zM124.111 39.217h-3.236v-5.295c0-1.098-.274-2.058-1.431-2.058-1.118 0-1.745.921-1.745 2.078v5.275h-3.216V24.392h3.216v6.295h.039c.431-.784 1.451-1.51 2.804-1.51 2.647 0 3.569 2.04 3.569 4v6.04zm8.474-9.961l-.137 2.823a3.135 3.135 0 00-.823-.098c-1.726 0-2.295 1.412-2.295 2.216v5.02h-3.216v-9.765h3.099v1.411h.039c.49-.98 1.451-1.686 2.647-1.686.255 0 .529.02.686.079zm8.383 1.254l-1.765 1.824c-.51-.49-1.255-.882-2.039-.882-.608 0-1.216.215-1.216.784 0 .55.529.706 1.784.98 1.491.334 3.118 1.079 3.118 2.981 0 2.47-2.176 3.334-4.176 3.334-1.589 0-3.236-.53-4.256-1.51l1.804-1.902c.569.627 1.451 1.098 2.393 1.098.529 0 1.157-.216 1.157-.843 0-.608-.608-.805-1.942-1.118-1.353-.314-2.843-1-2.843-2.843 0-2.334 2.196-3.275 4.059-3.275 1.451 0 2.961.47 3.922 1.372zM33.27 13.942v-.215h-.264c-.908 0-1.929.114-1.929.858 0 .479.48.642.895.642.832 0 1.299-.504 1.299-1.285zm-2.747-1.778l-1.047-1.122c.732-.693 1.778-1.058 2.799-1.058 2.105 0 2.886 1.033 2.886 3.315v3.164h-1.89v-.668h-.038c-.315.517-1.034.82-1.778.82-.995 0-2.281-.492-2.281-1.967 0-1.816 2.206-2.118 4.034-2.118v-.1c0-.619-.492-.909-1.135-.909-.592 0-1.172.29-1.55.643zm12.106 4.299h-2.08v-3.429c0-.693-.189-1.324-.932-1.324-.732 0-1.11.63-1.11 1.35v3.403h-2.08v-6.278h2.005v.87h.025c.29-.555 1.008-1.046 1.878-1.046 1.69 0 2.294 1.31 2.294 2.571v3.883zm7.945 0H48.67v-.82h-.025c-.404.63-1.223.996-2.055.996-1.89 0-2.988-1.588-2.988-3.34 0-1.752 1.135-3.29 2.963-3.29.92 0 1.563.428 1.916.844h.025v-3.92h2.068v9.53zm-1.98-3.152c0-.794-.58-1.613-1.512-1.613-.983 0-1.488.794-1.488 1.6 0 .82.505 1.627 1.488 1.627.932 0 1.512-.794 1.512-1.614zm11.046-2.445l-1.135 1.172c-.328-.315-.807-.567-1.31-.567-.392 0-.782.139-.782.504 0 .353.34.454 1.147.63.958.215 2.004.694 2.004 1.917 0 1.588-1.4 2.143-2.685 2.143-1.021 0-2.08-.34-2.735-.971l1.16-1.223c.365.404.932.706 1.537.706.34 0 .744-.139.744-.542 0-.39-.39-.517-1.248-.719-.87-.201-1.828-.642-1.828-1.827 0-1.5 1.412-2.105 2.61-2.105.932 0 1.903.302 2.52.882zm4.546 3.076v-.215h-.265c-.907 0-1.928.114-1.928.858 0 .479.479.642.895.642.832 0 1.298-.504 1.298-1.285zm-2.748-1.778l-1.046-1.122c.731-.693 1.777-1.058 2.798-1.058 2.106 0 2.887 1.033 2.887 3.315v3.164h-1.89v-.668h-.039c-.315.517-1.033.82-1.777.82-.996 0-2.282-.492-2.282-1.967 0-1.816 2.206-2.118 4.034-2.118v-.1c0-.619-.491-.909-1.134-.909-.593 0-1.173.29-1.55.643zm12.258-1.979l-2.47 6.278h-2.232l-2.47-6.278h2.281l1.324 4.072h.037l1.324-4.072h2.206zm2.186 2.42h2.66c0-.655-.416-1.197-1.236-1.197-.794 0-1.374.555-1.424 1.197zm4.563.795c0 .164 0 .34-.013.491h-4.55c.063.694.756 1.185 1.5 1.185.655 0 1.11-.277 1.386-.655l1.437.907c-.592.858-1.575 1.337-2.849 1.337-1.89 0-3.453-1.198-3.453-3.316 0-2.055 1.487-3.365 3.39-3.365 1.853 0 3.152 1.273 3.152 3.416zm5.833-2.534l-1.135 1.172c-.328-.315-.807-.567-1.31-.567-.392 0-.782.139-.782.504 0 .353.34.454 1.147.63.958.215 2.004.694 2.004 1.917 0 1.588-1.4 2.143-2.685 2.143-1.021 0-2.08-.34-2.735-.971l1.16-1.223c.365.404.932.706 1.537.706.34 0 .744-.139.744-.542 0-.39-.39-.517-1.248-.719-.87-.201-1.828-.642-1.828-1.827 0-1.5 1.412-2.105 2.61-2.105.932 0 1.903.302 2.52.882zm10.068-.68l-2.812 7.222c-.504 1.311-1.184 2.08-2.76 2.08-.39 0-.832-.063-1.135-.138l.227-1.74c.202.063.467.114.668.114.643 0 .857-.303 1.06-.845l.2-.517-2.621-6.177h2.294l1.4 4.034h.037l1.248-4.034h2.194zm7.177 3.113c0 2.055-1.588 3.366-3.492 3.366-1.89 0-3.479-1.311-3.479-3.366s1.588-3.315 3.479-3.315c1.904 0 3.492 1.26 3.492 3.315zm-1.992 0c0-.807-.529-1.601-1.5-1.601-.97 0-1.475.794-1.475 1.6 0 .808.517 1.627 1.488 1.627s1.487-.82 1.487-1.626zm9.15 3.164h-1.992v-.87h-.025c-.29.555-1.008 1.046-1.891 1.046-1.689 0-2.281-1.31-2.281-2.571v-3.883h2.08v3.404c0 .706.176 1.336.932 1.336.719 0 1.11-.63 1.11-1.349v-3.39h2.067v6.277z"/></g><defs><filter id="filter0_d_2163_98960" x="-6.605" y=".933" width="166.211" height="131.902" filterUnits="userSpaceOnUse" color-interpolation-filters="sRGB"><feFlood flood-opacity="0" result="BackgroundImageFix"/><feColorMatrix in="SourceAlpha" values="0 0 0 0 0 0 0 0 0 0 0 0 0 0 0 0 0 0 127 0" result="hardAlpha"/><feOffset dy="4"/><feGaussianBlur stdDeviation="5"/><feComposite in2="hardAlpha" operator="out"/><feColorMatrix values="0 0 0 0 0 0 0 0 0 0 0 0 0 0 0 0 0 0 0.25 0"/><feBlend in2="BackgroundImageFix" result="effect1_dropShadow_2163_98960"/><feBlend in="SourceGraphic" in2="effect1_dropShadow_2163_98960" result="shape"/></filter></defs></svg>