<svg width="16" height="5" viewBox="0 0 16 5" fill="none" xmlns="http://www.w3.org/2000/svg"><path d="M5.854.815v.293c.324.004.684.106.924.315l-.36.373a.786.786 0 00-.564-.235v.897c.453.143.946.351.946.951 0 .618-.453.933-.946.947v.32h-.24v-.32c-.391-.014-.764-.143-1.044-.414l.39-.373c.16.187.427.324.654.329v-.986c-.52-.143-.929-.347-.929-.916 0-.528.454-.848.929-.88V.816h.24zm-.24 1.581v-.835c-.209.022-.396.151-.396.409 0 .244.17.36.396.426zm.24.587v.915c.249-.013.413-.196.413-.458s-.178-.377-.413-.457zM8.04 2.88v-.426h.142c.316 0 .671-.089.671-.475 0-.285-.23-.454-.497-.454-.258 0-.44.165-.502.405l-.502-.13c.11-.421.524-.719 1.026-.719.55 0 1.013.298 1.013.862a.725.725 0 01-.564.71v.01c.382.075.648.369.648.755 0 .653-.564.969-1.097.969-.529 0-.973-.218-1.142-.742l.498-.156c.075.249.293.444.626.444.276 0 .578-.142.578-.52 0-.408-.431-.532-.764-.532H8.04zm1.997-1.239v-.48h2.137v.489l-1.258 2.657h-.626l1.324-2.666h-1.577zm4.728-.48v.48h-1.284l-.03.68c.097-.027.257-.04.368-.04.617 0 1.084.36 1.084.995 0 .697-.52 1.11-1.146 1.11-.524 0-.898-.266-1.062-.688l.484-.178a.612.612 0 00.591.413c.316 0 .587-.217.587-.6 0-.484-.36-.626-.702-.626-.24 0-.542.076-.734.174l.054-1.72h1.79z" fill="#fff"/><path fill-rule="evenodd" clip-rule="evenodd" d="M2.05 3.972c.652 0 1.182-.597 1.182-1.333s-.53-1.333-1.183-1.333c-.652 0-1.182.597-1.182 1.333s.53 1.333 1.182 1.333z" fill="#008380"/></svg>