<svg width="102" height="27" viewBox="0 0 102 27" fill="none" xmlns="http://www.w3.org/2000/svg"><path d="M12.37 23.72c6.365 0 11.524-5.19 11.524-11.592 0-6.403-5.16-11.594-11.523-11.594C6.007.534.848 5.724.848 12.127S6.007 23.721 12.37 23.721z" fill="#2CA01C"/><path d="M8.53 7.62c-2.476 0-4.481 2.019-4.481 4.508 0 2.49 2.005 4.508 4.481 4.508h.64v-1.674h-.64a2.827 2.827 0 01-2.817-2.834A2.827 2.827 0 018.53 9.294h1.539v8.76a1.67 1.67 0 001.664 1.674V7.619H8.53zM16.214 16.636c2.476 0 4.481-2.02 4.481-4.509 0-2.49-2.005-4.508-4.48-4.508h-.641v1.675h.64a2.827 2.827 0 012.817 2.833 2.827 2.827 0 01-2.817 2.834h-1.539v-8.76a1.67 1.67 0 00-1.664-1.674v12.109h3.203z" fill="#fff"/><path d="M34.836 26.534h-1.782v-4.542h-.031c-.461.716-1.368 1.165-2.361 1.165-2.17 0-3.506-1.734-3.506-3.826 0-2.123 1.427-3.766 3.46-3.766 1.306 0 2.11.64 2.466 1.21h.043v-1.002h1.708v10.761h.003zm-3.816-4.871c1.306 0 2.095-1.18 2.095-2.301 0-1.12-.786-2.332-2.095-2.332-1.38 0-2.048 1.18-2.048 2.301-.003 1.12.665 2.332 2.048 2.332zM42.84 22.948h-1.693v-1.152h-.03c-.313.716-1.158 1.36-2.213 1.36-1.856 0-2.63-1.434-2.63-2.898v-4.483h1.783v3.976c0 .852.192 1.911 1.336 1.911 1.13 0 1.665-.986 1.665-1.942v-3.945h1.782v7.173zM44.627 15.618h1.782v7.173h-1.782v-7.173zM53.078 17.761c-.282-.404-.89-.703-1.47-.703-1.306 0-1.961 1.18-1.961 2.3 0 1.121.668 2.301 2.02 2.301.55 0 1.157-.224 1.5-.641l1.115 1.136c-.595.642-1.575 1.002-2.63 1.002-2.11 0-3.862-1.404-3.862-3.795 0-2.331 1.724-3.795 3.818-3.795 1.04 0 2.123.418 2.689 1.121l-1.219 1.074zM55.172 11.65h1.782v7.142h.044l2.704-3.02h2.286L58.9 19.017l3.283 3.929h-2.36L57 19.268h-.043v3.677h-1.782V11.65h-.003zM64.78 11.65v5.037h.043c.372-.464 1.084-1.12 2.392-1.12 2.036 0 3.46 1.643 3.46 3.766 0 2.092-1.337 3.826-3.506 3.826-.996 0-1.962-.464-2.45-1.286h-.031v1.077h-1.693v-11.3h1.785zm2.035 5.38c-1.305 0-2.094 1.21-2.094 2.331 0 1.12.786 2.3 2.094 2.3 1.38 0 2.049-1.21 2.049-2.33 0-1.121-.668-2.301-2.049-2.301zM75.324 15.566c2.154 0 3.877 1.51 3.877 3.767 0 2.257-1.723 3.826-3.877 3.826-2.153 0-3.877-1.57-3.877-3.826 0-2.257 1.724-3.767 3.877-3.767zm0 6.096c1.411 0 2.064-1.21 2.064-2.332 0-1.12-.653-2.3-2.064-2.3s-2.064 1.18-2.064 2.3c0 1.121.653 2.332 2.064 2.332zM83.851 15.566c2.154 0 3.877 1.51 3.877 3.767 0 2.257-1.723 3.826-3.877 3.826-2.153 0-3.876-1.57-3.876-3.826 0-2.257 1.723-3.767 3.876-3.767zm0 6.096c1.411 0 2.064-1.21 2.064-2.332 0-1.12-.653-2.3-2.064-2.3-1.41 0-2.064 1.18-2.064 2.3-.002 1.121.653 2.332 2.064 2.332zM88.811 11.65h1.783v7.142h.043l2.705-3.02h2.286l-3.088 3.244 3.283 3.929h-2.361l-2.822-3.677h-.044v3.677h-1.782V11.65h-.002zM100.686 17.687a2.022 2.022 0 00-1.56-.778c-.563 0-1.144.209-1.144.778 0 .554.55.704 1.544.94 1.055.256 2.302.732 2.302 2.136 0 1.75-1.411 2.391-2.97 2.391-1.099 0-2.243-.417-2.927-1.18l1.172-1.105a2.32 2.32 0 001.826.897c.52 0 1.145-.21 1.145-.853 0-.598-.55-.778-1.634-1.03-1.055-.256-2.11-.689-2.11-2.033 0-1.6 1.426-2.286 2.837-2.286 1.025 0 2.095.359 2.674 1.09l-1.155 1.033zM46.683 5.983c0 1.819 1.447 3.148 3.286 3.148 1.838 0 3.288-1.327 3.288-3.148V1.807h-1.783v3.962c0 .982-.653 1.639-1.51 1.639-.861 0-1.511-.657-1.511-1.639V1.807h-1.78l.01 4.176zM58.018 3.484h2.125v5.503h1.78V3.484h2.122V1.807h-6.027v1.677zM56.865 1.807h-1.78v7.18h1.78v-7.18zM39.493 3.484h2.125v5.503h1.78V3.484h2.123V1.807h-6.028v1.677zM30.155 1.807h-1.78v7.18h1.78v-7.18zM38.556 4.81c0-1.819-1.45-3.148-3.288-3.148-1.838 0-3.288 1.327-3.288 3.148v4.177h1.78V5.024c0-.981.653-1.638 1.51-1.638.859 0 1.512.657 1.512 1.638v3.963h1.78l-.006-4.177z" fill="#000"/></svg>