<svg width="109" height="28" viewBox="0 0 109 28" fill="none" xmlns="http://www.w3.org/2000/svg"><rect x=".474" y=".338" width="108" height="27" rx="3.007" fill="#3BD85E"/><path d="M35.312 17.338v-7.08h2.76c1.07 0 2.17.49 2.17 1.78 0 .8-.5 1.33-1.23 1.55v.02c.89.12 1.53.72 1.53 1.67 0 1.54-1.34 2.06-2.68 2.06h-2.55zm1.26-6.04v1.84h1.12c.84 0 1.29-.35 1.29-.96 0-.63-.45-.88-1.4-.88h-1.01zm0 2.92v2.06h1.13c.65 0 1.58-.13 1.58-1.06 0-.74-.51-1-1.53-1h-1.18zm9.535-1.68v4.8h-1.14v-.77h-.02c-.21.48-.78.91-1.49.91-1.25 0-1.77-.96-1.77-1.94v-3h1.2v2.66c0 .57.13 1.28.9 1.28.76 0 1.12-.66 1.12-1.3v-2.64h1.2zm2.78 4.8l-2.06-4.8h1.33l1.34 3.49h.02l1.19-3.49h1.25l-2.27 5.83c-.34.87-.76 1.37-1.82 1.37-.2 0-.41-.02-.62-.07l.1-1.04c.16.05.32.07.45.07.51 0 .65-.25.85-.75l.24-.61zm6.287 0v-4.8h1.14v.77h.02c.21-.48.78-.91 1.49-.91 1.25 0 1.77.96 1.77 1.94v3h-1.2v-2.66c0-.57-.13-1.28-.9-1.28-.76 0-1.12.66-1.12 1.3v2.64h-1.2zm5.54-2.42c0-1.51 1.16-2.52 2.61-2.52s2.61 1.01 2.61 2.52-1.16 2.56-2.61 2.56-2.61-1.05-2.61-2.56zm1.22 0c0 .75.44 1.56 1.39 1.56s1.39-.81 1.39-1.56-.44-1.54-1.39-1.54-1.39.79-1.39 1.54zm6.154 2.42l-1.67-4.8h1.3l1 3.44h.02l1.03-3.44h1.28l1.04 3.44h.02l1.02-3.44h1.25l-1.66 4.8h-1.22l-1.09-3.36h-.02l-1.08 3.36h-1.22z" fill="#14324F"/></svg>