<svg width="111" height="60" viewBox="0 0 111 60" fill="none" xmlns="http://www.w3.org/2000/svg"><path d="M13.693 13.46c-1.24 1.44-3.12 2.34-5.5 2.34-4.36 0-7.62-3.04-7.62-7.48 0-4.54 3.36-7.44 7.68-7.44 1.98 0 4.12.72 5.3 2.08l-2.32 2.32c-.64-.88-1.78-1.3-2.86-1.3-2.38 0-4.08 1.84-4.08 4.34 0 2.58 1.66 4.34 4.02 4.34 1.34 0 2.4-.6 3-1.44l2.38 2.24zm4.206 1.96h-3.32V.3h3.32v15.12zm8.037-4v-.34h-.42c-1.44 0-3.06.18-3.06 1.36 0 .76.76 1.02 1.42 1.02 1.32 0 2.06-.8 2.06-2.04zm-4.36-2.82l-1.66-1.78c1.16-1.1 2.82-1.68 4.44-1.68 3.34 0 4.58 1.64 4.58 5.26v5.02h-3v-1.06h-.06c-.5.82-1.64 1.3-2.82 1.3-1.58 0-3.62-.78-3.62-3.12 0-2.88 3.5-3.36 6.4-3.36v-.16c0-.98-.78-1.44-1.8-1.44-.94 0-1.86.46-2.46 1.02zm12.928-6.32c0 1.02-.84 1.8-1.88 1.8-1.06 0-1.88-.82-1.88-1.8 0-.96.82-1.8 1.88-1.8 1.04 0 1.88.8 1.88 1.8zm-.24 13.14h-3.28V5.46h3.28v9.96zm18.158 0h-3.28V9.98c0-1.14-.26-2.1-1.42-2.1-1.12 0-1.66 1.04-1.66 2.16v5.38h-3.28V9.74c0-1.14-.44-1.86-1.42-1.86-1.04 0-1.64.94-1.64 2.14v5.4h-3.3V5.46h3.18v1.38h.04c.46-.84 1.48-1.66 2.98-1.66 1.44 0 2.44.62 3 1.7.66-1.04 1.7-1.7 3.18-1.7 2.7 0 3.62 2.2 3.62 4.08v6.16zM61.66 9.3h4.22c0-1.04-.66-1.9-1.96-1.9-1.26 0-2.18.88-2.26 1.9zm7.24 1.26c0 .26 0 .54-.02.78h-7.22c.1 1.1 1.2 1.88 2.38 1.88 1.04 0 1.76-.44 2.2-1.04l2.28 1.44c-.94 1.36-2.5 2.12-4.52 2.12-3 0-5.48-1.9-5.48-5.26 0-3.26 2.36-5.34 5.38-5.34 2.94 0 5 2.02 5 5.42zm11.674-5.1l-3.92 9.96h-3.54l-3.92-9.96h3.62l2.1 6.46h.06l2.1-6.46h3.5zm3.468 3.84h4.22c0-1.04-.66-1.9-1.96-1.9-1.26 0-2.18.88-2.26 1.9zm7.24 1.26c0 .26 0 .54-.02.78h-7.22c.1 1.1 1.2 1.88 2.38 1.88 1.04 0 1.76-.44 2.2-1.04l2.28 1.44c-.94 1.36-2.5 2.12-4.52 2.12-3 0-5.48-1.9-5.48-5.26 0-3.26 2.36-5.34 5.38-5.34 2.94 0 5 2.02 5 5.42zm8.194-5.3l-.14 2.88a3.2 3.2 0 00-.84-.1c-1.76 0-2.34 1.44-2.34 2.26v5.12h-3.28V5.46h3.16V6.9h.04c.5-1 1.48-1.72 2.7-1.72.26 0 .54.02.7.08zm10.969.2l-4.46 11.46c-.8 2.08-1.88 3.3-4.38 3.3-.62 0-1.32-.1-1.8-.22l.36-2.76c.32.1.74.18 1.06.18 1.02 0 1.36-.48 1.68-1.34l.32-.82-4.16-9.8h3.64l2.22 6.4h.06l1.98-6.4h3.48zM12.134 32.4c0 2.78-1.74 5.3-4.74 5.3-1.22 0-2.4-.52-3.02-1.38h-.04v5.9h-3.28V27.46h3.12v1.22h.06c.6-.8 1.72-1.5 3.18-1.5 2.9 0 4.72 2.44 4.72 5.22zm-3.18 0c0-1.28-.78-2.54-2.34-2.54-1.48 0-2.4 1.3-2.4 2.56 0 1.3.92 2.56 2.4 2.56 1.56 0 2.34-1.28 2.34-2.58zm15.364 0c0 3.26-2.52 5.34-5.54 5.34-3 0-5.52-2.08-5.52-5.34s2.52-5.26 5.52-5.26c3.02 0 5.54 2 5.54 5.26zm-3.16 0c0-1.28-.84-2.54-2.38-2.54s-2.34 1.26-2.34 2.54.82 2.58 2.36 2.58 2.36-1.3 2.36-2.58zm12.457-3.86l-1.8 1.86c-.52-.5-1.28-.9-2.08-.9-.62 0-1.24.22-1.24.8 0 .56.54.72 1.82 1 1.52.34 3.18 1.1 3.18 3.04 0 2.52-2.22 3.4-4.26 3.4-1.62 0-3.3-.54-4.34-1.54l1.84-1.94c.58.64 1.48 1.12 2.44 1.12.54 0 1.18-.22 1.18-.86 0-.62-.62-.82-1.98-1.14-1.38-.32-2.9-1.02-2.9-2.9 0-2.38 2.24-3.34 4.14-3.34 1.48 0 3.02.48 4 1.4zm8.993 0l-1.8 1.86c-.52-.5-1.28-.9-2.08-.9-.62 0-1.24.22-1.24.8 0 .56.54.72 1.82 1 1.52.34 3.18 1.1 3.18 3.04 0 2.52-2.22 3.4-4.26 3.4-1.62 0-3.3-.54-4.34-1.54l1.84-1.94c.58.64 1.48 1.12 2.44 1.12.54 0 1.18-.22 1.18-.86 0-.62-.62-.82-1.98-1.14-1.38-.32-2.9-1.02-2.9-2.9 0-2.38 2.24-3.34 4.14-3.34 1.48 0 3.02.48 4 1.4zm4.894-4.26c0 1.02-.84 1.8-1.88 1.8-1.06 0-1.88-.82-1.88-1.8 0-.96.82-1.8 1.88-1.8 1.04 0 1.88.8 1.88 1.8zm-.24 13.14h-3.28v-9.96h3.28v9.96zM60.52 32.4c0 2.78-1.74 5.3-4.74 5.3-1.32 0-2.62-.58-3.26-1.58h-.04v1.3h-3.02V22.3h3.28v6.22h.04c.56-.66 1.58-1.34 3.04-1.34 2.9 0 4.7 2.44 4.7 5.22zm-3.16 0c0-1.28-.8-2.54-2.36-2.54-1.48 0-2.4 1.3-2.4 2.56 0 1.3.92 2.56 2.4 2.56 1.56 0 2.36-1.28 2.36-2.58zm8.163 5.02h-3.32V22.3h3.32v15.12zm4.797-6.12h4.22c0-1.04-.66-1.9-1.96-1.9-1.26 0-2.18.88-2.26 1.9zm7.24 1.26c0 .26 0 .54-.02.78h-7.22c.1 1.1 1.2 1.88 2.38 1.88 1.04 0 1.76-.44 2.2-1.04l2.28 1.44c-.94 1.36-2.5 2.12-4.52 2.12-3 0-5.48-1.9-5.48-5.26 0-3.26 2.36-5.34 5.38-5.34 2.94 0 5 2.02 5 5.42zM11.614 59.42h-3.02v-1.3h-.04c-.64 1-1.94 1.58-3.26 1.58-3 0-4.74-2.52-4.74-5.3s1.8-5.22 4.7-5.22c1.46 0 2.48.68 3.04 1.34h.04V44.3h3.28v15.12zm-3.14-5c0-1.26-.92-2.56-2.4-2.56-1.56 0-2.36 1.26-2.36 2.54 0 1.3.8 2.58 2.36 2.58 1.48 0 2.4-1.26 2.4-2.56zm7.944-1.12h4.22c0-1.04-.66-1.9-1.96-1.9-1.26 0-2.18.88-2.26 1.9zm7.24 1.26c0 .26 0 .54-.02.78h-7.22c.1 1.1 1.2 1.88 2.38 1.88 1.04 0 1.76-.44 2.2-1.04l2.28 1.44c-.94 1.36-2.5 2.12-4.52 2.12-3 0-5.48-1.9-5.48-5.26 0-3.26 2.36-5.34 5.38-5.34 2.94 0 5 2.02 5 5.42zm12.155 4.86h-3.02v-1.3h-.04c-.64 1-1.94 1.58-3.26 1.58-3 0-4.74-2.52-4.74-5.3s1.8-5.22 4.7-5.22c1.46 0 2.48.68 3.04 1.34h.04V44.3h3.28v15.12zm-3.14-5c0-1.26-.92-2.56-2.4-2.56-1.56 0-2.36 1.26-2.36 2.54 0 1.3.8 2.58 2.36 2.58 1.48 0 2.4-1.26 2.4-2.56zm15.024 5h-3.16v-1.38h-.04c-.46.88-1.6 1.66-3 1.66-2.68 0-3.62-2.08-3.62-4.08v-6.16h3.3v5.4c0 1.12.28 2.12 1.48 2.12 1.14 0 1.76-1 1.76-2.14v-5.38h3.28v9.96zm10.885-8.94l-1.9 2.2c-.36-.48-1.08-.8-1.74-.8-1.38 0-2.3 1.18-2.3 2.56 0 1.38.9 2.54 2.34 2.54.66 0 1.38-.26 1.78-.74l1.82 2.22c-.82.8-2.22 1.28-3.68 1.28-3.14 0-5.58-2-5.58-5.3 0-3.24 2.46-5.3 5.56-5.3 1.42 0 2.92.54 3.7 1.34zm6.758 1.44H63v3.8c0 .92.3 1.4 1.24 1.4.32 0 .72-.06.96-.16l.04 2.4c-.44.16-1.2.3-1.9.3-2.66 0-3.54-1.42-3.54-3.54v-4.2h-1.6v-2.46h1.58v-2.62H63v2.62h2.34v2.46zm4.662-5.64c0 1.02-.84 1.8-1.88 1.8-1.06 0-1.88-.82-1.88-1.8 0-.96.82-1.8 1.88-1.8 1.04 0 1.88.8 1.88 1.8zm-.24 13.14h-3.28v-9.96h3.28v9.96zm12.718-5.02c0 3.26-2.52 5.34-5.54 5.34-3 0-5.52-2.08-5.52-5.34s2.52-5.26 5.52-5.26c3.02 0 5.54 2 5.54 5.26zm-3.16 0c0-1.28-.84-2.54-2.38-2.54s-2.34 1.26-2.34 2.54.82 2.58 2.36 2.58 2.36-1.3 2.36-2.58zm14.636 5.02h-3.3v-5.44c0-1.1-.3-2.1-1.48-2.1-1.16 0-1.76 1-1.76 2.14v5.4h-3.3v-9.96h3.18v1.38h.04c.46-.88 1.6-1.66 2.98-1.66 2.68 0 3.64 2.08 3.64 4.08v6.16z" fill="#fff"/></svg>