<svg width="20" height="5" viewBox="0 0 20 5" fill="none" xmlns="http://www.w3.org/2000/svg"><path d="M5.99.922v.293c.325.005.685.107.925.316l-.36.373a.786.786 0 00-.564-.236v.898c.453.142.946.35.946.95 0 .618-.453.934-.946.947v.32h-.24v-.32c-.391-.013-.765-.142-1.044-.413l.39-.373c.16.186.427.324.654.328V3.02c-.52-.142-.929-.347-.929-.915 0-.529.453-.849.929-.88V.922h.24zm-.24 1.582v-.836c-.208.023-.395.151-.395.41 0 .244.169.359.396.426zm.24.586v.915c.25-.013.414-.195.414-.457s-.178-.378-.413-.458zm2.486 1.324V1.917l-.622.511-.311-.369.981-.79h.485v3.145h-.533zm1.578.56l.311-1.173h.516l-.378 1.173h-.449zm1.354-.56v-.489l1.213-1.19c.196-.191.32-.374.32-.618 0-.293-.218-.484-.502-.484-.302 0-.493.23-.533.537l-.52-.08c.062-.52.484-.901 1.062-.901.546 0 1.048.315 1.048.92 0 .404-.226.683-.506.95l-.906.866H13.5v.49h-2.093zm4.65-3.145v.48h-1.285l-.031.68c.098-.028.258-.04.369-.04.617 0 1.084.359 1.084.994 0 .698-.52 1.111-1.146 1.111-.525 0-.898-.267-1.062-.689l.484-.177a.612.612 0 00.59.413c.316 0 .587-.218.587-.6 0-.484-.36-.626-.702-.626-.24 0-.542.075-.733.173l.054-1.72h1.79zM18.99 2.84c0 1.018-.395 1.653-1.106 1.653-.716 0-1.116-.635-1.116-1.653 0-1.017.4-1.652 1.116-1.652.71 0 1.106.635 1.106 1.652zm-.546 0c0-.44-.085-1.208-.56-1.208-.48 0-.569.768-.569 1.208 0 .44.089 1.2.569 1.2.475 0 .56-.76.56-1.2z" fill="#fff"/><path fill-rule="evenodd" clip-rule="evenodd" d="M2.108 4.08c.675 0 1.222-.597 1.222-1.334 0-.736-.547-1.333-1.222-1.333-.674 0-1.221.597-1.221 1.333 0 .737.547 1.334 1.221 1.334z" fill="#00C1BF"/></svg>