<svg width="122" height="86" viewBox="0 0 122 86" fill="none" xmlns="http://www.w3.org/2000/svg"><path d="M57.617 14.325c-1.38.72-3.28 1.22-5.46 1.22-4.52 0-7.78-3-7.78-7.46 0-4.54 3.36-7.44 7.68-7.44 2.22 0 4.28.74 5.46 1.88l-2.16 2.46c-.66-.76-1.8-1.32-3.18-1.32-2.4 0-4.16 1.88-4.16 4.42 0 2.6 1.54 4.46 4.32 4.46.8 0 1.54-.12 2.14-.38v-2.58h-2.7v-2.76h5.84v7.5zm4.81-5.26h4.22c0-1.04-.66-1.9-1.96-1.9-1.26 0-2.18.88-2.26 1.9zm7.24 1.26c0 .26 0 .54-.02.78h-7.22c.1 1.1 1.2 1.88 2.38 1.88 1.04 0 1.76-.44 2.2-1.04l2.28 1.44c-.94 1.36-2.5 2.12-4.52 2.12-3 0-5.48-1.9-5.48-5.26 0-3.26 2.36-5.34 5.38-5.34 2.94 0 5 2.02 5 5.42zm7.495-2.64h-2.34v3.8c0 .92.3 1.4 1.24 1.4.32 0 .72-.06.96-.16l.04 2.4c-.44.16-1.2.3-1.9.3-2.66 0-3.54-1.42-3.54-3.54v-4.2h-1.6v-2.46h1.58v-2.62h3.22v2.62h2.34v2.46zm-63.574 20.62l-1.8 1.86c-.52-.5-1.28-.9-2.08-.9-.62 0-1.24.22-1.24.8 0 .56.54.72 1.82 1 1.52.34 3.18 1.1 3.18 3.04 0 2.52-2.22 3.4-4.26 3.4-1.62 0-3.3-.54-4.34-1.54l1.84-1.94c.58.64 1.48 1.12 2.44 1.12.54 0 1.18-.22 1.18-.86 0-.62-.62-.82-1.98-1.14-1.38-.32-2.9-1.02-2.9-2.9 0-2.38 2.24-3.34 4.14-3.34 1.48 0 3.02.48 4 1.4zm7.234 1.38h-2.34v3.8c0 .92.3 1.4 1.24 1.4.32 0 .72-.06.96-.16l.04 2.4c-.44.16-1.2.3-1.9.3-2.66 0-3.54-1.42-3.54-3.54v-4.2h-1.6v-2.46h1.58v-2.62h3.22v2.62h2.34v2.46zm6.982 3.5v-.34h-.42c-1.44 0-3.06.18-3.06 1.36 0 .76.76 1.02 1.42 1.02 1.32 0 2.06-.8 2.06-2.04zm-4.36-2.82l-1.66-1.78c1.16-1.1 2.82-1.68 4.44-1.68 3.34 0 4.58 1.64 4.58 5.26v5.02h-3v-1.06h-.06c-.5.82-1.64 1.3-2.82 1.3-1.58 0-3.62-.78-3.62-3.12 0-2.88 3.5-3.36 6.4-3.36v-.16c0-.98-.78-1.44-1.8-1.44-.94 0-1.86.46-2.46 1.02zm15.968-3.34l-.14 2.88a3.2 3.2 0 00-.84-.1c-1.76 0-2.34 1.44-2.34 2.26v5.12h-3.28v-9.96h3.16v1.44h.04c.5-1 1.48-1.72 2.7-1.72.26 0 .54.02.7.08zm6.555 2.66h-2.34v3.8c0 .92.3 1.4 1.24 1.4.32 0 .72-.06.96-.16l.04 2.4c-.44.16-1.2.3-1.9.3-2.66 0-3.54-1.42-3.54-3.54v-4.2h-1.6v-2.46h1.58v-2.62h3.22v2.62h2.34v2.46zm3.741 1.38h4.22c0-1.04-.66-1.9-1.96-1.9-1.26 0-2.18.88-2.26 1.9zm7.24 1.26c0 .26 0 .54-.02.78h-7.22c.1 1.1 1.2 1.88 2.38 1.88 1.04 0 1.76-.44 2.2-1.04l2.28 1.44c-.94 1.36-2.5 2.12-4.52 2.12-3 0-5.48-1.9-5.48-5.26 0-3.26 2.36-5.34 5.38-5.34 2.94 0 5 2.02 5 5.42zm12.154 4.86h-3.02v-1.3h-.04c-.64 1-1.94 1.58-3.26 1.58-3 0-4.74-2.52-4.74-5.3s1.8-5.22 4.7-5.22c1.46 0 2.48.68 3.04 1.34h.04v-6.22h3.28v15.12zm-3.14-5c0-1.26-.92-2.56-2.4-2.56-1.56 0-2.36 1.26-2.36 2.54 0 1.3.8 2.58 2.36 2.58 1.48 0 2.4-1.26 2.4-2.56zm26.004-4.96l-3.46 9.96h-3.3l-1.96-6.2h-.04l-1.92 6.2h-3.3l-3.44-9.96h3.54l1.72 6.3h.06l1.78-6.3h3.3l1.84 6.3h.04l1.74-6.3h3.4zm4.402-3.18c0 1.02-.84 1.8-1.88 1.8-1.06 0-1.88-.82-1.88-1.8 0-.96.82-1.8 1.88-1.8 1.04 0 1.88.8 1.88 1.8zm-.24 13.14h-3.28v-9.96h3.28v9.96zm8.058-7.5h-2.34v3.8c0 .92.3 1.4 1.24 1.4.32 0 .72-.06.96-.16l.04 2.4c-.44.16-1.2.3-1.9.3-2.66 0-3.54-1.42-3.54-3.54v-4.2h-1.6v-2.46h1.58v-2.62h3.22v2.62h2.34v2.46zm10.962 7.5h-3.3v-5.4c0-1.12-.28-2.1-1.46-2.1-1.14 0-1.78.94-1.78 2.12v5.38h-3.28v-15.12h3.28v6.42h.04c.44-.8 1.48-1.54 2.86-1.54 2.7 0 3.64 2.08 3.64 4.08v6.16zm-94.093 22h-8.62c-4.5 0-7.56-2.62-7.56-7.26 0-4.3 3.3-7.28 7.68-7.28 4.4 0 7.62 2.96 7.62 7.22 0 2.16-1.08 3.82-2.1 4.6v.06l2.98-.06v2.72zm-4.5-7.22c0-2.46-1.64-4.22-4-4.22-2.28 0-4 1.76-4 4.22 0 2.54 1.64 4.3 3.98 4.3 2.32 0 4.02-1.76 4.02-4.3zm15.308 7.22h-3.16v-1.38h-.04c-.46.88-1.6 1.66-3 1.66-2.68 0-3.62-2.08-3.62-4.08v-6.16h3.3v5.4c0 1.12.28 2.12 1.48 2.12 1.14 0 1.76-1 1.76-2.14v-5.38h3.28v9.96zm5.686-13.14c0 1.02-.84 1.8-1.88 1.8-1.06 0-1.88-.82-1.88-1.8 0-.96.82-1.8 1.88-1.8 1.04 0 1.88.8 1.88 1.8zm-.24 13.14h-3.28v-9.96h3.28v9.96zm10.918-8.94l-1.9 2.2c-.36-.48-1.08-.8-1.74-.8-1.38 0-2.3 1.18-2.3 2.56 0 1.38.9 2.54 2.34 2.54.66 0 1.38-.26 1.78-.74l1.82 2.22c-.82.8-2.22 1.28-3.68 1.28-3.14 0-5.58-2-5.58-5.3 0-3.24 2.46-5.3 5.56-5.3 1.42 0 2.92.54 3.7 1.34zm7.558 3.48l4 5.46h-4.06l-3.26-4.78h-.06v4.78h-3.3v-15.12h3.3v9.2h.06l3.18-4.04h3.98l-3.84 4.5zm15.975 1.34c0 3.08-2.7 4.12-5.4 4.12h-5.64v-14.16h5.64c2.2 0 4.82.78 4.82 3.64 0 1.56-.94 2.6-2.32 3.06v.04c1.62.28 2.9 1.44 2.9 3.3zm-3.88-5.94c0-.96-.74-1.38-2.18-1.38h-1.68v2.92h1.84c1.28 0 2.02-.54 2.02-1.54zm.46 5.62c0-1.18-.96-1.56-2.42-1.56h-1.9v3.24h1.92c1.08 0 2.4-.3 2.4-1.68zm15.62-.58c0 3.26-2.52 5.34-5.54 5.34-3 0-5.52-2.08-5.52-5.34s2.52-5.26 5.52-5.26c3.02 0 5.54 2 5.54 5.26zm-3.16 0c0-1.28-.84-2.54-2.38-2.54s-2.34 1.26-2.34 2.54.82 2.58 2.36 2.58 2.36-1.3 2.36-2.58zm15.357 0c0 3.26-2.52 5.34-5.54 5.34-3 0-5.52-2.08-5.52-5.34s2.52-5.26 5.52-5.26c3.02 0 5.54 2 5.54 5.26zm-3.16 0c0-1.28-.84-2.54-2.38-2.54s-2.34 1.26-2.34 2.54.82 2.58 2.36 2.58 2.36-1.3 2.36-2.58zm11.497-.44l4 5.46h-4.06l-3.26-4.78h-.06v4.78h-3.3v-15.12h3.3v9.2h.06l3.18-4.04h3.98l-3.84 4.5zm12.297-3.42l-1.8 1.86c-.52-.5-1.28-.9-2.08-.9-.62 0-1.24.22-1.24.8 0 .56.54.72 1.82 1 1.52.34 3.18 1.1 3.18 3.04 0 2.52-2.22 3.4-4.26 3.4-1.62 0-3.3-.54-4.34-1.54l1.84-1.94c.58.64 1.48 1.12 2.44 1.12.54 0 1.18-.22 1.18-.86 0-.62-.62-.82-1.98-1.14-1.38-.32-2.9-1.02-2.9-2.9 0-2.38 2.24-3.34 4.14-3.34 1.48 0 3.02.48 4 1.4zM15.956 74.046c0 4.48-3.28 7.52-7.72 7.52-4.42 0-7.7-3.04-7.7-7.52 0-4.54 3.28-7.4 7.7-7.4 4.44 0 7.72 2.86 7.72 7.4zm-3.66 0c0-2.48-1.66-4.32-4.06-4.32-2.4 0-4.04 1.84-4.04 4.32 0 2.56 1.66 4.4 4.04 4.4s4.06-1.84 4.06-4.4zm15.132 7.14h-3.3v-5.44c0-1.1-.3-2.1-1.48-2.1-1.16 0-1.76 1-1.76 2.14v5.4h-3.3v-9.96h3.18v1.38h.04c.46-.88 1.6-1.66 2.98-1.66 2.68 0 3.64 2.08 3.64 4.08v6.16zm5.404 0h-3.32v-15.12h3.32v15.12zm5.717-13.14c0 1.02-.84 1.8-1.88 1.8-1.06 0-1.88-.82-1.88-1.8 0-.96.82-1.8 1.88-1.8 1.04 0 1.88.8 1.88 1.8zm-.24 13.14h-3.28v-9.96h3.28v9.96zm11.998 0h-3.3v-5.44c0-1.1-.3-2.1-1.48-2.1-1.16 0-1.76 1-1.76 2.14v5.4h-3.3v-9.96h3.18v1.38h.04c.46-.88 1.6-1.66 2.98-1.66 2.68 0 3.64 2.08 3.64 4.08v6.16zm4.685-6.12h4.22c0-1.04-.66-1.9-1.96-1.9-1.26 0-2.18.88-2.26 1.9zm7.24 1.26c0 .26 0 .54-.02.78h-7.22c.1 1.1 1.2 1.88 2.38 1.88 1.04 0 1.76-.44 2.2-1.04l2.28 1.44c-.94 1.36-2.5 2.12-4.52 2.12-3 0-5.48-1.9-5.48-5.26 0-3.26 2.36-5.34 5.38-5.34 2.94 0 5 2.02 5 5.42zm12.054-2.64h-2.34v3.8c0 .92.3 1.4 1.24 1.4.32 0 .72-.06.96-.16l.04 2.4c-.44.16-1.2.3-1.9.3-2.66 0-3.54-1.42-3.54-3.54v-4.2h-1.6v-2.46h1.58v-2.62h3.22v2.62h2.34v2.46zm11.661 2.48c0 3.26-2.52 5.34-5.54 5.34-3 0-5.52-2.08-5.52-5.34s2.52-5.26 5.52-5.26c3.02 0 5.54 2 5.54 5.26zm-3.16 0c0-1.28-.84-2.54-2.38-2.54s-2.34 1.26-2.34 2.54.82 2.58 2.36 2.58 2.36-1.3 2.36-2.58zm15.357 5.02h-3.02v-1.3h-.04c-.64 1-1.94 1.58-3.26 1.58-3 0-4.74-2.52-4.74-5.3s1.8-5.22 4.7-5.22c1.46 0 2.48.68 3.04 1.34h.04v-6.22h3.28v15.12zm-3.14-5c0-1.26-.92-2.56-2.4-2.56-1.56 0-2.36 1.26-2.36 2.54 0 1.3.8 2.58 2.36 2.58 1.48 0 2.4-1.26 2.4-2.56zm11.184 1v-.34h-.42c-1.44 0-3.06.18-3.06 1.36 0 .76.76 1.02 1.42 1.02 1.32 0 2.06-.8 2.06-2.04zm-4.36-2.82l-1.66-1.78c1.16-1.1 2.82-1.68 4.44-1.68 3.34 0 4.58 1.64 4.58 5.26v5.02h-3v-1.06h-.06c-.5.82-1.64 1.3-2.82 1.3-1.58 0-3.62-.78-3.62-3.12 0-2.88 3.5-3.36 6.4-3.36v-.16c0-.98-.78-1.44-1.8-1.44-.94 0-1.86.46-2.46 1.02zm19.448-3.14l-4.46 11.46c-.8 2.08-1.88 3.3-4.38 3.3-.62 0-1.32-.1-1.8-.22l.36-2.76c.32.1.74.18 1.06.18 1.02 0 1.36-.48 1.68-1.34l.32-.82-4.16-9.8h3.64l2.22 6.4h.06l1.98-6.4h3.48z" fill="#14324F"/></svg>